<svg width="30" height="30" fill="none" xmlns="http://www.w3.org/2000/svg"><path d="M27.689 11.732a.747.747 0 00-.747.747v13.634a2.244 2.244 0 01-2.242 2.242H3.736a2.244 2.244 0 01-2.242-2.242V6.643a2.244 2.244 0 012.242-2.241H16.37a.747.747 0 100-1.495H3.736A3.74 3.74 0 000 6.643v19.47a3.74 3.74 0 003.736 3.736H24.7a3.74 3.74 0 003.736-3.736V12.48a.747.747 0 00-.747-.747z" fill="#1A0641"/><path d="M28.14.985a3.362 3.362 0 00-4.755 0l-13.33 13.33a.747.747 0 00-.191.328L8.11 20.972a.747.747 0 00.92.92l6.327-1.754a.747.747 0 00.33-.192l13.329-13.33a3.366 3.366 0 000-4.754L28.14.985zM11.683 14.8l10.91-10.91L26.11 7.41l-10.91 10.91-3.518-3.519zm-.702 1.41l2.81 2.811L9.903 20.1l1.078-3.889zM27.96 5.56l-.793.792-3.519-3.518.793-.793c.73-.729 1.912-.729 2.641 0l.877.877a1.87 1.87 0 010 2.642z" fill="#AD2F6D"/></svg>