<svg width="71" height="50" fill="none" xmlns="http://www.w3.org/2000/svg"><path d="M31.667.5l-9.765 21.371-.188.411.39.228a13.135 13.135 0 014.946 5.144 13.178 13.178 0 011.533 6.979v.028c0 8.633-5.916 14.837-13.876 14.837v0h-.008A13.939 13.939 0 014.39 45.193 14.012 14.012 0 01.523 34.69v-.016a21.565 21.565 0 014.468-12.599l.01-.014.01-.015L19.263.5h12.405zm35.47 34.133v.028c0 8.633-5.915 14.837-13.875 14.837v0h-.008a13.939 13.939 0 01-10.308-4.305 14.012 14.012 0 01-3.868-10.503v-.016a21.566 21.566 0 014.468-12.599l.01-.014.01-.015L57.817.5h12.405l-9.765 21.371-.188.411.39.228a13.136 13.136 0 014.946 5.144 13.179 13.179 0 011.533 6.979z" stroke="#000"/></svg>