<svg width="66" height="47" fill="none" xmlns="http://www.w3.org/2000/svg"><path d="M36.614 46.5l9.06-20.048.184-.408-.385-.228a12.255 12.255 0 01-4.586-4.823 12.478 12.478 0 01-1.422-6.546V14.418c0-8.105 5.49-13.916 12.864-13.916v0h.008c1.78-.03 3.547.313 5.19 1.007a12.946 12.946 0 014.364 3.028 13.163 13.163 0 012.807 4.546c.617 1.696.883 3.502.78 5.307v.016a20.388 20.388 0 01-4.147 11.827l-.01.014-.01.015L48.073 46.5h-11.46zm-24.38 0H.774l9.06-20.048.183-.405-.38-.23a12.26 12.26 0 01-4.538-4.837 12.479 12.479 0 01-1.386-6.531l.033-.53h-.113C3.854 6.074 9.268.501 16.49.501v0h.008c1.78-.03 3.547.313 5.191 1.007a12.946 12.946 0 014.363 3.028 13.163 13.163 0 012.807 4.546c.617 1.696.883 3.502.78 5.307v.016a20.388 20.388 0 01-4.147 11.827l-.01.014-.01.015L12.234 46.5z" stroke="#000"/></svg>