<svg width="38" height="33" viewBox="0 0 38 33" fill="none" xmlns="http://www.w3.org/2000/svg">
<path d="M37.6484 16.3062C37.6484 15.5317 37.2181 14.8352 36.525 14.4883L33.7963 13.1239L36.525 11.7596C36.5251 11.7595 36.5253 11.7595 36.5253 11.7595C37.2182 11.4127 37.6485 10.7161 37.6485 9.94157C37.6485 9.16715 37.2181 8.47062 36.5252 8.12368L21.1201 0.421358C19.9955 -0.140465 18.6528 -0.140465 17.5279 0.42143L2.12314 8.12403C1.4304 8.47069 1 9.16715 1 9.94164C1 10.7162 1.43033 11.4127 2.12336 11.7596L4.85202 13.1239L2.123 14.4884C1.43033 14.8352 1 15.5317 1 16.3062C1 17.0808 1.43033 17.7772 2.12336 18.1241L4.85202 19.4885L2.12357 20.8527C1.43091 21.1988 1.00029 21.895 1 22.6697C0.999714 23.4447 1.43005 24.1416 2.12336 24.4886L17.5282 32.1911C18.0905 32.472 18.7072 32.6124 19.3241 32.6124C19.9411 32.6124 20.558 32.4719 21.1204 32.191L36.5252 24.4885C37.2183 24.1417 37.6487 23.4448 37.6484 22.6697C37.6481 21.8951 37.2175 21.1989 36.525 20.853L33.7963 19.4886L36.5253 18.1241C37.2181 17.7772 37.6484 17.0808 37.6484 16.3062ZM2.87716 10.2528C2.70973 10.169 2.68482 10.0219 2.68482 9.94171C2.68482 9.86154 2.70988 9.71445 2.87687 9.63084L18.2812 1.92867C18.6078 1.76547 18.9661 1.68401 19.3243 1.68401C19.6825 1.68401 20.0406 1.76554 20.367 1.92859L35.7713 9.6307C35.9386 9.71445 35.9636 9.86154 35.9636 9.94171C35.9636 10.0219 35.9387 10.169 35.7713 10.2528L20.3672 17.9548C19.7141 18.281 18.9343 18.281 18.2815 17.9548L2.87716 10.2528ZM35.7718 22.3599C35.9386 22.4433 35.9636 22.5901 35.9636 22.6703C35.9636 22.7507 35.9387 22.8981 35.7715 22.9817L20.3672 30.6838C19.714 31.0101 18.9342 31.0102 18.2814 30.6839L2.87716 22.9817C2.70973 22.8979 2.68475 22.7506 2.68482 22.6702C2.68482 22.5901 2.70973 22.4432 2.87687 22.3598L6.73583 20.4303L17.5282 25.8264C18.0905 26.1074 18.7072 26.2477 19.3241 26.2477C19.941 26.2477 20.5579 26.1072 21.1203 25.8264L31.9124 20.4303L35.7718 22.3599ZM35.7715 16.6172L20.3672 24.3193C19.714 24.6456 18.9342 24.6457 18.2814 24.3194L2.87716 16.6173C2.70973 16.5336 2.68482 16.3865 2.68482 16.3063C2.68482 16.226 2.70973 16.079 2.87687 15.9954L6.73583 14.0659L17.5282 19.462C18.0905 19.7429 18.7073 19.8833 19.3241 19.8833C19.9408 19.8833 20.5579 19.7429 21.1203 19.4618L31.9125 14.0658L35.7712 15.9951C35.9386 16.079 35.9635 16.226 35.9635 16.3062C35.9636 16.3864 35.9386 16.5335 35.7715 16.6172Z" fill="#1A0641"/>
<path d="M37.6484 16.3062C37.6484 15.5317 37.2181 14.8352 36.525 14.4883L33.7963 13.1239L36.525 11.7596C36.5251 11.7595 36.5253 11.7595 36.5253 11.7595C37.2182 11.4127 37.6485 10.7161 37.6485 9.94157C37.6485 9.16715 37.2181 8.47062 36.5252 8.12368L21.1201 0.421358C19.9955 -0.140465 18.6528 -0.140465 17.5279 0.42143L2.12314 8.12403C1.4304 8.47069 1 9.16715 1 9.94164C1 10.7162 1.43033 11.4127 2.12336 11.7596L4.85202 13.1239L2.123 14.4884C1.43033 14.8352 1 15.5317 1 16.3062C1 17.0808 1.43033 17.7772 2.12336 18.1241L4.85202 19.4885L2.12357 20.8527C1.43091 21.1988 1.00029 21.895 1 22.6697C0.999714 23.4447 1.43005 24.1416 2.12336 24.4886L17.5282 32.1911C18.0905 32.472 18.7072 32.6124 19.3241 32.6124C19.9411 32.6124 20.558 32.4719 21.1204 32.191L36.5252 24.4885C37.2183 24.1417 37.6487 23.4448 37.6484 22.6697C37.6481 21.8951 37.2175 21.1989 36.525 20.853L33.7963 19.4886L36.5253 18.1241C37.2181 17.7772 37.6484 17.0808 37.6484 16.3062ZM2.87716 10.2528C2.70973 10.169 2.68482 10.0219 2.68482 9.94171C2.68482 9.86154 2.70988 9.71445 2.87687 9.63084L18.2812 1.92867C18.6078 1.76547 18.9661 1.68401 19.3243 1.68401C19.6825 1.68401 20.0406 1.76554 20.367 1.92859L35.7713 9.6307C35.9386 9.71445 35.9636 9.86154 35.9636 9.94171C35.9636 10.0219 35.9387 10.169 35.7713 10.2528L20.3672 17.9548C19.7141 18.281 18.9343 18.281 18.2815 17.9548L2.87716 10.2528ZM35.7718 22.3599C35.9386 22.4433 35.9636 22.5901 35.9636 22.6703C35.9636 22.7507 35.9387 22.8981 35.7715 22.9817L20.3672 30.6838C19.714 31.0101 18.9342 31.0102 18.2814 30.6839L2.87716 22.9817C2.70973 22.8979 2.68475 22.7506 2.68482 22.6702C2.68482 22.5901 2.70973 22.4432 2.87687 22.3598L6.73583 20.4303L17.5282 25.8264C18.0905 26.1074 18.7072 26.2477 19.3241 26.2477C19.941 26.2477 20.5579 26.1072 21.1203 25.8264L31.9124 20.4303L35.7718 22.3599ZM35.7715 16.6172L20.3672 24.3193C19.714 24.6456 18.9342 24.6457 18.2814 24.3194L2.87716 16.6173C2.70973 16.5336 2.68482 16.3865 2.68482 16.3063C2.68482 16.226 2.70973 16.079 2.87687 15.9954L6.73583 14.0659L17.5282 19.462C18.0905 19.7429 18.7073 19.8833 19.3241 19.8833C19.9408 19.8833 20.5579 19.7429 21.1203 19.4618L31.9125 14.0658L35.7712 15.9951C35.9386 16.079 35.9635 16.226 35.9635 16.3062C35.9636 16.3864 35.9386 16.5335 35.7715 16.6172Z" fill="#1A0641"/>
<path d="M3.00088 8.70005L11.0009 4.70005C13.5009 3.53338 18.0009 1 19.0009 1C20.3594 1 21.1675 1.53338 21.5009 1.70005L35.5009 8.5C35.5009 8.5 37.0009 9.19273 37.0009 10.2C37.0009 10.6 36.3342 11.0334 36.0009 11.2L22.0009 18.2C21.5009 18.5334 20.3009 19.2002 19.5009 19.2002C18.7009 19.2002 17.8342 18.8667 17.5009 18.7L3.50088 11.7C3.00088 11.5334 1.80078 11 1.80078 10.2C1.80078 9.40005 2.66755 8.86671 3.00088 8.70005Z" stroke="#AD2F6D" stroke-width="2"/>
</svg>
