<svg width="16" height="11" viewBox="0 0 16 11" fill="none" xmlns="http://www.w3.org/2000/svg">
<path d="M6.91858 6.54617L3.66057 3.6233C3.3913 3.35693 3.06197 3.22404 2.67261 3.22404C2.28329 3.22404 1.95411 3.35696 1.68488 3.6233L1.26668 4.03632C0.99753 4.30228 0.862915 4.62778 0.862915 5.01242C0.862915 5.39706 0.99753 5.72241 1.26668 5.98878L5.92515 10.3066C6.19442 10.5727 6.52372 10.7058 6.91311 10.7058C7.30251 10.7058 7.63153 10.5728 7.90092 10.3066L15.0069 3.27335C15.2762 3.00698 15.4108 2.68166 15.4108 2.29699C15.4108 1.91232 15.2762 1.58685 15.0069 1.32089L14.5889 0.907869C14.3197 0.641497 13.9923 0.508612 13.6064 0.508612C13.2208 0.508612 12.8897 0.641534 12.6132 0.907869L6.91858 6.54617Z" fill="#D3129B"/>
</svg>
