<svg width="276" height="156" viewBox="0 0 276 156" fill="none" xmlns="http://www.w3.org/2000/svg">
<g clip-path="url(#clip0_2_8342)">
<ellipse cx="138.172" cy="99.0195" rx="103.406" ry="92.6838" fill="#F8F8F8"/>
<path d="M176.055 49.6993C180.397 49.6993 183.917 45.6457 183.917 40.6454C183.917 35.645 180.397 31.5914 176.055 31.5914C171.712 31.5914 168.192 35.645 168.192 40.6454C168.192 45.6457 171.712 49.6993 176.055 49.6993Z" fill="#2156A1"/>
<path d="M158.306 160.932C155.558 160.286 153.179 158.587 151.691 156.205C150.202 153.823 149.725 150.953 150.362 148.223L163.373 93.1183C164.026 90.392 165.739 88.0327 168.138 86.5556C170.537 85.0785 173.427 84.6035 176.178 85.2345C178.925 85.882 181.302 87.582 182.791 89.9632C184.279 92.3444 184.757 95.2133 184.122 97.9435L171.109 153.048C170.459 155.775 168.746 158.136 166.347 159.613C163.948 161.09 161.057 161.565 158.306 160.932Z" fill="#FFBDB8"/>
<path d="M156.754 122.131L174.015 140.239L178.198 123.225L156.754 122.131Z" fill="#FF9EA8"/>
<path d="M99.5747 167.436L153.502 142.145L171.053 153.591C171.053 153.591 168.139 169.595 109.881 177.884L99.5747 167.436Z" fill="#FFBDB8"/>
<path fill-rule="evenodd" clip-rule="evenodd" d="M180.553 159.783C172.517 167.873 154.821 176.744 154.852 184.974L227.645 186.931C227.645 186.931 232.694 188.019 239.674 186.931C246.387 185.882 233.205 152.152 233.205 152.152L180.553 159.783Z" fill="#2156A2"/>
<path d="M142.833 29.2088H94.9121C89.0649 29.2088 84.3247 33.9282 84.3247 39.75V55.3599C84.3247 61.1816 89.0649 65.9011 94.9121 65.9011H142.833C148.68 65.9011 153.421 61.1816 153.421 55.3599V39.75C153.421 33.9282 148.68 29.2088 142.833 29.2088Z" fill="#A8D6FF"/>
<path fill-rule="evenodd" clip-rule="evenodd" d="M62.1564 48.0195C64.2846 45.8914 67.1712 44.6958 70.1809 44.6958H118.311C121.321 44.6958 124.207 45.8914 126.336 48.0195C128.464 50.1477 129.66 53.0341 129.66 56.0438V71.7897C129.66 71.7896 129.66 71.7898 129.66 71.7897C129.66 72.9947 129.468 74.1919 129.091 75.3356L131.208 85.3886L131.208 85.3891C131.311 85.8775 131.271 86.385 131.094 86.8516C130.917 87.3181 130.61 87.7242 130.209 88.0216C129.809 88.319 129.331 88.4954 128.833 88.5298C128.335 88.5641 127.838 88.455 127.4 88.2155L118.128 83.138H70.181C70.181 83.138 70.1811 83.138 70.181 83.138C68.6907 83.1382 67.2148 82.8448 65.8379 82.2746C64.4609 81.7044 63.2098 80.8685 62.156 79.8147C61.1021 78.7609 60.2662 77.5098 59.6959 76.1329C59.1257 74.756 58.8323 73.2803 58.8325 71.79C58.8325 71.79 58.8325 71.79 58.8325 71.79V56.0438C58.8325 53.0341 60.0282 50.1477 62.1564 48.0195ZM70.1809 46.1254C67.5503 46.1254 65.0274 47.1703 63.1672 49.0304C61.3071 50.8905 60.2621 53.4133 60.2621 56.0438V71.79C60.2619 73.0925 60.5183 74.3825 61.0167 75.5859C61.5151 76.7893 62.2457 77.8828 63.1668 78.8038C64.0879 79.7249 65.1814 80.4554 66.3849 80.9538C67.5883 81.4522 68.8782 81.7086 70.1808 81.7084H118.494L128.086 86.9614C128.086 86.9614 128.086 86.9614 128.086 86.9614C128.284 87.0697 128.51 87.1191 128.735 87.1036C128.96 87.088 129.176 87.0083 129.357 86.8737C129.539 86.7392 129.678 86.5554 129.758 86.3443C129.838 86.1332 129.856 85.9037 129.809 85.6827L127.611 75.2438L127.677 75.0557C128.043 74.006 128.23 72.9021 128.23 71.7903V56.0438C128.23 53.4133 127.185 50.8905 125.325 49.0304C123.465 47.1703 120.942 46.1254 118.311 46.1254H70.1809Z" fill="#2156A2"/>
<path d="M75.5079 68.2837C78.2712 68.2837 80.5114 66.0436 80.5114 63.2802C80.5114 60.5169 78.2712 58.2767 75.5079 58.2767C72.7445 58.2767 70.5044 60.5169 70.5044 63.2802C70.5044 66.0436 72.7445 68.2837 75.5079 68.2837Z" fill="#D3129B"/>
<path fill-rule="evenodd" clip-rule="evenodd" d="M86.9456 58.7533C86.9456 58.3585 87.2656 58.0385 87.6603 58.0385H122.447C122.841 58.0385 123.161 58.3585 123.161 58.7533C123.161 59.148 122.841 59.468 122.447 59.468H87.6603C87.2656 59.468 86.9456 59.148 86.9456 58.7533Z" fill="#2156A2"/>
<path fill-rule="evenodd" clip-rule="evenodd" d="M86.9456 68.2837C86.9456 67.889 87.2656 67.5689 87.6603 67.5689H111.963C112.358 67.5689 112.678 67.889 112.678 68.2837C112.678 68.6785 112.358 68.9985 111.963 68.9985H87.6603C87.2656 68.9985 86.9456 68.6785 86.9456 68.2837Z" fill="#2156A2"/>
<path d="M86.5177 156.427C88.0733 152.453 84.8481 147.476 79.3142 145.309C73.7802 143.143 68.033 144.608 66.4774 148.581C64.9217 152.555 68.1468 157.532 73.6808 159.699C79.2147 161.865 84.962 160.4 86.5177 156.427Z" fill="white"/>
<path d="M230.26 76.5505C214.778 81.0895 199.526 80.3989 184.503 74.4785C184.503 74.4785 164.998 85.4478 166.892 109.465C167.468 116.782 173.45 121.02 176.814 124.298C178.63 137.688 178.935 151.394 175.759 160.66C169.74 183.973 201.167 174.192 231.253 164.192C231.253 164.192 242.909 119.12 244.377 113.169C250.012 90.3222 230.26 76.5505 230.26 76.5505Z" fill="#4F71DD"/>
<path d="M208.033 20.5318C208.033 20.5318 218.535 31.9158 214.41 40.446C210.285 48.9763 208.738 57.5065 203.133 54.2198C197.529 50.9331 195.356 13.96 195.356 13.96L208.033 20.5318Z" fill="#2156A2"/>
<path d="M206.774 83.4225L205.374 83.7434C201.069 84.7324 190.807 82.972 189.733 78.2416C197.535 74.1453 192.549 58.4714 187.97 43.3961C186.896 38.6703 189.541 33.997 193.845 33.008L195.245 32.6871C199.543 31.6982 205.932 36.0073 207.006 40.7316C210.5 54.8225 210.989 67.2965 219.575 70.1909C220.648 74.9167 211.078 82.4335 206.774 83.4225Z" fill="#FFBDB8"/>
<path d="M229.276 102.117L166.286 96.3793C166.286 87.6387 169.46 70.4245 189.992 69.9013L216.789 69.7133L233.385 73.5049C241.462 73.508 237.35 102.123 229.276 102.117Z" fill="#FFBDB8"/>
<path d="M192.02 57.3816C192.02 57.3816 193.977 56.9952 194.557 56.716C195.138 56.4368 202.98 52.0819 202.98 52.0819C202.98 52.0819 200.046 62.9652 193.455 64.4715C193.458 64.4715 192.41 58.932 192.02 57.3816Z" fill="#FF9EA8"/>
<path fill-rule="evenodd" clip-rule="evenodd" d="M203.206 8.95574C203.206 8.95574 211.609 0.12087 220.784 3.97213C229.959 7.82338 225.421 15.8113 236.292 20.04C254.351 27.0628 249.23 44.283 242.731 48.1496C231.123 55.0405 224.23 48.7281 222.633 41.8587C221.036 34.9894 223.125 17.8934 213.972 19.7976C204.818 21.7017 202.125 20.5878 203.206 8.95574Z" fill="#2156A2"/>
<path d="M185.887 61.1256C181.397 58.6339 177.339 51.8786 176.551 44.5302L174.499 31.9652C173.487 22.522 179.463 14.0645 187.785 13.1732L188.615 13.0836C196.932 12.1922 204.565 19.19 205.577 28.6346L207.221 43.954C208.015 51.3689 198.415 56.3909 194.973 60.103C193.227 61.9783 187.167 61.8346 185.887 61.1256Z" fill="#FFBDB8"/>
<path d="M168.784 27.0133C167.81 31.4756 173.207 34.3805 176.483 31.2062C178.022 29.7157 179.874 28.7291 181.411 27.6162C190.381 21.1168 200.928 25.4132 200.07 22.1003L190.372 11.0685C190.372 11.0685 182.032 6.02152 174.423 15.1122C171.335 18.8072 169.654 23.0335 168.784 27.0133Z" fill="#2156A2"/>
<path fill-rule="evenodd" clip-rule="evenodd" d="M186.001 9.74723C186.001 9.74723 196.739 1.03609 209.641 9.69178C222.542 18.3475 215.188 38.7393 215.188 38.7393C215.188 38.7393 198.463 34.5201 197.375 25.9861C196.288 17.4522 184.395 14.1899 184.395 14.1899L186.001 9.74723Z" fill="#2156A2"/>
<path d="M211.417 38.8157C211.64 35.949 210.351 33.5108 208.537 33.3696C206.724 33.2285 205.073 35.438 204.85 38.3046C204.627 41.1713 205.916 43.6096 207.729 43.7507C209.543 43.8918 211.194 41.6823 211.417 38.8157Z" fill="#587FF5"/>
<path d="M178.053 36.8199C178.961 36.6481 179.892 36.5861 180.82 36.6359C180.915 36.6382 181.009 36.624 181.097 36.5941C181.185 36.5643 181.265 36.5195 181.332 36.4624C181.398 36.4053 181.451 36.3371 181.486 36.262C181.521 36.187 181.538 36.1066 181.535 36.0259C181.537 35.8863 181.479 35.751 181.372 35.6454C181.265 35.5398 181.116 35.4713 180.954 35.4527C179.879 35.343 178.79 35.4176 177.75 35.6721C177.59 35.7137 177.453 35.8019 177.362 35.9214C177.27 36.0408 177.232 36.1838 177.252 36.3253C177.261 36.4046 177.29 36.4813 177.337 36.5504C177.383 36.6194 177.447 36.6793 177.522 36.726C177.598 36.7728 177.684 36.8053 177.776 36.8215C177.867 36.8376 177.962 36.8371 178.053 36.8199Z" fill="#2156A2"/>
<path d="M190.699 35.8599C191.916 35.6172 193.153 35.5177 194.389 35.563C194.907 35.5828 195.353 35.2035 195.355 34.7549C195.355 34.3706 195.032 34.0556 194.593 34.0193C193.161 33.8996 191.72 34.0175 190.32 34.369C189.885 34.4778 189.597 34.8473 189.642 35.2283C189.697 35.6752 190.184 35.9605 190.699 35.8599Z" fill="#2156A2"/>
<path d="M193.43 39.5442C193.536 40.3292 193.204 41.0324 192.693 41.1141C192.182 41.1958 191.671 40.6268 191.564 39.8419C191.456 39.057 191.789 38.3523 192.3 38.2705C192.811 38.1888 193.316 38.7593 193.43 39.5442Z" fill="#2156A2"/>
<path d="M181.039 40.9738C181.146 41.7587 180.813 42.4619 180.302 42.5436C179.79 42.6254 179.279 42.0563 179.173 41.2699C179.067 40.4834 179.397 39.7818 179.91 39.7001C180.423 39.6184 180.931 40.1889 181.039 40.9738Z" fill="#2156A2"/>
<path fill-rule="evenodd" clip-rule="evenodd" d="M207.979 38.7957L207.979 38.7919L207.981 38.7702C207.983 38.75 207.986 38.7189 207.991 38.6785C208 38.5976 208.015 38.4806 208.038 38.3412C208.085 38.0582 208.161 37.7016 208.278 37.3716C208.4 37.0256 208.539 36.7893 208.668 36.6706C208.723 36.6192 208.761 36.6042 208.783 36.599C208.803 36.5945 208.85 36.5873 208.944 36.619C209.319 36.7449 209.724 36.5436 209.85 36.1694C209.976 35.7952 209.774 35.3899 209.4 35.264C209.084 35.1579 208.764 35.1346 208.455 35.2077C208.148 35.28 207.897 35.4362 207.697 35.6212C207.314 35.9753 207.079 36.4729 206.93 36.8954C206.775 37.3338 206.682 37.7801 206.628 38.1079C206.601 38.2739 206.582 38.4143 206.571 38.5144C206.565 38.5645 206.561 38.6048 206.558 38.6335C206.557 38.6478 206.556 38.6592 206.555 38.6675L206.554 38.6776L206.554 38.6808L206.554 38.682C206.554 38.6822 206.554 38.6828 207.266 38.7393L206.554 38.6828C206.522 39.0764 206.816 39.4207 207.21 39.4518C207.603 39.483 207.947 39.1891 207.979 38.7957Z" fill="#2156A2"/>
<path d="M193.927 67.4451C193.927 67.4451 189.809 65.5036 187.881 68.6589L177.142 71.7759C174.337 72.5894 171.775 74.0696 169.678 76.0877C167.582 78.1058 166.014 80.6008 165.112 83.356L154.852 121.317C162.24 124.222 169.439 124.393 176.418 121.317L193.927 67.4451Z" fill="#ECF3FF"/>
<path d="M193.898 67.4342C193.898 67.4342 193.359 82.9549 203.464 82.9549C213.569 82.9549 214.267 65.9011 214.267 65.9011L227.077 77.8146L232.215 107.458L238.717 135.168V170.26H175.597V131.909C175.597 131.909 162.053 123.032 166.829 105.916C171.605 88.7989 193.898 67.4342 193.898 67.4342Z" fill="#ECF3FF"/>
<path d="M191.671 93.3183L190.423 93.2908L190.437 92.6694L193.631 92.7397L193.617 93.3612L192.37 93.3337L192.296 96.6671L191.597 96.6517L191.671 93.3183Z" fill="#0967EB"/>
<path d="M196.442 95.2661C196.441 95.3151 196.436 95.3847 196.427 95.4749L194.174 95.4253C194.208 95.6484 194.307 95.8277 194.469 95.9632C194.634 96.0949 194.841 96.1635 195.088 96.169C195.404 96.1759 195.666 96.0724 195.875 95.8585L196.226 96.3014C196.093 96.4606 195.927 96.5794 195.728 96.6579C195.529 96.7364 195.306 96.773 195.059 96.7675C194.743 96.7606 194.467 96.6885 194.23 96.5514C193.992 96.4143 193.81 96.2275 193.682 95.9911C193.559 95.7509 193.5 95.4821 193.507 95.1845C193.513 94.8907 193.582 94.6285 193.712 94.3977C193.846 94.1632 194.028 93.9826 194.257 93.8557C194.486 93.7289 194.742 93.6686 195.025 93.6748C195.304 93.681 195.552 93.7524 195.768 93.889C195.987 94.022 196.155 94.2084 196.272 94.4484C196.392 94.6847 196.449 94.9573 196.442 95.2661ZM195.012 94.2398C194.797 94.2351 194.613 94.2988 194.459 94.4311C194.309 94.5597 194.216 94.7348 194.179 94.9563L195.808 94.9922C195.784 94.7731 195.7 94.5941 195.556 94.4553C195.412 94.3164 195.231 94.2446 195.012 94.2398Z" fill="#0967EB"/>
<path d="M197.148 92.5797L197.82 92.5945L197.727 96.7867L197.055 96.7719L197.148 92.5797Z" fill="#0967EB"/>
<path d="M201.342 95.374C201.341 95.423 201.336 95.4926 201.327 95.5828L199.074 95.5332C199.108 95.7563 199.206 95.9356 199.368 96.0711C199.534 96.2028 199.741 96.2714 199.988 96.2769C200.303 96.2838 200.566 96.1803 200.775 95.9664L201.126 96.4093C200.993 96.5685 200.827 96.6873 200.628 96.7658C200.429 96.8443 200.206 96.8809 199.959 96.8754C199.643 96.8685 199.367 96.7964 199.129 96.6593C198.892 96.5222 198.71 96.3354 198.582 96.099C198.458 95.8588 198.4 95.59 198.406 95.2924C198.413 94.9986 198.481 94.7364 198.612 94.5056C198.746 94.2711 198.928 94.0905 199.157 93.9636C199.385 93.8368 199.641 93.7765 199.925 93.7827C200.204 93.7889 200.452 93.8603 200.668 93.9969C200.887 94.1299 201.055 94.3163 201.172 94.5563C201.292 94.7926 201.349 95.0652 201.342 95.374ZM199.912 94.3477C199.697 94.343 199.513 94.4067 199.359 94.539C199.209 94.6676 199.116 94.8427 199.078 95.0642L200.708 95.1001C200.684 94.881 200.6 94.702 200.456 94.5632C200.312 94.4243 200.131 94.3525 199.912 94.3477Z" fill="#0967EB"/>
<path d="M204.86 92.7496L204.768 96.9418L204.122 96.9275L204.131 96.5377C204.016 96.6784 203.876 96.7827 203.71 96.8506C203.547 96.9186 203.367 96.9505 203.169 96.9461C202.893 96.94 202.646 96.8705 202.426 96.7376C202.21 96.6047 202.042 96.4201 201.922 96.1838C201.802 95.9438 201.745 95.6712 201.752 95.3661C201.758 95.061 201.827 94.7931 201.958 94.5623C202.088 94.3316 202.264 94.1546 202.486 94.0313C202.711 93.9081 202.961 93.8496 203.238 93.8557C203.428 93.8599 203.601 93.8976 203.757 93.9689C203.913 94.0401 204.045 94.1448 204.154 94.2828L204.188 92.7348L204.86 92.7496ZM203.263 96.3434C203.425 96.3469 203.571 96.3125 203.702 96.24C203.832 96.1637 203.937 96.0549 204.015 95.9134C204.094 95.7719 204.135 95.607 204.139 95.4187C204.143 95.2304 204.109 95.0638 204.037 94.919C203.965 94.7742 203.865 94.6627 203.738 94.5846C203.611 94.5026 203.466 94.4599 203.305 94.4563C203.144 94.4528 202.998 94.4891 202.867 94.5654C202.736 94.6379 202.632 94.7449 202.553 94.8863C202.475 95.0278 202.433 95.1927 202.429 95.381C202.425 95.5693 202.459 95.7359 202.531 95.8807C202.603 96.0255 202.703 96.1388 202.83 96.2208C202.958 96.299 203.102 96.3398 203.263 96.3434Z" fill="#0967EB"/>
<path d="M206.937 97.0291C206.646 97.0227 206.386 96.951 206.156 96.8141C205.926 96.6771 205.747 96.4904 205.619 96.2539C205.496 96.0138 205.437 95.745 205.443 95.4474C205.45 95.1498 205.52 94.8857 205.655 94.655C205.792 94.4244 205.979 94.2458 206.215 94.1191C206.451 93.9924 206.714 93.9322 207.005 93.9386C207.299 93.9451 207.561 94.0168 207.791 94.1538C208.021 94.2907 208.198 94.4774 208.322 94.7138C208.449 94.9502 208.51 95.2172 208.503 95.5148C208.497 95.8123 208.425 96.0783 208.287 96.3127C208.153 96.5434 207.967 96.7221 207.732 96.8488C207.496 96.9755 207.231 97.0356 206.937 97.0291ZM206.95 96.4246C207.197 96.43 207.404 96.3479 207.569 96.1782C207.734 96.0085 207.82 95.7824 207.826 95.4999C207.832 95.2174 207.756 94.9877 207.599 94.8109C207.441 94.6341 207.239 94.543 206.992 94.5375C206.744 94.5321 206.538 94.6142 206.373 94.7839C206.211 94.9537 206.127 95.1798 206.121 95.4623C206.115 95.7448 206.189 95.9744 206.343 96.1512C206.5 96.328 206.703 96.4191 206.95 96.4246Z" fill="#0967EB"/>
<path d="M210.43 97.106C210.132 97.0995 209.866 97.0277 209.633 96.8906C209.399 96.7536 209.218 96.5668 209.091 96.3304C208.963 96.0902 208.903 95.8213 208.91 95.5237C208.916 95.2262 208.988 94.9621 209.126 94.7315C209.264 94.5009 209.451 94.3222 209.687 94.1955C209.926 94.0689 210.197 94.0089 210.498 94.0156C210.781 94.0218 211.027 94.0875 211.236 94.2127C211.448 94.338 211.606 94.5148 211.708 94.7431L211.185 95.0482C211.106 94.907 211.004 94.8011 210.88 94.7305C210.76 94.6563 210.626 94.6176 210.479 94.6143C210.228 94.6088 210.018 94.6908 209.85 94.8605C209.681 95.0263 209.593 95.2524 209.587 95.5387C209.581 95.8249 209.656 96.0564 209.814 96.2333C209.975 96.4064 210.183 96.4958 210.438 96.5014C210.585 96.5046 210.72 96.4737 210.843 96.4085C210.97 96.3397 211.076 96.2366 211.162 96.099L211.671 96.4268C211.555 96.6503 211.388 96.8219 211.17 96.9414C210.956 97.0573 210.709 97.1122 210.43 97.106Z" fill="#0967EB"/>
<path d="M214.004 96.9812C213.924 97.0473 213.826 97.096 213.711 97.1274C213.599 97.1588 213.48 97.1732 213.354 97.1704C213.039 97.1635 212.797 97.0715 212.629 96.8944C212.461 96.7174 212.38 96.4631 212.387 96.1317L212.419 94.6797L211.946 94.6692L211.959 94.1043L212.432 94.1147L212.447 93.4254L213.119 93.4402L213.104 94.1295L213.873 94.1464L213.861 94.7114L213.092 94.6945L213.06 96.1295C213.057 96.2764 213.088 96.3902 213.155 96.4708C213.221 96.5476 213.319 96.5874 213.448 96.5903C213.599 96.5936 213.725 96.5549 213.827 96.4743L214.004 96.9812Z" fill="#0967EB"/>
<path d="M215.749 97.2232C215.458 97.2168 215.198 97.1451 214.968 97.0081C214.738 96.8712 214.559 96.6845 214.432 96.448C214.308 96.2079 214.249 95.939 214.256 95.6415C214.262 95.3439 214.333 95.0798 214.467 94.8491C214.605 94.6185 214.792 94.4399 215.027 94.3132C215.263 94.1865 215.527 94.1263 215.817 94.1327C216.111 94.1392 216.373 94.2109 216.603 94.3479C216.833 94.4848 217.01 94.6715 217.134 94.9078C217.262 95.1443 217.322 95.4113 217.316 95.7089C217.309 96.0064 217.237 96.2724 217.099 96.5067C216.965 96.7374 216.78 96.9161 216.544 97.0428C216.308 97.1695 216.043 97.2296 215.749 97.2232ZM215.762 96.6186C216.01 96.6241 216.216 96.5419 216.381 96.3722C216.546 96.2025 216.632 95.9764 216.638 95.6939C216.644 95.4114 216.569 95.1818 216.411 95.005C216.254 94.8282 216.051 94.737 215.804 94.7316C215.556 94.7261 215.35 94.8083 215.185 94.978C215.023 95.1478 214.94 95.3739 214.933 95.6564C214.927 95.9389 215.001 96.1685 215.155 96.3452C215.312 96.522 215.515 96.6132 215.762 96.6186Z" fill="#0967EB"/>
<path d="M218.622 94.6693C218.822 94.3572 219.167 94.2065 219.654 94.2172L219.639 94.8895C219.582 94.877 219.53 94.8702 219.484 94.8691C219.222 94.8634 219.016 94.9399 218.865 95.0986C218.715 95.2535 218.636 95.4817 218.63 95.783L218.597 97.2463L217.925 97.2315L217.992 94.2145L218.632 94.2286L218.622 94.6693Z" fill="#0967EB"/>
<path d="M224.029 96.8115L224.016 97.4076L221.267 97.347L221.277 96.8756L222.79 95.4778C222.96 95.3189 223.075 95.1805 223.135 95.0626C223.198 94.9411 223.231 94.8207 223.233 94.7015C223.237 94.5245 223.182 94.3878 223.067 94.2913C222.951 94.1948 222.78 94.144 222.553 94.139C222.173 94.1306 221.878 94.2561 221.67 94.5153L221.194 94.1254C221.344 93.9299 221.542 93.7807 221.79 93.6777C222.041 93.5712 222.319 93.5213 222.625 93.528C223.03 93.537 223.351 93.6416 223.588 93.842C223.825 94.0424 223.94 94.3105 223.933 94.6465C223.928 94.8524 223.882 95.0447 223.792 95.2234C223.703 95.4021 223.535 95.6044 223.289 95.8303L222.271 96.7728L224.029 96.8115Z" fill="#D3129B"/>
<path d="M227.682 96.6264L227.021 96.6118L227.002 97.4733L226.331 97.4585L226.35 96.597L224.304 96.552L224.314 96.0643L226.206 93.6611L226.947 93.6774L225.164 95.9746L226.384 96.0015L226.401 95.2375L227.051 95.2518L227.034 96.0158L227.695 96.0303L227.682 96.6264Z" fill="#D3129B"/>
<path d="M182.816 91.8883C182.831 91.2209 182.839 90.8873 182.987 90.6448C183.073 90.5063 183.188 90.391 183.325 90.3086C183.564 90.1644 183.885 90.1715 184.526 90.1856C185.167 90.1997 185.488 90.2068 185.721 90.3613C185.854 90.4497 185.964 90.57 186.043 90.7121C186.181 90.9609 186.174 91.2946 186.159 91.9619L186.032 97.7158C186.018 98.3831 186.01 98.7168 185.861 98.9592C185.776 99.0978 185.661 99.2131 185.524 99.2955C185.285 99.4396 184.964 99.4326 184.323 99.4185C183.682 99.4043 183.361 99.3973 183.128 99.2428C182.995 99.1544 182.885 99.0341 182.806 98.8919C182.668 98.6432 182.675 98.3095 182.69 97.6422L182.816 91.8883Z" fill="#D3129B"/>
<path d="M187.211 93.1186C187.857 93.1328 188.179 93.1399 188.413 93.2963C188.544 93.3838 188.653 93.5023 188.731 93.6421C188.871 93.892 188.863 94.2278 188.849 94.8995C188.834 95.5711 188.826 95.9069 188.676 96.1504C188.591 96.2866 188.477 96.4002 188.343 96.4819C188.102 96.6279 187.78 96.6208 187.134 96.6065L181.638 96.4855C180.992 96.4713 180.67 96.4642 180.436 96.3078C180.305 96.2203 180.196 96.1018 180.118 95.9619C179.978 95.7121 179.986 95.3762 180 94.7046C180.015 94.033 180.023 93.6972 180.173 93.4537C180.258 93.3174 180.372 93.2038 180.506 93.1222C180.746 92.9762 181.069 92.9833 181.714 92.9975L187.211 93.1186Z" fill="#D3129B"/>
<path d="M249.726 163.547C246.57 163.81 243.438 162.819 241.014 160.79C238.589 158.762 237.069 155.86 236.785 152.719L232.089 98.8417C231.825 95.6996 232.819 92.5808 234.856 90.1666C236.893 87.7525 239.807 86.2391 242.96 85.957C246.116 85.6931 249.248 86.6835 251.673 88.7119C254.097 90.7403 255.617 93.6419 255.901 96.7827L260.597 150.661C260.862 153.803 259.867 156.922 257.83 159.337C255.793 161.751 252.88 163.265 249.726 163.547Z" fill="#FFBDB8"/>
<path d="M177.485 140.239C179.458 140.239 181.058 138.105 181.058 135.474C181.058 132.842 179.458 130.708 177.485 130.708C175.511 130.708 173.911 132.842 173.911 135.474C173.911 138.105 175.511 140.239 177.485 140.239Z" fill="#ECF3FF"/>
<path d="M234.43 123.268L259.209 133.567L257.932 118.795L234.43 123.268Z" fill="#FF9EA8"/>
<path d="M214.415 66.0679C214.415 66.0679 219.666 64.7479 222.233 69.5351L234.978 72.1796C239.725 73.2376 244.126 75.4856 247.769 78.7131C251.412 81.9406 254.178 86.0419 255.808 90.6329L260.637 118.301C250.542 121.423 241.164 125.951 233.875 123.17L221.959 75.6375L214.415 66.0679Z" fill="#ECF3FF"/>
<path fill-rule="evenodd" clip-rule="evenodd" d="M185.555 39.4692C185.941 39.5496 186.189 39.9281 186.109 40.3146L185.443 40.176C186.109 40.3146 186.109 40.3146 186.109 40.3146L186.074 40.4802C186.052 40.5866 186.019 40.7408 185.978 40.9322C185.896 41.315 185.781 41.8473 185.647 42.4452C185.381 43.637 185.04 45.1042 184.746 46.1677C184.61 46.6598 184.614 46.9948 184.669 47.2157C184.72 47.4235 184.823 47.5682 184.972 47.6818C185.309 47.9395 185.931 48.0681 186.737 48.0226C187.131 48.0004 187.469 48.3019 187.491 48.696C187.513 49.0902 187.212 49.4277 186.818 49.4499C185.911 49.501 184.857 49.3927 184.104 48.8181C183.708 48.5155 183.412 48.0952 183.28 47.5563C183.151 47.0305 183.188 46.4371 183.368 45.7865M185.555 39.4692C185.168 39.3887 184.79 39.6369 184.709 40.0233L185.555 39.4692ZM184.709 40.0233L185.408 40.1688L184.709 40.0233ZM184.709 40.0233L185.408 40.1688L184.709 40.0233ZM184.709 40.0233L184.709 40.0239L184.709 40.0233ZM184.709 40.0239L184.709 40.0258L184.709 40.0239ZM184.709 40.0258L184.707 40.0337L184.709 40.0258ZM184.707 40.0337L184.7 40.0648L184.707 40.0337ZM184.7 40.0648L184.675 40.1854L184.7 40.0648ZM184.675 40.1854C184.653 40.2906 184.621 40.4433 184.58 40.6331L184.675 40.1854ZM184.58 40.6331C184.499 41.0129 184.384 41.5409 184.252 42.1339L184.58 40.6331ZM184.252 42.1339C183.987 43.3237 183.652 44.7606 183.368 45.7865L184.252 42.1339Z" fill="#FF9EA8"/>
<path fill-rule="evenodd" clip-rule="evenodd" d="M151.04 143.574L150.828 142.892C150.451 143.008 150.24 143.409 150.357 143.786C150.474 144.163 150.874 144.374 151.251 144.257C151.251 144.257 151.251 144.257 151.251 144.257L151.256 144.256L151.279 144.249C151.301 144.242 151.336 144.233 151.382 144.22C151.473 144.195 151.609 144.16 151.782 144.121C152.129 144.041 152.62 143.946 153.191 143.883C154.349 143.754 155.763 143.765 156.973 144.24C157.341 144.384 157.756 144.203 157.9 143.835C158.044 143.468 157.863 143.053 157.496 142.909C155.972 142.311 154.289 142.323 153.033 142.462C152.397 142.533 151.852 142.638 151.464 142.727C151.27 142.771 151.115 142.811 151.006 142.841C150.952 142.856 150.909 142.868 150.879 142.876C150.864 142.881 150.852 142.884 150.844 142.887L150.833 142.89L150.83 142.891L150.828 142.892C150.828 142.892 150.828 142.892 151.04 143.574Z" fill="#FF9EA8"/>
<path d="M191.067 170.987L241.729 145.004L259.21 157.211C259.21 157.211 256.3 172.454 198.284 180.743L191.067 170.987Z" fill="#FFBDB8"/>
<path fill-rule="evenodd" clip-rule="evenodd" d="M236.724 147.987L236.724 147.987L236.728 147.985C236.733 147.982 236.741 147.976 236.753 147.969C236.776 147.955 236.812 147.933 236.862 147.905C236.96 147.848 237.108 147.767 237.299 147.672C237.682 147.482 238.233 147.242 238.896 147.044C240.23 146.647 241.965 146.438 243.71 147.092C244.08 147.23 244.492 147.043 244.63 146.673C244.769 146.304 244.581 145.892 244.212 145.753C242.073 144.952 239.996 145.225 238.488 145.674C237.731 145.899 237.104 146.173 236.664 146.391C236.444 146.5 236.269 146.596 236.148 146.666C236.087 146.701 236.04 146.73 236.006 146.75C235.989 146.761 235.976 146.769 235.966 146.775L235.955 146.782L235.951 146.785L235.949 146.786L235.949 146.786C235.949 146.786 235.948 146.786 236.336 147.387L235.948 146.786C235.617 147.001 235.522 147.443 235.736 147.775C235.95 148.106 236.393 148.201 236.724 147.987Z" fill="#FF9EA8"/>
<path fill-rule="evenodd" clip-rule="evenodd" d="M256.352 60.8976C253.588 60.8976 251.348 63.1377 251.348 65.9011C251.348 68.6644 253.588 70.9046 256.352 70.9046C259.115 70.9046 261.355 68.6644 261.355 65.9011C261.355 63.1377 259.115 60.8976 256.352 60.8976ZM249.918 65.9011C249.918 62.3482 252.799 59.468 256.352 59.468C259.904 59.468 262.785 62.3482 262.785 65.9011C262.785 69.454 259.904 72.3342 256.352 72.3342C252.799 72.3342 249.918 69.454 249.918 65.9011Z" fill="#2156A2"/>
<path fill-rule="evenodd" clip-rule="evenodd" d="M81.4159 7.97848C81.174 9.4592 82.1782 10.8557 83.6589 11.0977C85.1397 11.3396 86.5362 10.3354 86.7781 8.85465C87.0201 7.37393 86.0158 5.97741 84.5351 5.73546C83.0544 5.49351 81.6579 6.49775 81.4159 7.97848ZM83.4284 12.5085C81.1685 12.1393 79.6358 10.0079 80.005 7.74794C80.3743 5.48801 82.5057 3.95534 84.7656 4.3246C87.0256 4.69387 88.5583 6.82525 88.189 9.08519C87.8197 11.3451 85.6883 12.8778 83.4284 12.5085Z" fill="#2156A2"/>
<path fill-rule="evenodd" clip-rule="evenodd" d="M10.5474 16.1025L24.224 22.4761L12.4763 31.4888L10.5474 16.1025ZM12.2875 18.4907L13.5845 28.8367L21.484 22.7764L12.2875 18.4907Z" fill="#2156A2"/>
<path d="M211.558 48.2698C216.032 48.2698 219.659 44.2162 219.659 39.2158C219.659 34.2155 216.032 30.1619 211.558 30.1619C207.084 30.1619 203.458 34.2155 203.458 39.2158C203.458 44.2162 207.084 48.2698 211.558 48.2698Z" fill="white"/>
<path fill-rule="evenodd" clip-rule="evenodd" d="M207.932 32.1751C207.932 32.1751 204.642 6.90496 182.965 9.63229L191.766 5.85915C191.766 5.85915 210.297 6.07409 213.463 33.974L207.932 32.1751Z" fill="white"/>
<path fill-rule="evenodd" clip-rule="evenodd" d="M210.136 41.1219C210.136 41.1219 205.172 52.4906 199.645 52.4906L201.704 55.4176C201.704 55.4176 210.856 51.5738 212.988 41.1219H210.136Z" fill="white"/>
<path fill-rule="evenodd" clip-rule="evenodd" d="M16.7016 113.807C16.8248 114.182 16.6206 114.586 16.2456 114.709C15.4943 114.956 15.0814 115.275 14.8514 115.564C14.6235 115.851 14.5345 116.16 14.5186 116.463C14.5023 116.775 14.5646 117.075 14.638 117.306C14.6739 117.42 14.7106 117.51 14.7371 117.571C14.7502 117.6 14.7606 117.622 14.7668 117.635C14.7699 117.641 14.772 117.645 14.7727 117.647M16.7016 113.807C16.5783 113.432 16.1744 113.228 15.7994 113.351L16.7016 113.807ZM13.4973 118.292C13.4934 118.285 13.489 118.276 13.484 118.266C13.4696 118.236 13.4505 118.196 13.4286 118.146C13.3849 118.047 13.3291 117.908 13.2753 117.738C13.1691 117.404 13.0629 116.925 13.091 116.389C13.1196 115.843 13.2878 115.234 13.732 114.675C14.1739 114.119 14.8476 113.664 15.7994 113.351" fill="white"/>
<path fill-rule="evenodd" clip-rule="evenodd" d="M184.395 51.3166L192.019 50.6523C192.019 50.6523 191.419 55.9675 188.208 55.8933C184.997 55.8192 184.395 51.3166 184.395 51.3166Z" fill="white"/>
<path d="M213.175 43.7413C215.614 43.5352 217.394 41.0373 217.151 38.1621C216.908 35.2868 214.734 33.1231 212.295 33.3291C209.856 33.5352 208.076 36.0331 208.319 38.9084C208.562 41.7836 210.736 43.9474 213.175 43.7413Z" fill="#2156A2"/>
<path fill-rule="evenodd" clip-rule="evenodd" d="M206.789 46.8402C206.286 47.3476 206.286 47.3478 206.287 47.348L206.287 47.3485L206.288 47.3494L206.29 47.3518L206.297 47.3581C206.302 47.3631 206.309 47.3696 206.317 47.3774C206.333 47.3929 206.356 47.414 206.385 47.4396C206.442 47.4908 206.523 47.5606 206.627 47.6424C206.834 47.8056 207.132 48.0189 207.509 48.2273C208.258 48.6419 209.347 49.0537 210.645 48.9747C211.039 48.9507 211.339 48.6118 211.315 48.2178C211.291 47.8238 210.952 47.5238 210.558 47.5478C209.614 47.6053 208.797 47.3065 208.201 46.9765C207.905 46.8125 207.671 46.645 207.513 46.5204C207.434 46.4583 207.375 46.4075 207.338 46.3741C207.319 46.3573 207.306 46.345 207.298 46.3379L207.291 46.3311C207.291 46.3308 207.291 46.3307 207.291 46.3307C207.291 46.3307 207.291 46.3307 207.291 46.3308L207.292 46.3315L207.292 46.332L207.292 46.3323C207.012 46.0547 206.56 46.0566 206.282 46.3368C206.004 46.6171 206.006 47.0696 206.286 47.3476L206.789 46.8402ZM207.293 46.3323C207.292 46.3323 207.292 46.3323 207.292 46.3323L207.293 46.3323C207.293 46.3323 207.293 46.3323 207.293 46.3323Z" fill="#2156A2"/>
<path d="M199.605 57.9792C202.074 57.5397 203.8 55.631 203.459 53.716C203.119 51.8009 200.84 50.6047 198.371 51.0442C195.901 51.4837 194.175 53.3924 194.516 55.3074C194.857 57.2225 197.135 58.4186 199.605 57.9792Z" fill="#2156A2"/>
</g>
<defs>
<clipPath id="clip0_2_8342">
<rect width="275" height="156" fill="white" transform="translate(0.371582)"/>
</clipPath>
</defs>
</svg>
