<svg width="36" height="36" viewBox="0 0 36 36" fill="none" xmlns="http://www.w3.org/2000/svg">
<path d="M16.4962 9.03012C17.2571 8.28767 18.3343 8.03531 19.3552 8.00609C20.4327 7.99635 21.5102 8.00122 22.5873 8.00122C22.5921 9.17076 22.5921 10.3354 22.5873 11.505C21.8928 11.505 21.1933 11.505 20.4988 11.505C20.0592 11.4757 19.6057 11.8203 19.5253 12.2718C19.5158 13.0532 19.5206 13.8343 19.5206 14.6157C20.5412 14.6206 21.562 14.6157 22.5826 14.6206C22.507 15.7512 22.3701 16.8772 22.2094 17.9934C21.3068 18.0032 20.4042 17.9934 19.5016 17.9983C19.4921 21.3322 19.5064 24.6612 19.4969 27.9954C18.1547 28.0003 16.8175 27.9906 15.4753 28.0003C15.4516 24.6664 15.4753 21.3325 15.4611 17.9983C14.809 17.9934 14.1521 18.0032 13.5 17.9934C13.5047 16.8723 13.5 15.7515 13.5 14.6352C14.1521 14.6255 14.809 14.6352 15.4611 14.6303C15.4801 13.5433 15.4421 12.4514 15.4801 11.3643C15.5512 10.4958 15.8678 9.62711 16.4962 9.03012Z" fill="#4669B1"/>
<path d="M18 35C27.3888 35 35 27.3888 35 18C35 8.61116 27.3888 1 18 1C8.61116 1 1 8.61116 1 18C1 27.3888 8.61116 35 18 35Z" stroke="#4669B1" stroke-width="2"/>
</svg>
