<svg width="122" height="122" viewBox="0 0 122 122" fill="none" xmlns="http://www.w3.org/2000/svg">
<path d="M21.2553 88.8267H100.157V79.6534H108.308V30.0518H100.157V20H21.2553V30.0518H13.6922V79.6534H21.2553V88.8267ZM104.033 34.2229V75.4823H100.157V34.2229H104.033ZM25.5302 24.1711H95.8818V84.6555H25.5302V24.1711ZM17.9671 75.4823V34.2229H21.2553V75.4823H17.9671Z" fill="#6687CC"/>
<path d="M99.8875 92.4411H22.1125L12 102H110L99.8875 92.4411ZM22.5565 97.8289L23.8437 96.6123H98.1563L99.4435 97.8289H22.5565Z" fill="#6687CC"/>
<path d="M30.375 78.0458H91.0371V30.7809H30.375V78.0458ZM58.2725 75.265V68.6295H64.0907V63.7088H78.563V50.7568H82.4963V45.8361H88.1871V75.265H58.2725ZM52.4537 65.8487V58.7882H61.2407V65.8487H52.4537ZM58.2718 47.976V40.9155H79.6464V47.976H58.2718ZM33.2249 33.5617H88.1871V43.0554H82.4963V38.1347H55.4219V50.7568H75.7131V60.928H64.0907V56.0074H49.6037V60.928H45.0763V50.7568H50.8951V38.1347H36.4075V50.7568H42.2263V63.7088H49.6037V68.6295H55.4226V75.265H33.2249V33.5617ZM39.2574 47.976V40.9155H48.0452V47.976H39.2574Z" fill="#6687CC"/>
</svg>
