<svg width="36" height="36" viewBox="0 0 36 36" fill="none" xmlns="http://www.w3.org/2000/svg">
<path d="M28.8789 23.869C28.8509 23.8091 28.825 23.759 28.8009 23.719C28.4015 22.9994 27.6392 22.1157 26.5137 21.0684L26.4895 21.0445L26.4776 21.0323L26.4657 21.0207H26.4538C25.9428 20.5328 25.6194 20.205 25.484 20.0368C25.2365 19.7174 25.1805 19.3936 25.3163 19.0658C25.4126 18.818 25.7717 18.2943 26.3943 17.4944C26.7216 17.071 26.9809 16.7313 27.1727 16.4748C28.5538 14.6359 29.1522 13.461 28.9688 12.9488L28.8968 12.829C28.8488 12.7568 28.7249 12.6909 28.5254 12.6309C28.3259 12.571 28.0704 12.5615 27.7593 12.6011L24.3105 12.6257C24.2307 12.6176 24.1509 12.6197 24.0707 12.6313C23.9909 12.6435 23.9391 12.6555 23.915 12.6674C23.8908 12.6796 23.8712 12.6895 23.8551 12.6972L23.8072 12.7333C23.7673 12.7571 23.7235 12.7992 23.6756 12.8595C23.6276 12.9194 23.5874 12.9891 23.5559 13.0694C23.1807 14.0369 22.7537 14.9363 22.2746 15.7681C21.9792 16.2637 21.7076 16.6938 21.4605 17.0573C21.2131 17.4215 21.0055 17.6893 20.8379 17.8607C20.6702 18.0325 20.5183 18.1709 20.3829 18.2743C20.2471 18.3788 20.1431 18.4223 20.0717 18.4065C19.9996 18.3907 19.9317 18.3746 19.868 18.3581C19.7564 18.2863 19.6661 18.1885 19.5985 18.0644C19.5306 17.9406 19.4848 17.7847 19.4606 17.5968C19.4368 17.4089 19.4225 17.247 19.419 17.1109C19.4148 16.9749 19.4169 16.7832 19.4249 16.5354C19.433 16.2876 19.4368 16.12 19.4368 16.0317C19.4368 15.7281 19.4428 15.3983 19.455 15.0422C19.4669 14.6864 19.4771 14.4046 19.4848 14.1967C19.4928 13.9892 19.4967 13.7691 19.4967 13.537C19.4967 13.3057 19.4827 13.1234 19.4547 12.9913C19.4267 12.8595 19.3847 12.7319 19.3291 12.6074C19.2731 12.4837 19.1912 12.3877 19.0834 12.32C18.9756 12.252 18.8419 12.198 18.6823 12.1581C18.2588 12.062 17.7201 12.0105 17.0657 12.0021C15.5806 11.9867 14.6266 12.0827 14.2034 12.2902C14.0358 12.3785 13.8839 12.4981 13.7484 12.6502C13.6046 12.8262 13.5847 12.9226 13.6886 12.9376C14.1677 13.0098 14.5069 13.1819 14.7064 13.4536L14.7785 13.5973C14.8341 13.7018 14.8901 13.8854 14.9461 14.149C15.0021 14.413 15.0378 14.7046 15.0539 15.0246C15.0938 15.6083 15.0938 16.1078 15.0539 16.5238C15.014 16.9399 14.9762 17.2634 14.9402 17.4948C14.9041 17.7268 14.8502 17.9143 14.7785 18.0584C14.7064 18.2028 14.6588 18.2908 14.6346 18.3227C14.6105 18.3546 14.5909 18.3746 14.5748 18.3826C14.4708 18.4223 14.3634 18.4426 14.2514 18.4426C14.1394 18.4426 14.0039 18.3865 13.844 18.2743C13.6844 18.1629 13.5185 18.0086 13.347 17.8127C13.1752 17.6171 12.982 17.343 12.766 16.9911C12.5504 16.6395 12.3268 16.2238 12.0954 15.7439L11.904 15.3958C11.7843 15.1722 11.6205 14.8462 11.413 14.4186C11.2054 13.9909 11.0217 13.5773 10.8621 13.177C10.798 13.0095 10.7025 12.8815 10.5747 12.7932L10.5149 12.7571C10.475 12.7252 10.4109 12.6912 10.3231 12.6555C10.2349 12.6193 10.1435 12.5934 10.0476 12.5773L6.76648 12.6011C6.43119 12.6011 6.20369 12.6775 6.084 12.8293L6.03605 12.9012C6.0119 12.9415 6 13.0056 6 13.0933C6 13.1816 6.02415 13.2892 6.0721 13.4168C6.55124 14.5444 7.07202 15.6317 7.63481 16.6788C8.19794 17.7265 8.68653 18.5702 9.10197 19.2095C9.51706 19.8496 9.9402 20.4528 10.3714 21.0207C10.8026 21.5885 11.0878 21.952 11.2275 22.1119C11.3671 22.2721 11.4767 22.3919 11.5568 22.4718L11.856 22.76C12.0475 22.9517 12.3292 23.1817 12.7002 23.4495C13.0716 23.7176 13.4825 23.9812 13.9336 24.2406C14.3844 24.5007 14.9097 24.712 15.5082 24.8764C16.107 25.0405 16.6898 25.1064 17.2564 25.0741H18.6336C18.9133 25.0503 19.1247 24.9627 19.2682 24.8102L19.3161 24.7502C19.348 24.7026 19.3781 24.6283 19.406 24.5287C19.4337 24.4288 19.448 24.3188 19.448 24.1989C19.4396 23.855 19.4659 23.5448 19.5257 23.2693C19.5856 22.9934 19.6535 22.7856 19.7294 22.6454C19.8054 22.5058 19.8908 22.3877 19.987 22.2917C20.0829 22.1956 20.1505 22.1382 20.1907 22.1178C20.2306 22.0982 20.2628 22.0842 20.2866 22.0758C20.4781 22.012 20.7035 22.074 20.9632 22.2615C21.2225 22.4498 21.4661 22.6811 21.6936 22.9573C21.9211 23.2332 22.1944 23.5427 22.514 23.8869C22.8332 24.2308 23.1125 24.4863 23.3522 24.6542L23.5919 24.7986C23.7515 24.8943 23.9591 24.9823 24.2146 25.0626C24.4701 25.1421 24.6937 25.1625 24.8852 25.1225L27.9507 25.0741C28.2542 25.0741 28.4897 25.0244 28.6574 24.9241C28.825 24.8249 28.9248 24.7141 28.9566 24.5943C28.9884 24.4744 28.9905 24.3391 28.9625 24.1866C28.9346 24.0348 28.9066 23.929 28.8789 23.869Z" fill="#4669B1"/>
<path d="M18 35C27.3888 35 35 27.3888 35 18C35 8.61116 27.3888 1 18 1C8.61116 1 1 8.61116 1 18C1 27.3888 8.61116 35 18 35Z" stroke="#4669B1" stroke-width="2"/>
</svg>
