<svg width="156" height="156" viewBox="0 0 156 156" fill="none" xmlns="http://www.w3.org/2000/svg">
<path d="M69.9 78.5073C71.115 78.5073 72.0999 77.5223 72.0999 76.3073C72.0999 75.0923 71.115 74.1073 69.9 74.1073C68.6849 74.1073 67.7 75.0923 67.7 76.3073C67.7 77.5223 68.6849 78.5073 69.9 78.5073Z" fill="#4669B1"/>
<path d="M78.4 19.4073C46.2 19.4073 20 45.6073 20 77.8074C20 110.007 46.2 136.207 78.4 136.207C110.6 136.207 136.8 110.007 136.8 77.8074C136.7 45.6073 110.6 19.4073 78.4 19.4073ZM78.4 133.107C47.8 133.107 23 108.307 23 77.8074C23 47.2073 47.8 22.4073 78.4 22.4073C109 22.4073 133.8 47.2073 133.8 77.8074C133.7 108.307 108.9 133.107 78.4 133.107Z" fill="#4669B1"/>
<path d="M115.5 91.4073C114.6 90.5073 113.5 89.9073 112.3 89.6073L111.5 89.4073V66.2073L112.2 66.0073C112.8 65.8073 113.4 65.6073 114 65.3073C115.6 64.4073 116.8 62.9073 117.3 61.0073C117.8 59.2073 117.5 57.3073 116.6 55.7073C115.4 53.5073 113 52.2073 110.5 52.2073C109.3 52.2073 108.1 52.5073 107 53.1073C106.5 53.4073 106 53.8073 105.5 54.2073L105 54.8073L84.9 43.3073L85.1 42.6073C85.3 42.0073 85.4 41.3073 85.4 40.6073C85.4 36.7073 82.3 33.6073 78.4 33.6073C74.5 33.6073 71.4 36.7073 71.4 40.6073C71.4 41.3073 71.5 42.0073 71.7 42.7073L71.9 43.4073L51.9 55.0073L51.4 54.5073C50.9 54.0073 50.4 53.5073 49.7 53.2073C48.6 52.6073 47.4 52.3073 46.2 52.3073C43.7 52.3073 41.4 53.6073 40.1 55.8073C39.2 57.4073 38.9 59.3073 39.4 61.1073C39.9 62.9073 41 64.4073 42.7 65.4073C43.3 65.7073 44 66.0073 44.7 66.2073L45.4 66.4073V89.5073L44.7 89.7073C44 89.9073 43.3 90.1073 42.7 90.5073C39.4 92.4073 38.2 96.7073 40.1 100.107C41.3 102.307 43.7 103.607 46.2 103.607C47.4 103.607 48.6 103.307 49.7 102.707C50.2 102.407 50.7 102.007 51.2 101.507L51.7 101.007L71.8 112.607L71.6 113.307C71.4 113.907 71.3 114.607 71.3 115.307C71.3 119.207 74.4 122.307 78.3 122.307C82.2 122.307 85.3 119.207 85.3 115.307C85.3 114.707 85.2 114.107 85 113.507L84.9 112.407L105.2 101.107L105.7 101.507C107 102.707 108.7 103.407 110.5 103.407C114.4 103.407 117.5 100.307 117.5 96.4073C117.5 94.5073 116.8 92.7073 115.5 91.4073ZM108 54.9073C108.8 54.5073 109.6 54.2073 110.5 54.2073C112.3 54.2073 113.9 55.1073 114.8 56.7073C115.5 57.8073 115.6 59.2073 115.3 60.5073C115 61.8073 114.1 62.8073 113 63.5073C112.2 63.9073 111.4 64.2073 110.5 64.2073C108.7 64.2073 107.1 63.3073 106.2 61.7073C104.9 59.3073 105.7 56.3073 108 54.9073ZM78.4 35.7073C81.1 35.7073 83.3 37.9073 83.3 40.6073C83.3 43.3073 81.1 45.5073 78.4 45.5073C75.7 45.5073 73.5 43.3073 73.5 40.6073C73.4 37.9073 75.6 35.7073 78.4 35.7073ZM43.8 63.5073C42.7 62.8073 41.8 61.8073 41.5 60.5073C41.2 59.2073 41.3 57.9073 42 56.8073C42.9 55.3073 44.5 54.3073 46.3 54.3073C47.2 54.3073 48 54.5073 48.8 55.0073C51.2 56.4073 52 59.4073 50.6 61.8073C49.7 63.3073 48.1 64.3073 46.3 64.3073C45.4 64.2073 44.5 63.9073 43.8 63.5073ZM51 97.6073C50.7 98.9073 49.8 99.907 48.7 100.607C47.9 101.007 47.1 101.307 46.2 101.307C44.4 101.307 42.8 100.407 41.9 98.8073C41.2 97.7073 41.1 96.3073 41.4 95.1073C41.7 93.8073 42.6 92.8073 43.7 92.1073C44.5 91.7073 45.3 91.4073 46.2 91.4073C48 91.4073 49.6 92.3073 50.5 93.9073C51.2 95.0073 51.3 96.3073 51 97.6073ZM78.4 119.807C75.7 119.807 73.5 117.607 73.5 114.907C73.5 112.207 75.7 110.007 78.4 110.007C81.1 110.007 83.3 112.207 83.3 114.907C83.3 117.607 81.1 119.807 78.4 119.807ZM103.9 98.6073L104.1 99.307L83.9 110.607L83.4 110.107C82.1 108.707 80.3 107.907 78.3 107.907C76.4 107.907 74.6 108.607 73.3 110.007L72.8 110.507L52.8 98.9073L53 98.1073C53.5 96.3073 53.2 94.4073 52.3 92.8073C51.4 91.2073 49.9 90.1073 48.2 89.6073L47.5 89.4073V66.1073L48.1 65.9073C49.9 65.4073 51.3 64.2073 52.2 62.7073C53.1 61.1073 53.4 59.3073 52.9 57.5073L52.7 56.8073L73 45.2073L73.5 45.7073C74.8 47.0073 76.6 47.7073 78.4 47.7073C80.3 47.7073 82.1 47.0073 83.4 45.6073L83.9 45.1073L104 56.5073L103.8 57.2073C103.2 59.1073 103.5 61.0073 104.4 62.7073C105.3 64.3073 106.9 65.5073 108.8 66.0073L109.5 66.2073V89.4073L108.8 89.6073C105.7 90.4073 103.5 93.2073 103.5 96.4073C103.5 97.1073 103.6 97.8073 103.9 98.6073ZM110.5 101.307C107.8 101.307 105.6 99.107 105.6 96.4073C105.6 93.7073 107.8 91.5073 110.5 91.5073C111.8 91.5073 113.1 92.0073 114 93.0073C114.9 93.9073 115.4 95.2073 115.4 96.5073C115.4 99.007 113.2 101.307 110.5 101.307Z" fill="#4669B1"/>
<path d="M92.2 64.3074L92.1 64.2074L92.2 64.3074Z" fill="#6197F7"/>
<path d="M80.2 66.8075C79.9 66.8075 79.7 66.9075 79.5 67.1075C79.7 67.0075 80 66.9075 80.2 66.8075Z" fill="#6197F7"/>
<path d="M97.9 72.3075C97.9 72.0074 97.9 71.6075 97.9 71.3075C97.9 71.2074 97.9 71.0074 97.9 70.9074V69.9074C97.9 64.1074 93.2 59.4073 87.5 59.4073H85.4H82.8H69.8C66.3 59.4073 63.1 61.5073 61.7 64.7073C61.6 64.9073 61.6 65.1073 61.5 65.2073L61.2 66.1073L61.9 66.8075C62.1 67.0074 62.4 67.3074 62.7 67.5074H62.8V72.9074L59.1 85.8075V85.9074H62.7C62.7 85.9074 62.8 85.9074 62.8 86.0074V93.9074C62.8 96.3075 64.7 98.2074 67.1 98.2074H80.3C83.5 98.2074 86.2 95.9074 86.7 92.7074V92.6073H91C93.3 92.6073 95.1 90.9075 95.6 88.3075C95.6 88.2074 97.5 78.9074 98 73.4074L97.9 72.3075ZM86.4 79.2073C85.8 82.3073 83.7 83.4074 82.5 83.9074C82.1 84.1074 81.8 84.2074 81.6 84.4074C81 84.9074 80.8 85.9074 81.4 86.5074C81.7 86.9074 82.1 87.1073 82.6 87.1073C82.9 87.1073 83.2 87.0075 83.5 86.8075C83.6 86.8075 83.6 86.7074 83.7 86.7074V91.7074C83.7 93.7074 82.1 95.3075 80.1 95.3075H67C66.2 95.3075 65.6 94.7074 65.6 93.9074V83.1073C65.6 83.1073 65.6 83.0074 65.5 83.0074H62.8C62.8 83.0074 62.7 83.0074 62.8 82.9074L65.5 73.6073V69.5074L65.7 69.6073C69.4 71.4073 73.7 71.7074 78.4 70.4074L78.6 70.3075V70.5074C78.6 70.8074 78.6 71.0074 78.6 71.3075V79.3075C78.6 79.4075 78.6 79.5073 78.6 79.7073C78.7 80.9073 79.4 81.6073 80.5 81.7073C81 81.8073 81.5 81.4075 81.5 80.8075V78.9074C81.6 78.4074 82.1 77.5074 82.9 77.0074C83.6 76.5074 84.4 76.4073 85.2 76.6073C86.7 77.1073 86.5 78.7073 86.4 79.2073ZM92.6 87.7074C92.5 88.2074 92.1 89.7074 90.9 89.7074H86.7V84.8075C87.9 83.7074 89 82.2073 89.4 79.7073C89.8 77.4073 89 74.7073 86.3 73.7073C84.7 73.1073 83 73.3073 81.6 74.2073V71.2073C81.6 70.5073 81.8 69.8073 82.1 69.2073C82.2 69.0073 82.3 68.7074 82.3 68.5074C82.3 67.5074 81.5 66.7073 80.5 66.7073C80.4 66.7073 80.3 66.7073 80.3 66.7073C80.1 66.8073 79.8 66.9074 79.6 67.0074C77.1 67.8074 75 68.2073 73.1 68.2073C69.1 68.2073 66.4 66.7074 64.9 65.5074L64.6 65.4074L64.7 65.3075C65.8 63.5074 67.7 62.4073 69.8 62.4073H84.6H87.5C91.6 62.4073 94.9 65.8074 94.9 70.0074V73.3075C94.5 77.8075 93 85.6074 92.6 87.7074Z" fill="#4669B1"/>
</svg>
