<svg width="122" height="122" viewBox="0 0 122 122" fill="none" xmlns="http://www.w3.org/2000/svg">
<path d="M106.286 38.2781L97.8403 36.6191C97.7021 35.5904 97.466 34.5838 97.1337 33.6122C96.837 32.7454 96.4551 31.8938 95.994 31.0678L101.616 24.6334C102.314 23.8342 102.659 22.809 102.587 21.7477C102.515 20.684 102.034 19.7147 101.234 19.018L99.4533 17.4651C98.6535 16.7661 97.6257 16.4235 96.5641 16.4923C95.5008 16.5645 94.5302 17.0445 93.8324 17.8437L88.3332 24.1371C86.3406 23.2785 84.2064 22.837 82.0418 22.837C82.0401 22.837 82.0383 22.837 82.0366 22.837L79.25 14.6935C78.5387 12.6174 76.2687 11.5025 74.1921 12.2155L71.9541 12.9798C70.9491 13.3234 70.137 14.0388 69.6677 14.9952C69.199 15.9517 69.1296 17.0305 69.473 18.0336L72.2596 26.1771C70.6238 27.4423 69.2532 29.0104 68.219 30.7998L59.7695 29.1409C58.7289 28.9335 57.6667 29.149 56.7818 29.7432C55.8968 30.3373 55.2969 31.2367 55.0923 32.2782L54.6358 34.5978C54.212 36.7496 55.6205 38.8466 57.7763 39.2707L66.22 40.9285C66.3588 41.9595 66.5949 42.9649 66.9266 43.9342C67.2944 45.0084 67.7725 46.0371 68.3549 47.0029L62.6546 53.527C61.21 55.1801 61.3814 57.6989 63.0353 59.1424L64.818 60.6977C65.6178 61.3955 66.6386 61.7333 67.7066 61.6681C68.7699 61.5959 69.74 61.1159 70.4378 60.3167L76.2663 53.647C78.0922 54.3506 80.0376 54.7118 82.0057 54.7118C82.0121 54.7118 82.0179 54.7118 82.0243 54.7118L84.8109 62.8553C85.3764 64.5061 86.9271 65.5476 88.5845 65.5476C89.0106 65.5476 89.4438 65.4789 89.8693 65.3332L92.1079 64.5678C94.1851 63.8572 95.2979 61.5901 94.5879 59.514L91.8013 51.3717C93.4365 50.1077 94.8065 48.5395 95.8419 46.7489L104.291 48.4079C105.331 48.6129 106.394 48.3986 107.279 47.8056C108.163 47.2114 108.763 46.312 108.968 45.2705L109.424 42.951C109.848 40.7992 108.44 38.7021 106.286 38.2781ZM105.454 44.5808C105.428 44.7125 105.346 44.7917 105.282 44.8336C105.218 44.8767 105.115 44.9175 104.982 44.8965L93.8405 42.7086L93.2488 43.9808C92.2566 46.114 90.6861 47.9104 88.7075 49.1756L87.5235 49.9329L91.1985 60.672C91.269 60.8782 91.1542 61.1112 90.9478 61.1823L88.711 61.9465C88.5023 62.0141 88.2702 61.9023 88.2003 61.6972L84.5253 50.9569L83.125 51.0828C80.8613 51.2901 78.5918 50.8696 76.5701 49.8758L75.3359 49.27L67.7398 57.9634C67.6512 58.0647 67.541 58.0915 67.4641 58.0973C67.3889 58.0973 67.274 58.0892 67.1738 58.0018L65.391 56.4465C65.2272 56.3032 65.2097 56.0446 65.3526 55.8803L72.8944 47.2499L72.0468 46.0942C71.3058 45.0841 70.7235 43.968 70.316 42.7762C69.9429 41.6881 69.726 40.5347 69.6706 39.3476L69.6047 37.9461L58.4677 35.7593C58.2537 35.7174 58.108 35.5007 58.15 35.2875L58.6064 32.9679C58.6327 32.8363 58.7143 32.7571 58.7784 32.7151C58.842 32.6709 58.9428 32.6289 59.0781 32.6522L70.2209 34.8401L70.8121 33.5679C71.8031 31.4359 73.3731 29.6395 75.3534 28.3731L76.5374 27.6159L72.8624 16.8756C72.8163 16.7416 72.8565 16.6274 72.8839 16.5703C72.9178 16.5016 72.9848 16.4107 73.1119 16.3665L75.3499 15.6022C75.5574 15.53 75.7906 15.6465 75.8606 15.8515L79.5356 26.5918L80.9353 26.466C83.3651 26.2505 85.7781 26.7502 87.9292 27.9164L89.1896 28.6003L96.5303 20.197C96.6189 20.0957 96.7285 20.0689 96.8055 20.0642C96.8807 20.0537 96.9944 20.0712 97.097 20.1597L98.8797 21.7139C98.9806 21.8024 99.008 21.9119 99.0132 21.9888C99.0184 22.0657 99.0056 22.1787 98.9176 22.2801L91.5267 30.7393L92.2933 31.8786C92.9165 32.806 93.405 33.78 93.7449 34.7702C94.118 35.8618 94.3349 37.0164 94.3903 38.2L94.4561 39.6015L105.593 41.7894C105.807 41.8314 105.952 42.0481 105.91 42.2613L105.454 44.5808Z" fill="#6687CC"/>
<path d="M87.6686 33.6714C87.3242 32.6387 86.2237 32.0851 85.2134 32.4389L75.479 35.85C74.991 36.0211 74.5968 36.3773 74.369 36.8534C74.1413 37.3295 74.1077 37.8668 74.2746 38.367L76.192 44.1146C76.4666 44.9361 77.2193 45.4548 78.0237 45.4548C78.2307 45.4548 78.4411 45.4207 78.6473 45.3479L88.3821 41.936C88.87 41.7657 89.2643 41.4088 89.492 40.9327C89.7198 40.4565 89.753 39.9185 89.5861 39.4199L87.6686 33.6714ZM78.2624 42.9696L76.5954 37.9729L85.5986 34.8173L87.2653 39.814L78.2624 42.9696Z" fill="#6687CC"/>
<path d="M40.2797 66.3866C37.6447 66.2224 35.1017 67.1031 33.1237 68.853C31.1463 70.6028 29.9693 73.0179 29.8096 75.6532C29.6498 78.2884 30.5266 80.8282 32.2784 82.8041C34.0297 84.7799 36.4467 85.9554 39.084 86.115C39.2869 86.1278 39.488 86.1337 39.6886 86.1337C44.8711 86.1337 49.237 82.0852 49.5541 76.8485C49.7139 74.2132 48.8371 71.6735 47.0853 69.6976C45.334 67.7217 42.917 66.5462 40.2797 66.3866ZM39.3009 82.5431C37.6184 82.4406 36.0765 81.6915 34.9589 80.4309C33.842 79.1704 33.2829 77.551 33.3843 75.8699C33.4863 74.1888 34.2372 72.6486 35.4988 71.5325C36.6624 70.5026 38.1314 69.9469 39.6728 69.9469C39.8022 69.9469 39.9328 69.9504 40.0628 69.9586C41.7453 70.0611 43.2872 70.8102 44.4048 72.0708C45.5217 73.3313 46.0808 74.9507 45.9794 76.6318C45.7683 80.1012 42.7719 82.7586 39.3009 82.5431Z" fill="#6687CC"/>
<path d="M40.7106 59.2707C31.3289 58.7138 23.2553 65.86 22.6881 75.2221C22.4135 79.7575 23.9222 84.1286 26.9373 87.5293C29.953 90.9312 34.1131 92.956 38.6521 93.2298C39.0042 93.2507 39.3558 93.2624 39.7055 93.2624C43.8644 93.2624 47.8298 91.763 50.9697 88.9844C54.3736 85.9717 56.3995 81.8149 56.6746 77.2795C56.9492 72.7441 55.4405 68.373 52.4254 64.9711C49.4097 61.5693 45.2496 59.5445 40.7106 59.2707ZM54.2914 77.1351C54.0548 81.0344 52.3128 84.6075 49.3863 87.1985C46.4604 89.7883 42.7084 91.0989 38.7967 90.8485C30.7406 90.3615 24.5839 83.4157 25.0713 75.3666C25.5411 67.6169 32.0022 61.6252 39.6723 61.6252C39.9685 61.6252 40.2669 61.6345 40.566 61.652C44.4684 61.8885 48.0455 63.629 50.6374 66.5532C53.2298 69.4774 54.5275 73.2357 54.2914 77.1351Z" fill="#6687CC"/>
<path d="M66.1992 77.763C66.6056 70.6636 64.2199 63.8073 59.4677 58.447C54.695 53.0634 48.136 49.8596 40.9987 49.4286C36.5089 49.1542 32.2095 50.0102 28.3691 51.7408C28.2507 50.9301 27.9676 50.1333 27.4616 49.4204C26.6326 48.2531 25.3984 47.4783 23.9859 47.2383C22.5734 46.9995 21.1521 47.3222 19.985 48.1506C17.5726 49.8608 17.0025 53.2126 18.7135 55.623C19.1786 56.2779 19.7804 56.7926 20.4605 57.1753C15.9293 61.6624 12.9644 67.7609 12.5498 74.6081C11.7738 87.4076 20.1511 98.6804 32.0164 102.055C31.0535 103.8 31.0878 106.011 32.3165 107.742C33.3612 109.213 35.0174 109.998 36.6981 109.998C37.7714 109.998 38.8539 109.679 39.7937 109.012C40.9625 108.184 41.7379 106.95 41.9781 105.539C42.1267 104.666 42.0344 103.796 41.7651 102.978C47.442 102.476 52.8042 100.177 57.1732 96.31C60.081 93.7358 62.3276 90.6308 63.871 87.2069C64.8306 87.9658 66.0097 88.3704 67.2055 88.3704C68.2787 88.3704 69.3619 88.0512 70.3016 87.3848C71.4693 86.5565 72.2447 85.3227 72.4849 83.9119C72.725 82.4999 72.4003 81.0809 71.5719 79.9136C70.322 78.1538 68.1956 77.3877 66.1992 77.763ZM21.3316 52.2235C21.4115 51.754 21.6692 51.345 22.0574 51.0701C22.3617 50.8534 22.7179 50.7416 23.0835 50.7416C23.1837 50.7416 23.2852 50.7497 23.386 50.7672C23.8547 50.8464 24.2645 51.1039 24.5397 51.4918C24.8155 51.8798 24.9227 52.3516 24.8434 52.8199C24.7636 53.2894 24.5059 53.6984 24.1176 53.9733C23.73 54.2494 23.2589 54.3578 22.7891 54.2762C22.3203 54.197 21.9105 53.9395 21.6354 53.5516C21.3596 53.1636 21.2523 52.6918 21.3316 52.2235ZM37.7218 106.093C37.3336 106.369 36.8614 106.475 36.3921 106.396C35.9234 106.316 35.5135 106.059 35.2384 105.671C34.67 104.871 34.8594 103.757 35.6599 103.189C35.868 103.042 36.1037 102.962 36.3464 102.914C36.6536 102.948 36.9645 102.971 37.2749 102.995C37.6175 103.116 37.9285 103.308 38.1433 103.611C38.7123 104.412 38.5228 105.525 37.7218 106.093ZM54.7981 93.6305C50.1288 97.7645 44.1564 99.8262 37.9739 99.4638C37.4808 99.3422 36.9773 99.276 36.4679 99.2965C24.3962 97.782 15.3788 87.1273 16.1245 74.8248C16.9011 62.0166 27.9664 52.2374 40.7818 53.0005C46.9642 53.3745 52.6482 56.1519 56.7867 60.8201C60.9252 65.4883 62.9976 71.4614 62.6233 77.6383C62.2491 83.8164 59.4701 89.4958 54.7981 93.6305ZM68.9538 83.3119C68.8739 83.7814 68.6163 84.1903 68.2292 84.4653C67.8398 84.7402 67.371 84.8486 66.8994 84.7682C66.4307 84.689 66.0209 84.4315 65.7457 84.0435C65.47 83.6556 65.3627 83.1849 65.442 82.7166C65.5219 82.2471 65.7795 81.8382 66.1672 81.5632C66.4721 81.3465 66.8283 81.2347 67.1944 81.2347C67.2947 81.2347 67.3955 81.2428 67.4964 81.2603C67.9651 81.3395 68.3749 81.597 68.6501 81.985H68.6507C68.9258 82.3717 69.0331 82.8436 68.9538 83.3119Z" fill="#6687CC"/>
<path d="M93.0384 70.5889H83.5995C79.4855 70.5889 76.1387 73.9336 76.1387 78.0438V102.545C76.1387 106.655 79.4855 110 83.5995 110H93.0384C97.1524 110 100.499 106.655 100.499 102.545V78.0438C100.499 73.9336 97.1524 70.5889 93.0384 70.5889ZM96.9175 102.545C96.9175 104.683 95.1773 106.421 93.0384 106.421H83.5995C81.4606 106.421 79.7204 104.683 79.7204 102.545V78.0438C79.7204 75.906 81.4606 74.1678 83.5995 74.1678H93.0384C95.1773 74.1678 96.9175 75.906 96.9175 78.0438V102.545Z" fill="#6687CC"/>
<path d="M84.8678 78.1289H82.8125V103.32H84.8678V78.1289Z" fill="#6687CC"/>
<path d="M89.2193 78.1289H87.1641V94.4013H89.2193V78.1289Z" fill="#6687CC"/>
<path d="M89.3892 97.061H87.334V103.32H89.3892V97.061Z" fill="#6687CC"/>
<path d="M93.5689 84.6221H91.5137V103.32H93.5689V84.6221Z" fill="#6687CC"/>
<path d="M93.5689 78.1685H91.5137V81.8838H93.5689V78.1685Z" fill="#6687CC"/>
</svg>
