<svg width="48" height="48" viewBox="0 0 48 48" fill="none" xmlns="http://www.w3.org/2000/svg">
<path d="M47 24C47 11.2975 36.7025 1 24 1C11.2975 1 1 11.2975 1 24C1 36.7025 11.2975 47 24 47C36.7025 47 47 36.7025 47 24Z" stroke="#192C85" stroke-width="2"/>
<path fill-rule="evenodd" clip-rule="evenodd" d="M32.055 22.219C32.4521 22.6028 33.0851 22.5921 33.469 22.195C33.8528 21.7979 33.8421 21.1649 33.445 20.781L24.8493 12.4718C24.6727 12.1885 24.3584 12 24 12C23.6416 12 23.3273 12.1885 23.1507 12.4718L14.555 20.781C14.1579 21.1649 14.1472 21.7979 14.531 22.195C14.9149 22.5921 15.5479 22.6028 15.945 22.219L23 15.3992V38C23 38.5523 23.4477 39 24 39C24.5523 39 25 38.5523 25 38V15.3992L32.055 22.219Z" fill="#192C85"/>
</svg>
