<svg width="156" height="156" viewBox="0 0 156 156" fill="none" xmlns="http://www.w3.org/2000/svg">
<path d="M62.2004 29.7328C61.1004 29.6328 60.1004 29.6328 59.0004 29.6328C35.2004 29.6328 15.9004 48.9328 15.9004 72.7328C15.9004 74.9328 16.1004 77.1328 16.4004 79.2328" stroke="#4669B1" stroke-width="2" stroke-miterlimit="10"/>
<path d="M96.9 52.2328C93.2 45.3328 87.7 39.6328 81 35.6328Z" fill="#4669B1"/>
<path d="M96.9 52.2328C93.2 45.3328 87.7 39.6328 81 35.6328" stroke="#4669B1" stroke-width="2" stroke-miterlimit="10"/>
<path d="M31.4004 105.833C36.9004 110.433 43.5004 113.633 50.7004 115.033" stroke="#4669B1" stroke-width="2" stroke-miterlimit="10"/>
<path d="M87.2 51.7329C84.3 47.8329 80.7 44.6329 76.5 42.2329Z" fill="#4669B1"/>
<path d="M87.2 51.7329C84.3 47.8329 80.7 44.6329 76.5 42.2329" stroke="#4669B1" stroke-width="2" stroke-miterlimit="10"/>
<path d="M36.9004 100.033C40.7004 103.133 45.1004 105.433 49.9004 106.733" stroke="#4669B1" stroke-width="2" stroke-miterlimit="10"/>
<path d="M61.9008 37.7328C60.9008 37.6328 60.0008 37.6328 59.0008 37.6328C39.6008 37.6328 23.8008 53.3328 23.8008 72.8328C23.8008 74.2328 23.9008 75.7328 24.1008 77.1328" stroke="#4669B1" stroke-width="2" stroke-miterlimit="10"/>
<path d="M77.7472 39.9867L78.1593 40.3988L78.504 39.9288C79.6561 38.3577 80.3945 36.4654 80.5001 34.4594L80.5008 34.4463V34.4331C80.5008 29.357 76.3769 25.2332 71.3008 25.2332C69.1794 25.2332 67.2779 25.9766 65.7051 27.1299L65.2351 27.4746L65.6472 27.8867L66.7937 29.0331L66.0008 29.826L64.8543 28.6796L64.4672 28.2924L64.1167 28.713C63.0533 29.989 62.4161 31.4794 62.2046 33.1711L62.1344 33.7332H62.7008H64.3008V34.9331H62.7008H62.1344L62.2046 35.4951C62.4183 37.2044 63.1645 38.6847 64.1008 39.9331L64.4467 40.3943L64.8543 39.9867L66.0008 38.8402L66.7937 39.6331L65.6472 40.7796L65.2601 41.1667L65.6807 41.5172C66.9567 42.5806 68.447 43.2178 70.1388 43.4292L70.7008 43.4995V42.9331V41.3331H71.9008V42.9331V43.4995L72.4628 43.4292C74.1721 43.2156 75.6523 42.4694 76.9008 41.5331L77.362 41.1872L76.9543 40.7796L75.8079 39.6331L76.6008 38.8402L77.7472 39.9867ZM60.8008 34.3331C60.8008 28.6093 65.4769 23.9331 71.2008 23.9331C76.9246 23.9331 81.6008 28.6093 81.6008 34.3331C81.6008 40.057 76.9246 44.7332 71.2008 44.7332C65.4769 44.7332 60.8008 40.057 60.8008 34.3331Z" fill="#4669B1" stroke="#4669B1"/>
<path d="M69.6016 32.133C69.6016 30.0091 71.2777 28.333 73.4016 28.333C75.5254 28.333 77.2016 30.0091 77.2016 32.133C77.2016 34.2569 75.5254 35.933 73.4016 35.933C71.2777 35.933 69.6016 34.2569 69.6016 32.133ZM70.7016 32.133C70.7016 33.6091 71.9254 34.833 73.4016 34.833C74.8777 34.833 76.1016 33.6091 76.1016 32.133C76.1016 30.6569 74.8777 29.433 73.4016 29.433C71.9254 29.433 70.7016 30.6569 70.7016 32.133Z" fill="#4669B1" stroke="#4669B1"/>
<path d="M39.6 92.4328C39.6 101.157 32.5239 108.233 23.8 108.233C15.0721 108.233 8 101.253 8 92.5328C8 83.805 15.0801 76.6328 23.8 76.6328C32.5239 76.6328 39.6 83.7089 39.6 92.4328ZM38.4 92.5328C38.4 84.4567 31.8761 77.9328 23.8 77.9328C15.7239 77.9328 9.2 84.4567 9.2 92.5328C9.2 100.609 15.7239 107.133 23.8 107.133C31.8761 107.133 38.4 100.609 38.4 92.5328Z" fill="#6687CC" stroke="#4669B1"/>
<path d="M35.2004 92.5328C35.2004 98.7594 30.1215 103.933 23.8004 103.933C17.4793 103.933 12.4004 98.7594 12.4004 92.5328C12.4004 86.309 17.5765 81.1328 23.8004 81.1328C30.0242 81.1328 35.2004 86.309 35.2004 92.5328ZM34.1004 92.5328C34.1004 86.8567 29.4765 82.2328 23.8004 82.2328C18.1243 82.2328 13.5004 86.8567 13.5004 92.5328C13.5004 98.209 18.1243 102.833 23.8004 102.833C29.4765 102.833 34.1004 98.209 34.1004 92.5328Z" fill="#6687CC" stroke="#4669B1"/>
<path d="M26.8941 90.8327L22.3743 99.961L21.2729 99.4103L24.6456 92.7588L25.0137 92.0327H24.1996H20.7879L23.0194 85.1664L24.1672 85.549L22.6253 90.1746L22.4059 90.8327H23.0996H26.8941Z" fill="#6687CC" stroke="#4669B1"/>
<path d="M102.099 63.4331H61.1992V92.6331H102.099V63.4331Z" stroke="#4669B1" stroke-width="3" stroke-miterlimit="10"/>
<path d="M65.0996 71.333C69.2996 71.333 69.2996 86.433 73.5996 86.433C77.7996 86.433 77.7996 71.333 82.0996 71.333C86.2996 71.333 86.2996 86.433 90.5996 86.433C94.7996 86.433 94.7996 71.333 99.0996 71.333" stroke="#4669B1" stroke-width="3" stroke-miterlimit="10"/>
<path d="M135 51.2329H50V119.933H135V51.2329Z" stroke="#4669B1" stroke-width="3" stroke-miterlimit="10"/>
<path d="M118.8 77.0331C123.108 77.0331 126.6 73.541 126.6 69.2332C126.6 64.9253 123.108 61.4331 118.8 61.4331C114.492 61.4331 111 64.9253 111 69.2332C111 73.541 114.492 77.0331 118.8 77.0331Z" stroke="#4669B1" stroke-width="3" stroke-miterlimit="10"/>
<path d="M102.099 99.0332H61.1992V107.633H102.099V99.0332Z" stroke="#4669B1" stroke-width="3" stroke-miterlimit="10"/>
<path d="M61.1992 78.9331H102.099" stroke="#4669B1" stroke-width="3" stroke-miterlimit="10"/>
<path d="M112.199 83.7329H125.799" stroke="#4669B1" stroke-width="3" stroke-miterlimit="10"/>
<path d="M112.199 91.7329H125.799" stroke="#4669B1" stroke-width="3" stroke-miterlimit="10"/>
<path d="M112.199 99.6328H125.799" stroke="#4669B1" stroke-width="3" stroke-miterlimit="10"/>
<path d="M112.199 107.633H125.799" stroke="#4669B1" stroke-width="3" stroke-miterlimit="10"/>
<path d="M74.0004 120.633H60.4004V128.433H74.0004V120.633Z" stroke="#4669B1" stroke-width="3" stroke-miterlimit="10"/>
<path d="M125.7 120.633H112.1V128.433H125.7V120.633Z" stroke="#4669B1" stroke-width="3" stroke-miterlimit="10"/>
</svg>
