<svg width="122" height="122" viewBox="0 0 122 122" fill="none" xmlns="http://www.w3.org/2000/svg">
<path d="M104.776 63.5723V19.9246C104.776 17.2094 102.568 15 99.8525 15H31.5004C28.7852 15 26.5758 17.2094 26.5758 19.9246V63.5723H20.8177V71.5641H11V107.822H70.2063V83.5899H105.611C108.326 83.5899 110.535 81.3805 110.535 78.6653V63.5723H104.776ZM30.6663 20.8862C30.6735 19.7302 31.6777 19.0905 32.3693 19.0905H99.8525C100.312 19.0905 100.686 19.4649 100.686 19.9246V63.5723H30.6656C30.665 58.3902 30.6597 21.7965 30.6663 20.8862ZM66.171 103.786H15.0353V75.5994H66.171V103.786ZM106.445 78.6653C106.445 79.125 106.071 79.4994 105.611 79.4994H70.2063V71.5641H24.9075V67.6627H106.445V78.6653Z" fill="#6687CC"/>
<path d="M96.7243 23.4496H34.9577V61.0689H96.7243V23.4496ZM93.8451 58.1896H37.837V26.3289H93.8451V58.1896Z" fill="#6687CC"/>
<path d="M89.7576 29.8362H86.8783V50.1563H89.7576V29.8362Z" fill="#6687CC"/>
<path d="M89.7576 53.0354H86.8783V55.9147H89.7576V53.0354Z" fill="#6687CC"/>
<path d="M55.4942 79.435H25.5807V99.7233H55.4942V79.435ZM52.804 97.0331H28.271V82.1253H52.804V97.0331Z" fill="#6687CC"/>
<path d="M62.0727 79.4626H59.3824V99.6953H62.0727V79.4626Z" fill="#6687CC"/>
<path d="M21.6072 79.4626H18.9169V99.6953H21.6072V79.4626Z" fill="#6687CC"/>
</svg>
