<svg width="122" height="122" viewBox="0 0 122 122" fill="none" xmlns="http://www.w3.org/2000/svg">
<path d="M108.77 49.0639C110.085 49.0639 111.155 47.9933 111.155 46.679V25.7853C111.155 23.1474 109.009 21 106.37 21H15.7853C13.1466 21 11 23.1474 11 25.7853V46.679C11 47.9933 12.0698 49.0639 13.3849 49.0639C14.4062 49.0639 15.2369 49.8939 15.2369 50.9151C15.2369 51.9364 14.4062 52.7663 13.3849 52.7663C12.0698 52.7663 11 53.8369 11 55.1528V85.523C11 88.1609 13.1466 90.3083 15.7853 90.3083H17.0009V98.56C17.0009 99.8743 18.0707 100.945 19.3859 100.945H79.3989C80.714 100.945 81.7839 99.8743 81.7839 98.56V90.2605H89.0158V98.56C89.0158 99.8743 90.0864 100.945 91.4015 100.945H102.769C104.084 100.945 105.154 99.8743 105.154 98.56V90.2605H106.37C109.009 90.2605 111.155 88.1131 111.155 85.4752V55.1528C111.155 53.8369 110.085 52.7663 108.77 52.7663C107.749 52.7663 106.918 51.9364 106.918 50.9151C106.918 49.8939 107.749 49.0639 108.77 49.0639ZM29.0035 96.175H21.7716V90.2605H29.0035V96.175ZM41.0061 96.175H33.7734V90.2605H41.0061V96.175ZM53.0088 96.175H45.776V90.2605H53.0088V96.175ZM65.0114 96.175H57.7786V90.2605H65.0114V96.175ZM77.014 96.175H69.7813V90.2605H77.014V96.175ZM100.384 96.175H93.7865V90.2605H100.384V96.175ZM106.385 44.7322C105.061 45.2382 103.939 46.153 103.167 47.3717C102.22 48.8665 101.912 50.6405 102.3 52.3652C102.786 54.5326 104.345 56.3067 106.385 57.095L106.37 85.5616L15.7699 85.5461V57.0981C17.0943 56.5921 18.2165 55.6773 18.9886 54.4586C19.935 52.9638 20.2428 51.1897 19.8556 49.465C19.3689 47.2976 17.8108 45.5236 15.7707 44.7353L15.7853 25.7699L106.385 25.7853V44.7322Z" fill="#6687CC"/>
<path d="M28.6818 80.8983H41.7411C45.1026 80.8983 47.8369 78.1632 47.8369 74.8018V57.8897C47.8369 54.5282 45.1026 51.7931 41.7411 51.7931H28.6818C25.3204 51.7931 22.586 54.5282 22.586 57.8897V74.828C22.5999 78.1756 25.3342 80.8983 28.6818 80.8983ZM25.7762 57.8897C25.7762 56.2869 27.0798 54.9833 28.6818 54.9833H41.7411C43.3432 54.9833 44.6467 56.2869 44.6467 57.8897V74.8234C44.6352 76.4138 43.3316 77.7081 41.7411 77.7081H28.6818C27.0798 77.7081 25.7762 76.4046 25.7762 74.8018V57.8897Z" fill="#6687CC"/>
<path d="M57.5017 66.8507C60.1685 66.8491 62.3299 64.6876 62.3316 62.0208V57.1247C62.3333 54.4556 60.1709 52.2904 57.5017 52.2887C54.8326 52.287 52.6674 54.4494 52.6657 57.1186V62.0208C52.6674 64.69 54.8326 66.8524 57.5017 66.8507ZM55.5947 57.1247C55.5937 56.0732 56.4452 55.22 57.4967 55.2188C58.5481 55.2177 59.4014 56.0693 59.4026 57.1208V62.0208C59.4014 63.0724 58.5481 63.9239 57.4967 63.9228C56.4468 63.9217 55.5959 63.0708 55.5947 62.0208V57.1247Z" fill="#6687CC"/>
<path d="M74.8822 62.0208V57.1247C74.8839 54.4556 72.7215 52.2904 70.0524 52.2887C67.3832 52.287 65.218 54.4494 65.2163 57.1186V62.0208C65.2163 64.69 67.3801 66.8538 70.0493 66.8538C72.7184 66.8538 74.8822 64.69 74.8822 62.0208ZM68.1454 62.0208V57.1247C68.1443 56.0732 68.9958 55.22 70.0473 55.2188C71.0988 55.2177 71.9521 56.0693 71.9531 57.1208V62.0208C71.9521 63.0724 71.0988 63.9239 70.0473 63.9228C68.9973 63.9217 68.1464 63.0708 68.1454 62.0208Z" fill="#6687CC"/>
<path d="M87.4474 62.0211V57.1249C87.5945 54.4518 85.5467 52.1655 82.8735 52.0184C80.2003 51.8713 77.914 53.9191 77.7669 56.5923C77.7571 56.7697 77.7571 56.9475 77.7669 57.1249V62.0211C77.7669 64.6903 79.9306 66.8541 82.5998 66.8541C85.2714 66.8541 87.4393 64.6927 87.4474 62.0211ZM80.696 62.0211V57.1249C80.6034 56.0695 81.3842 55.1388 82.4397 55.0463C83.4952 54.9538 84.4259 55.7345 84.5184 56.7901C84.5281 56.9014 84.5281 57.0136 84.5184 57.1249V62.0211C84.4259 63.0767 83.4952 63.8573 82.4397 63.7649C81.5124 63.6836 80.7772 62.9484 80.696 62.0211Z" fill="#6687CC"/>
<path d="M99.9987 62.0211V57.1249C100.146 54.4518 98.0979 52.1655 95.4247 52.0184C92.7515 51.8713 90.4651 53.9191 90.3181 56.5923C90.3084 56.7697 90.3084 56.9475 90.3181 57.1249V62.0211C90.3181 64.6903 92.4819 66.8541 95.151 66.8541C97.8225 66.8541 99.9906 64.6927 99.9987 62.0211ZM93.2471 62.0211V57.1249C93.1547 56.0695 93.9353 55.1388 94.9909 55.0463C96.0465 54.9538 96.9771 55.7345 97.0695 56.7901C97.0794 56.9014 97.0794 57.0136 97.0695 57.1249V62.0211C96.9771 63.0767 96.0465 63.8573 94.9909 63.7649C94.0636 63.6836 93.3284 62.9484 93.2471 62.0211Z" fill="#6687CC"/>
<path d="M98.8064 71.4401H53.157C52.2777 71.4401 51.5619 72.1559 51.5619 73.0352V79.2043C51.5619 80.0836 52.2777 80.7994 53.157 80.7994H98.8064C99.6857 80.7994 100.401 80.0836 100.401 79.2043V73.0352C100.401 72.1559 99.6857 71.4401 98.8064 71.4401ZM97.2113 77.6092H54.7521V74.6303H97.2113V77.6092Z" fill="#6687CC"/>
<path d="M25.6548 47.5183H97.3326C98.8093 47.5183 100.007 46.3211 100.007 44.8443V31.631C100.007 30.1542 98.8093 28.9571 97.3326 28.9571H25.6548C24.178 28.9571 22.9808 30.1542 22.9808 31.631V44.8443C22.9808 46.3211 24.178 47.5183 25.6548 47.5183ZM26.1401 32.1164H96.8471V44.3589H26.1401V32.1164Z" fill="#6687CC"/>
</svg>
