<svg width="36" height="36" viewBox="0 0 36 36" fill="none" xmlns="http://www.w3.org/2000/svg">
<path d="M28.6926 11.8984C27.9764 12.2599 27.1711 12.4408 26.3654 12.5311C27.1711 11.9887 27.7976 11.2657 28.1555 10.2712C27.3499 10.7233 26.5442 11.0848 25.5598 11.2654C24.8435 10.4518 23.7696 10 22.606 10C20.3682 10 18.5781 11.8078 18.5781 14.0677C18.5781 14.4292 18.5781 14.7004 18.6675 14.9716C15.3555 14.7907 12.4017 13.1638 10.3431 10.723C9.9851 11.3557 9.80596 11.9884 9.80596 12.802C9.80596 14.2483 10.5222 15.4234 11.5961 16.1467C10.9696 16.1467 10.3431 15.9658 9.80596 15.6043V15.6946C9.80596 17.6833 11.1487 19.3105 13.0283 19.672C12.6703 19.7623 12.312 19.853 11.9541 19.853C11.6855 19.853 11.417 19.853 11.2378 19.7627C11.7749 21.3899 13.2071 22.565 14.9972 22.565C13.6545 23.6498 11.8643 24.2825 9.98447 24.2825C9.62651 24.2825 9.35796 24.2825 9 24.1922C10.7901 25.3673 12.8491 26 15.1763 26C22.6057 26 26.6336 19.8533 26.6336 14.4295V13.8871C27.529 13.435 28.1555 12.712 28.6926 11.8984Z" fill="#4669B1"/>
<path d="M18 35C27.3888 35 35 27.3888 35 18C35 8.61116 27.3888 1 18 1C8.61116 1 1 8.61116 1 18C1 27.3888 8.61116 35 18 35Z" stroke="#4669B1" stroke-width="2"/>
</svg>
