<svg width="42" height="42" viewBox="0 0 42 42" fill="none" xmlns="http://www.w3.org/2000/svg">
<path d="M19.4801 28.4602C21.4726 28.4598 23.4076 27.7928 24.9771 26.5654L29.9116 31.5L31.4989 29.9128L26.5643 24.9782C27.7923 23.4085 28.4598 21.4731 28.4602 19.4801C28.4602 14.5287 24.4315 10.5 19.4801 10.5C14.5287 10.5 10.5 14.5287 10.5 19.4801C10.5 24.4315 14.5287 28.4602 19.4801 28.4602ZM19.4801 12.745C23.1945 12.745 26.2152 15.7657 26.2152 19.4801C26.2152 23.1945 23.1945 26.2152 19.4801 26.2152C15.7657 26.2152 12.745 23.1945 12.745 19.4801C12.745 15.7657 15.7657 12.745 19.4801 12.745Z" fill="#192C85"/>
</svg>
