<svg width="156" height="156" viewBox="0 0 156 156" fill="none" xmlns="http://www.w3.org/2000/svg">
<path d="M107.462 25.9429V81.7215V109.683L87.4229 129.726H31.5273V109.024V81.7215V25.9429H107.462Z" stroke="#4669B1" stroke-width="3" stroke-miterlimit="10"/>
<path d="M87.4238 109.684H107.463L87.4238 129.726V109.684Z" stroke="#4669B1" stroke-width="3" stroke-linejoin="bevel"/>
<path d="M121.862 121.67C121.862 121.947 121.639 122.168 121.367 122.168C121.094 122.168 120.869 121.947 120.869 121.67V119.976C120.869 119.699 121.094 119.475 121.367 119.475C121.639 119.475 121.862 119.699 121.862 119.976V121.67Z" stroke="#4669B1" stroke-width="2" stroke-miterlimit="10"/>
<path d="M123.35 111.959C123.747 103.545 124.007 93.1094 123.998 81.7358C123.99 70.2473 123.784 59.4206 123.436 50.6338H119.293C118.941 59.4206 118.741 70.2473 118.731 81.7358C118.724 93.1083 118.98 103.547 119.378 111.959H123.35Z" stroke="#4669B1" stroke-width="2"/>
<path d="M119.293 50.6338H123.436C123.378 49.1956 123.32 47.8046 123.256 46.478C122.135 45.6704 120.596 45.6672 119.478 46.478C119.414 47.8046 119.352 49.1956 119.293 50.6338Z" stroke="#4669B1" stroke-width="2"/>
<path d="M119.566 112.661C119.994 115.896 120.341 118.807 120.606 121.318C121.115 121.318 121.618 121.318 122.131 121.318C122.392 118.804 122.74 115.895 123.169 112.661C121.968 112.661 120.763 112.661 119.566 112.661Z" stroke="#4669B1" stroke-width="2"/>
<path d="M118.9 80.2139H123.465" stroke="#4669B1" stroke-width="2"/>
<path d="M114.473 76.6436V54.9281L119.293 50.6382H121.533" stroke="#4669B1" stroke-width="2"/>
<path d="M40.207 38.8247H75.7329" stroke="#4669B1" stroke-width="2" stroke-miterlimit="10"/>
<path d="M40.207 46.3418H97.4968" stroke="#4669B1" stroke-width="2" stroke-miterlimit="10"/>
<path d="M39.7695 62.312H96.7086" stroke="#4669B1" stroke-width="2" stroke-miterlimit="10"/>
<path d="M39.7695 68.7075H96.7086" stroke="#4669B1" stroke-width="2" stroke-miterlimit="10"/>
<path d="M39.7695 75.1025H96.7086" stroke="#4669B1" stroke-width="2" stroke-miterlimit="10"/>
<path d="M39.7695 81.5H96.7086" stroke="#4669B1" stroke-width="2" stroke-miterlimit="10"/>
<path d="M39.7695 89.999H96.3579" stroke="#4669B1" stroke-width="2" stroke-miterlimit="10"/>
<path d="M39.7695 96.3945H96.3579" stroke="#4669B1" stroke-width="2" stroke-miterlimit="10"/>
<path d="M39.7695 102.79H89.6871" stroke="#4669B1" stroke-width="2" stroke-miterlimit="10"/>
<path d="M39.7695 114.587H56.1388" stroke="#4669B1" stroke-width="2" stroke-miterlimit="10"/>
</svg>
