<svg width="36" height="36" viewBox="0 0 36 36" fill="none" xmlns="http://www.w3.org/2000/svg">
<path d="M27.7498 13.7578C27.5601 12.2963 26.6951 11.3796 25.1597 11.2442C23.4017 11.0892 19.596 11 17.8308 11C14.2201 11 12.6066 11.0861 10.8991 11.2586C9.27189 11.4227 8.5596 12.1284 8.27962 13.5853C8.08353 14.6062 8 15.5624 8 17.8223C8 19.8523 8.09823 21.129 8.25023 22.2032C8.45922 23.6783 9.49669 24.5071 11.017 24.6306C12.7858 24.7744 16.3291 24.8462 18.081 24.8462C19.7738 24.8462 23.5835 24.7601 25.2773 24.5732C26.7933 24.406 27.5143 23.6156 27.7498 22.1601C27.7498 22.1601 28 20.5657 28 17.808C28 16.2377 27.8824 14.7773 27.7498 13.7578ZM15.8735 20.6665V15.0551L21.3479 17.8321L15.8735 20.6665Z" fill="#4669B1"/>
<path d="M18 35C27.3888 35 35 27.3888 35 18C35 8.61116 27.3888 1 18 1C8.61116 1 1 8.61116 1 18C1 27.3888 8.61116 35 18 35Z" stroke="#4669B1" stroke-width="2"/>
</svg>
