<svg width="122" height="122" viewBox="0 0 122 122" fill="none" xmlns="http://www.w3.org/2000/svg">
<path d="M108.585 14.1318H13.4157C12.1319 14.1318 11.0879 15.1766 11.0879 16.4604V86.6587C11.0879 87.9424 12.1319 88.9872 13.4157 88.9872H51.4807V96.2287L25.1121 103.289C23.872 103.622 23.1336 104.901 23.4652 106.14C23.7885 107.352 25.0922 108.118 26.3162 107.787L54.1148 100.344H67.8977L95.6949 107.787C95.894 107.841 96.0978 107.868 96.3 107.868C97.3509 107.868 98.2754 107.158 98.5481 106.14C98.709 105.54 98.6262 104.913 98.3153 104.374C98.0035 103.835 97.5018 103.45 96.9005 103.289L70.5327 96.2287V88.9872H108.585C109.868 88.9872 110.912 87.9424 110.912 86.6587V16.4604C110.912 15.1766 109.868 14.1318 108.585 14.1318ZM65.8763 95.6864H56.137V88.9872H65.8763V95.6864ZM106.257 84.3301H15.7435V18.7889H106.257V84.3301Z" fill="#6687CC"/>
<path d="M23.1895 71.4204H98.5719C99.4474 71.4204 100.16 70.7081 100.16 69.8318V26.1561C100.16 25.2798 99.4474 24.5674 98.5719 24.5674H23.1895C22.314 24.5674 21.6016 25.2798 21.6016 26.1561V69.8333C21.6016 70.7081 22.314 71.4204 23.1895 71.4204ZM24.7773 27.7432H96.984V68.2447H24.7773V27.7432Z" fill="#6687CC"/>
<path d="M23.3021 79.4968H26.8953C28.179 79.4968 29.223 78.452 29.223 77.1683C29.223 75.8845 28.179 74.8397 26.8953 74.8397H23.3021C22.0183 74.8397 20.9743 75.8845 20.9743 77.1683C20.9743 78.452 22.0183 79.4968 23.3021 79.4968Z" fill="#6687CC"/>
<path d="M41.3806 74.8397H37.7851C36.5013 74.8397 35.4565 75.8845 35.4565 77.1683C35.4565 78.452 36.5013 79.4968 37.7851 79.4968H41.3806C42.6643 79.4968 43.7091 78.452 43.7091 77.1683C43.7091 75.8845 42.6643 74.8397 41.3806 74.8397Z" fill="#6687CC"/>
<path d="M57.433 74.8397H53.8376C52.5538 74.8397 51.5098 75.8845 51.5098 77.1683C51.5098 78.452 52.5538 79.4968 53.8376 79.4968H57.433C58.7168 79.4968 59.7616 78.452 59.7616 77.1683C59.7616 75.8845 58.7168 74.8397 57.433 74.8397Z" fill="#6687CC"/>
<path d="M78.1364 53.429H67.9306L65.1358 50.6337C65.4177 50.0302 65.5867 49.3643 65.5867 48.6554C65.5867 46.0603 63.4757 43.9493 60.8806 43.9493C60.1717 43.9493 59.5058 44.1183 58.9024 44.4002L55.7149 41.2133C55.4207 40.9191 55.0217 40.7537 54.6057 40.7537H43.6248C42.7584 40.7537 42.056 41.4553 42.056 42.3224C42.056 43.1895 42.7584 43.8911 43.6248 43.8911H53.9562L56.6667 46.601C56.3612 47.2244 56.1744 47.9157 56.1744 48.6554C56.1744 51.2506 58.2855 53.3616 60.8806 53.3616C61.6203 53.3616 62.3116 53.1748 62.935 52.8693L66.1719 56.1068C66.466 56.401 66.8651 56.5664 67.281 56.5664H78.1364C79.0027 56.5664 79.7051 55.8648 79.7051 54.9977C79.7051 54.1306 79.0027 53.429 78.1364 53.429ZM60.8806 50.2242C60.0158 50.2242 59.3119 49.521 59.3119 48.6554C59.3119 48.225 59.4869 47.8355 59.7683 47.5519C59.7805 47.5403 59.797 47.5368 59.809 47.5249C59.8108 47.523 59.8112 47.5207 59.813 47.5188C60.0938 47.2551 60.466 47.0867 60.8806 47.0867C61.7454 47.0867 62.4493 47.7899 62.4493 48.6554C62.4493 49.521 61.7454 50.2242 60.8806 50.2242Z" fill="#6687CC"/>
<path d="M56.1744 60.4208H48.3309V54.4152L48.6143 54.82C48.9199 55.2566 49.4063 55.4894 49.9011 55.4894C50.2113 55.4894 50.5254 55.3975 50.7996 55.206C51.5089 54.7082 51.6812 53.7308 51.1849 53.0215L48.0475 48.5405C47.4592 47.701 46.0651 47.701 45.4769 48.5405L42.3394 53.0215C41.8431 53.7308 42.0154 54.7082 42.7247 55.206C43.4371 55.7039 44.4137 55.5323 44.91 54.82L45.1935 54.4152V61.9895C45.1935 62.8566 45.8959 63.5582 46.7622 63.5582H56.1744C57.0407 63.5582 57.7431 62.8566 57.7431 61.9895C57.7431 61.1224 57.0407 60.4208 56.1744 60.4208Z" fill="#6687CC"/>
<path d="M65.5867 36.8901H73.4303V42.8942L73.1468 42.4894C72.6497 41.7785 71.6731 41.6085 70.9623 42.1033C70.2522 42.5997 70.0799 43.5786 70.5762 44.2879L73.7137 48.7703C74.007 49.1901 74.4873 49.4398 74.999 49.4398C75.5106 49.4398 75.9909 49.1901 76.2843 48.7703L79.4217 44.2879C79.918 43.5786 79.7457 42.5997 79.0356 42.1033C78.3279 41.6085 77.349 41.7785 76.8511 42.4894L76.5677 42.8942V35.3214C76.5677 34.4543 75.8653 33.7527 74.999 33.7527H65.5867C64.7204 33.7527 64.018 34.4543 64.018 35.3214C64.018 36.1885 64.7204 36.8901 65.5867 36.8901Z" fill="#6687CC"/>
<path d="M95.9813 72.6536C93.4942 72.6536 91.4713 74.6773 91.4713 77.1637C91.4713 79.65 93.4942 81.6737 95.9813 81.6737C98.4684 81.6737 100.491 79.65 100.491 77.1637C100.491 74.6773 98.4684 72.6536 95.9813 72.6536ZM95.9813 78.5363C95.2246 78.5363 94.6087 77.9205 94.6087 77.1637C94.6087 76.4069 95.2246 75.7911 95.9813 75.7911C96.7381 75.7911 97.354 76.4069 97.354 77.1637C97.354 77.9205 96.7381 78.5363 95.9813 78.5363Z" fill="#6687CC"/>
</svg>
