<svg width="48" height="48" viewBox="0 0 48 48" fill="none" xmlns="http://www.w3.org/2000/svg">
<path d="M24 48C37.2548 48 48 37.2548 48 24C48 10.7452 37.2548 0 24 0C10.7452 0 0 10.7452 0 24C0 37.2548 10.7452 48 24 48Z" fill="white"/>
<path fill-rule="evenodd" clip-rule="evenodd" d="M25.781 32.055C25.3972 32.4521 25.4079 33.0852 25.805 33.469C26.2021 33.8529 26.8351 33.8422 27.219 33.4451L35.5282 24.8493C35.8115 24.6728 36 24.3584 36 24.0001C36 23.6417 35.8115 23.3273 35.5282 23.1508L27.219 14.555C26.8351 14.1579 26.2021 14.1472 25.805 14.5311C25.4079 14.9149 25.3972 15.548 25.781 15.9451L32.6008 23.0001H10C9.44772 23.0001 9 23.4478 9 24.0001C9 24.5523 9.44772 25.0001 10 25.0001H32.6008L25.781 32.055Z" fill="#192C85"/>
</svg>
