<svg width="18" height="18" viewBox="0 0 18 18" fill="none" xmlns="http://www.w3.org/2000/svg">
<path fill-rule="evenodd" clip-rule="evenodd" d="M0.292889 15.8495C-0.0976296 16.2401 -0.0976296 16.8732 0.292889 17.2637C0.683407 17.6543 1.31657 17.6543 1.7071 17.2637L8.77824 10.1926L15.8492 17.2636C16.2398 17.6541 16.8729 17.6541 17.2635 17.2636C17.654 16.8731 17.654 16.2399 17.2635 15.8494L10.1925 8.77839L17.2634 1.70739C17.654 1.31687 17.654 0.683702 17.2634 0.293179C16.8729 -0.0973453 16.2398 -0.0973453 15.8492 0.293179L8.77824 7.36418L1.7071 0.293046C1.31658 -0.0974801 0.683406 -0.09748 0.292888 0.293046C-0.0976303 0.68357 -0.0976303 1.31674 0.292888 1.70726L7.36402 8.7784L0.292889 15.8495Z" fill="#192C85"/>
</svg>
