<svg width="122" height="122" viewBox="0 0 122 122" fill="none" xmlns="http://www.w3.org/2000/svg">
<path d="M34.2772 75.9297H17.1738V78.7952H34.2772V75.9297Z" fill="#6687CC"/>
<path d="M88.1855 69.6294H45.7285V100.971H88.1855V69.6294ZM85.3201 98.1052H48.594V72.4949H85.3201V98.1052Z" fill="#6687CC"/>
<path d="M103.121 69.6855H90.3145V100.915H103.121V69.6855ZM100.256 98.0495H93.1799V72.551H100.256V98.0495Z" fill="#6687CC"/>
<path d="M98.3959 80.0938H95.041V96.076H98.3959V80.0938Z" fill="#6687CC"/>
<path d="M98.3959 74.4341H95.041V77.9865H98.3959V74.4341Z" fill="#6687CC"/>
<path d="M98.1494 27.9592C98.1194 27.1896 97.4876 26.5824 96.7181 26.5824C95.9486 26.5824 95.3168 27.1896 95.2868 27.9592L93.9505 61.875H85.2617V13.9199H9.3457V86.7018H37.646V109.395H110.287V61.875H99.4864L98.1494 27.9592ZM13.6439 82.4036V18.2182H80.9635V61.875H77.7153V20.9395H16.8928V72.4947H37.646V82.4036H13.6439ZM64.738 56.81V60.4842L65.637 61.3097V61.875H59.3589V61.3097L60.2579 60.4842V56.81H51.709V60.4842L52.608 61.3097V61.875H44.3039V61.3097L45.2029 60.4842V56.81H36.6546V60.4842L37.5529 61.3097V64.0367L37.646 64.0298V69.6292H19.7583V23.805H74.8498V61.875H72.388V61.3097L73.2869 60.4842V56.81H64.738ZM105.989 105.097H41.9442V66.1732H105.989V105.097Z" fill="#6687CC"/>
<path d="M99.4255 32.7276L100.581 35.3496C103.495 34.0652 105.378 31.1801 105.378 27.997C105.378 23.5672 101.775 19.9644 97.3456 19.9644C95.3322 19.9644 93.4069 20.7115 91.9238 22.0701L93.8589 24.1828C94.8124 23.3112 96.0507 22.8298 97.3456 22.8298C100.195 22.8298 102.513 25.1483 102.513 27.997C102.513 30.044 101.301 31.9007 99.4255 32.7276Z" fill="#6687CC"/>
<path d="M97.3464 15.2088C104.397 15.2088 110.134 20.9453 110.134 27.9971C110.134 33.0621 107.138 37.657 102.503 39.7026L103.66 42.3246C109.334 39.8215 113 34.1969 113 27.9971C113 19.3657 105.978 12.3433 97.3464 12.3433C93.7904 12.3433 90.3079 13.5689 87.541 15.7936L89.3368 18.0267C91.6294 16.1826 94.399 15.2088 97.3464 15.2088Z" fill="#6687CC"/>
</svg>
