<svg width="122" height="122" viewBox="0 0 122 122" fill="none" xmlns="http://www.w3.org/2000/svg">
<path d="M17.8805 64.6168V57.0857C17.8805 50.4299 23.2958 45.0145 29.9516 45.0145C38.8991 45.0145 46.1786 37.735 46.1786 28.7875V14.7358H42.0228V28.7875C42.0228 35.4434 36.6075 40.8587 29.9516 40.8587C21.0041 40.8587 13.7246 48.1382 13.7246 57.0857V107.264H108.274V64.6168H17.8805ZM104.118 90.971H92.4544V78.2424H91.431V78.1396H85.8547V68.7727H104.118V90.971ZM17.8805 80.9101H36.2246V90.971H17.8805V80.9101ZM38.9952 80.9101H49.3956V90.971H38.9952V80.9101ZM72.3982 78.1396V68.7727H83.0841V78.1396H72.3982ZM69.6277 78.1396H58.9418V68.7727H69.6277V78.1396ZM52.1662 90.971V80.9101H62.8994V90.971H52.1662ZM56.1712 78.1396H45.486V68.7727H56.1712V78.1396ZM76.3559 93.7416V103.108H45.486V93.7416H76.3559ZM65.67 90.971V80.9101H76.3559V90.971H65.67ZM79.1264 80.9101H89.6838V90.971H79.1264V80.9101ZM17.8805 68.7727H29.259V77.9799H32.0295V68.7727H42.7154V78.1396H17.8805V68.7727ZM17.8805 93.7416H42.7154V103.108H17.8805V93.7416ZM79.1264 103.108V93.7416H104.118V103.108H79.1264Z" fill="#6687CC"/>
<path d="M107.61 41.7042H105.142C103.992 36.8436 103.879 31.6813 104.843 26.721C104.986 25.9824 105.039 25.6896 105.2 25.1322L105.337 24.656L105.335 24.6614C105.495 24.033 105.605 23.3935 105.605 22.7383C105.605 18.4124 102.061 14.8894 97.6773 14.8151C93.2935 14.8894 89.7495 18.4124 89.7495 22.7383C89.7495 23.3935 89.8597 24.033 90.0198 24.6614L90.0173 24.656L90.1546 25.1322C90.3156 25.6896 90.3691 25.9824 90.5118 26.721C91.4754 31.6813 91.3623 36.8436 90.2131 41.7042H88.8836V37.8541H67.6999V41.7042H65.9323C64.7831 36.8436 64.67 31.6813 65.6336 26.721C65.7763 25.9824 65.8298 25.6896 65.9908 25.1322L66.1281 24.656L66.1256 24.6614C66.2857 24.033 66.3959 23.3935 66.3959 22.7383C66.3959 18.4124 62.8519 14.8894 58.468 14.8151C54.0841 14.8894 50.5402 18.4124 50.5402 22.7383C50.5402 23.3935 50.6504 24.033 50.8105 24.6614L50.808 24.656L50.9453 25.1322C51.1063 25.6896 51.1598 25.9824 51.3025 26.721C52.2661 31.6813 52.153 36.8436 51.0038 41.7042H47.8717V60.7816H107.61V41.7042ZM94.5919 25.9296C94.4201 25.0414 94.32 24.6877 94.13 24.0325L94.1394 24.0289C93.9838 23.6163 93.9054 23.1821 93.9054 22.7383C93.9054 20.7039 95.5862 19.0503 97.6773 18.9776C99.7685 19.0503 101.449 20.7039 101.449 22.7383C101.449 23.1821 101.371 23.6163 101.215 24.0289L101.225 24.0325C101.035 24.6877 100.935 25.0414 100.763 25.9296C99.7509 31.1391 99.7914 36.5556 100.871 41.7042H94.4838C95.5633 36.5556 95.6038 31.1391 94.5919 25.9296ZM70.4705 40.6247H86.1131V41.7042H70.4705V40.6247ZM55.3826 25.9296C55.2108 25.0414 55.1107 24.6877 54.9207 24.0325L54.9301 24.0289C54.7745 23.6163 54.696 23.1821 54.696 22.7383C54.696 20.7039 56.3769 19.0503 58.468 18.9776C60.5591 19.0503 62.24 20.7039 62.24 22.7383C62.24 23.1821 62.1616 23.6163 62.006 24.0289L62.0154 24.0325C61.8254 24.6877 61.7253 25.0414 61.5535 25.9296C60.5416 31.1391 60.5821 36.5556 61.6616 41.7042H55.2745C56.354 36.5556 56.3945 31.1391 55.3826 25.9296ZM52.0275 56.6258V45.8606H57.2473C57.2473 45.8608 57.2473 45.8605 57.2473 45.8606L59.6888 45.8601C59.6888 45.8599 59.6888 45.8602 59.6888 45.8601L96.4566 45.8606C96.4566 45.8608 96.4566 45.8605 96.4566 45.8606L98.8981 45.8601C98.8981 45.8599 98.8981 45.8602 98.8981 45.8601L103.454 45.8606V56.6258H52.0275Z" fill="#6687CC"/>
<path d="M68.1042 48.3423H54.4822V51.2427H68.1042V48.3423Z" fill="#6687CC"/>
<path d="M74.9729 48.3423H69.8141V51.2427H74.9729V48.3423Z" fill="#6687CC"/>
<path d="M81.8415 48.3423H76.6828V51.2427H81.8415V48.3423Z" fill="#6687CC"/>
<path d="M88.8077 48.3423H83.6489V51.2427H88.8077V48.3423Z" fill="#6687CC"/>
</svg>
