<svg width="122" height="122" viewBox="0 0 122 122" fill="none" xmlns="http://www.w3.org/2000/svg">
<path d="M64.3886 50.1553H67.1249V40.4927H57.5191V43.229H64.3886V50.1553Z" fill="#6687CC"/>
<path d="M57.4336 78.7719H64.3886V71.9885H67.1249V81.5082H57.4336V78.7719Z" fill="#6687CC"/>
<path d="M36.8824 78.7719H30.1558V71.9885H27.4195V81.5082H36.8824V78.7719Z" fill="#6687CC"/>
<path d="M36.9325 43.229H30.1558V50.305H27.4195V40.4927H36.9325V43.229Z" fill="#6687CC"/>
<path d="M48.599 54.0815H45.9197V56.7607H48.599V54.0815Z" fill="#6687CC"/>
<path d="M41.1378 56.598H43.8171V59.2774H41.1378V56.598Z" fill="#6687CC"/>
<path d="M43.8171 61.8629H41.1378V64.5422H43.8171V61.8629Z" fill="#6687CC"/>
<path d="M45.9197 59.8334H48.599V62.5126H45.9197V59.8334Z" fill="#6687CC"/>
<path d="M53.3803 56.598H50.701V59.2774H53.3803V56.598Z" fill="#6687CC"/>
<path d="M50.701 62.0419H53.3803V64.7212H50.701V62.0419Z" fill="#6687CC"/>
<path d="M48.599 65.2405H45.9197V67.9198H48.599V65.2405Z" fill="#6687CC"/>
<path fill-rule="evenodd" clip-rule="evenodd" d="M47.2592 74.2973C54.591 74.2973 60.556 68.3329 60.556 61.0004C60.556 53.6679 54.591 47.7036 47.2592 47.7036C39.9273 47.7036 33.9623 53.6679 33.9623 61.0004C33.9623 68.3329 39.9273 74.2973 47.2592 74.2973ZM47.2592 50.4399C53.0826 50.4399 57.8197 55.1777 57.8197 61.0004C57.8197 66.8231 53.0826 71.5609 47.2592 71.5609C41.4358 71.5609 36.6987 66.8231 36.6987 61.0004C36.6987 55.1777 41.4358 50.4399 47.2592 50.4399Z" fill="#6687CC"/>
<path fill-rule="evenodd" clip-rule="evenodd" d="M80.8219 76.6876C80.8219 79.7392 78.3395 82.2217 75.2885 82.2217C72.2375 82.2217 69.755 79.7392 69.755 76.6876C69.755 73.6372 72.2375 71.1548 75.2885 71.1548C78.3395 71.1548 80.8219 73.6372 80.8219 76.6876ZM73.9203 76.5312V74.2635C73.0719 74.7444 72.4914 75.6449 72.4914 76.6876C72.4914 78.2307 73.746 79.4853 75.2885 79.4853C76.831 79.4853 78.0856 78.2307 78.0856 76.6876C78.0856 75.6449 77.5051 74.7444 76.6567 74.2635V76.5312H73.9203Z" fill="#6687CC"/>
<path fill-rule="evenodd" clip-rule="evenodd" d="M92.5742 72.1554C91.3637 71.3083 89.8947 70.9823 88.4397 71.2388C86.984 71.4954 85.7154 72.3037 84.8676 73.5155C84.0205 74.726 83.6952 76.1944 83.9517 77.6494C84.2083 79.1058 85.0166 80.3737 86.2278 81.2208C87.1918 81.8955 88.2974 82.2189 89.393 82.2189C91.1393 82.2189 92.8588 81.3958 93.9337 79.8607C94.7815 78.6502 95.1068 77.1818 94.8496 75.7268C94.5931 74.2704 93.7847 73.0025 92.5742 72.1554ZM91.6917 78.2921C90.8072 79.5547 89.0603 79.862 87.7963 78.9788C87.1844 78.5513 86.7762 77.91 86.6466 77.1738C86.517 76.4389 86.6814 75.6961 87.1096 75.0841C87.5378 74.4722 88.1791 74.0633 88.9147 73.9337C89.079 73.9043 89.2433 73.8896 89.4063 73.8896C89.4565 73.8896 89.5051 73.9 89.5538 73.9104C89.5899 73.9181 89.626 73.9257 89.6629 73.9292L88.3702 75.7749L90.6108 77.3435L91.913 75.4849C92.0212 75.7115 92.1103 75.9482 92.1554 76.2024C92.285 76.9373 92.1206 77.6802 91.6917 78.2921Z" fill="#6687CC"/>
<path fill-rule="evenodd" clip-rule="evenodd" d="M71.2535 41.1019H94.3833V52.3893H71.2535V41.1019ZM73.9898 49.653H91.647V43.8383H73.9898V49.653Z" fill="#6687CC"/>
<path d="M71.1232 54.5551H94.5123V57.2914H71.1232V54.5551Z" fill="#6687CC"/>
<path d="M94.5123 60.5542H71.1232V63.2905H94.5123V60.5542Z" fill="#6687CC"/>
<path d="M71.1232 66.5519H94.5123V69.2882H71.1232V66.5519Z" fill="#6687CC"/>
<path fill-rule="evenodd" clip-rule="evenodd" d="M20.5172 33.4768H101.31V88.524H20.5172V33.4768ZM23.2535 85.7877H98.574V36.2132H23.2535V85.7877Z" fill="#6687CC"/>
<path fill-rule="evenodd" clip-rule="evenodd" d="M13.8066 94.7489V27.252H108.194V94.7489H13.8066ZM17.9111 90.6444H104.089V31.3564H17.9111V90.6444Z" fill="#6687CC"/>
</svg>
