<svg width="40" height="40" viewBox="0 0 40 40" fill="none" xmlns="http://www.w3.org/2000/svg">
<path d="M28.6916 10.5332C26.3316 8.17324 23.1436 6.89124 19.9316 7.00724C19.2836 7.03024 18.7776 7.57724 18.8016 8.22524C18.8136 8.53924 18.9476 8.83124 19.1796 9.04424C19.4046 9.25124 19.7206 9.38124 20.0256 9.35424C22.5486 9.25324 25.1196 10.2852 27.0296 12.1932C28.9306 14.0962 29.9646 16.6522 29.8696 19.2042C29.8456 19.8552 30.3556 20.3962 31.0366 20.4222H31.0436C31.6776 20.4222 32.1926 19.9242 32.2166 19.2912C32.3386 16.0832 31.0506 12.8922 28.6916 10.5332Z" fill="#192C85"/>
<path d="M26.3901 23.0894C25.7711 22.4684 24.9451 22.1274 24.0701 22.1274C23.6551 22.1274 23.2541 22.2094 22.8791 22.3564C22.4611 22.5194 22.0761 22.7624 21.7501 23.0894L20.9261 23.9114C20.7521 24.0854 20.4681 24.1084 20.2541 23.9584C19.4451 23.3944 18.6761 22.7474 17.9651 22.0384C17.2551 21.3274 16.6091 20.5564 16.0441 19.7494C15.8931 19.5344 15.9171 19.2524 16.0901 19.0784L16.9141 18.2544C17.5341 17.6354 17.8741 16.8114 17.8741 15.9344C17.8741 15.0574 17.5341 14.2324 16.9141 13.6144L15.0521 11.7524C14.4571 11.1554 13.6101 10.8184 12.7301 10.8184C11.8501 10.8184 11.0041 11.1564 10.4111 11.7524L9.56108 12.6014C8.37808 13.7844 7.81308 15.4504 8.05508 17.0614C8.36108 19.0974 9.11608 21.1704 10.2361 23.0584C11.0391 24.4184 12.0271 25.6884 13.1711 26.8324C14.3141 27.9774 15.5841 28.9644 16.9441 29.7664C18.8331 30.8874 20.9071 31.6424 22.9441 31.9504C23.1911 31.9854 23.4411 32.0054 23.6851 32.0054C25.0581 32.0054 26.4131 31.4354 27.4031 30.4424L28.2531 29.5944C28.8731 28.9774 29.2141 28.1514 29.2141 27.2724C29.2141 26.3954 28.8731 25.5714 28.2531 24.9524L26.3901 23.0894ZM25.9041 28.9424C25.1911 29.6544 24.2001 29.9854 23.2591 29.8484C21.9971 29.6594 20.7111 29.2584 19.4701 28.6884C18.9791 28.4624 18.4941 28.2174 18.0231 27.9384C16.8171 27.2274 15.6891 26.3504 14.6701 25.3324C14.3831 25.0454 14.1101 24.7464 13.8461 24.4424C13.1731 23.6674 12.5731 22.8424 12.0611 21.9774C11.0771 20.3174 10.4171 18.5064 10.1511 16.7434C10.0091 15.8024 10.3461 14.8124 11.0591 14.0974L11.9081 13.2504C12.1291 13.0304 12.4191 12.9104 12.7291 12.9104C13.0391 12.9104 13.3311 13.0314 13.5511 13.2504L15.4141 15.1114C15.8651 15.5644 15.8651 16.3014 15.4141 16.7554L14.5901 17.5774C13.6831 18.4834 13.5641 19.9084 14.3031 20.9654C14.4241 21.1384 14.5601 21.3034 14.6871 21.4734C15.1251 22.0554 15.5861 22.6214 16.0881 23.1534L16.0841 23.1594L16.8711 23.9414L16.8751 23.9374C17.5521 24.5774 18.2781 25.1684 19.0361 25.6984C20.0971 26.4384 21.5201 26.3194 22.4231 25.4134L23.2511 24.5894C23.4521 24.3864 23.7511 24.2634 24.0691 24.2634C24.3851 24.2634 24.6841 24.3864 24.8901 24.5894L26.1461 25.8474L26.7521 26.4534C26.9711 26.6714 27.0921 26.9614 27.0921 27.2724C27.0921 27.5834 26.9711 27.8724 26.7521 28.0924L25.9041 28.9424Z" fill="#192C85"/>
<path d="M23.2568 14.7383C23.4888 14.9093 23.7188 15.0873 23.9258 15.2943C23.9268 15.2943 23.9268 15.2943 23.9268 15.2953C23.9278 15.2953 23.9278 15.2953 23.9288 15.2963C24.1358 15.5033 24.3138 15.7333 24.4848 15.9653C25.1498 16.8713 25.5548 17.9553 25.6408 19.1683C25.6868 19.8133 26.2488 20.3013 26.8948 20.2563C27.5408 20.2113 28.0108 19.6543 27.9858 19.0103L27.9848 19.0043C27.9478 18.4823 27.8688 17.9743 27.7488 17.4843C27.3868 16.0113 26.6558 14.6993 25.5898 13.6353L25.5888 13.6343H25.5878C24.5238 12.5673 23.2118 11.8373 21.7378 11.4743C21.2478 11.3543 20.7408 11.2743 20.2178 11.2383L20.2118 11.2373C19.5678 11.2123 19.0108 11.6813 18.9658 12.3283C18.9208 12.9743 19.4088 13.5363 20.0538 13.5823C21.2658 13.6683 22.3498 14.0733 23.2568 14.7383Z" fill="#192C85"/>
</svg>
