<svg width="40" height="40" viewBox="0 0 40 40" fill="none" xmlns="http://www.w3.org/2000/svg">
<path d="M20.5718 22.9375L30.733 14.2675V26.8565C30.733 27.2201 30.4324 27.5183 30.0592 27.5183H9.94054C9.56735 27.5183 9.26673 27.2201 9.26673 26.8565V14.2675L19.4279 22.9375L19.428 22.9376C19.5927 23.0778 19.7965 23.1474 19.9999 23.1474C20.2032 23.1474 20.4071 23.0779 20.5718 22.9376L20.5718 22.9375ZM30.0592 10.7584H9.94054C8.60669 10.7584 7.51914 11.8269 7.51914 13.1439V26.8565C7.51914 28.1735 8.60669 29.242 9.94054 29.242H30.0592C31.3931 29.242 32.4806 28.1735 32.4806 26.8565V13.1439C32.4806 11.8269 31.3931 10.7584 30.0592 10.7584ZM30.0592 12.482C30.0889 12.482 30.1182 12.484 30.1469 12.4878L19.9999 21.1461L9.85281 12.4878C9.88153 12.484 9.91079 12.482 9.94049 12.482H30.0592Z" fill="#192C85" stroke="#192C85" stroke-width="0.2"/>
</svg>
