<svg width="122" height="122" viewBox="0 0 122 122" fill="none" xmlns="http://www.w3.org/2000/svg">
<path fill-rule="evenodd" clip-rule="evenodd" d="M39.7384 37.5729C35.5776 41.5089 32.5279 46.6 31.1147 52.3106L27.1943 51.3404C28.7989 44.8564 32.2576 39.0901 36.9629 34.6389L39.7384 37.5729Z" fill="#6687CC"/>
<path fill-rule="evenodd" clip-rule="evenodd" d="M89.9188 52.4693C88.6568 47.2474 86.028 42.5373 82.4308 38.7457L85.3608 35.966C89.4295 40.2547 92.4115 45.591 93.8446 51.5205L89.9188 52.4693Z" fill="#6687CC"/>
<path fill-rule="evenodd" clip-rule="evenodd" d="M91.2602 99.1149V75.5748H95.2989V100.797C95.2989 102.098 94.2429 103.154 92.9419 103.154H29.0577C27.7567 103.154 26.7007 102.098 26.7007 100.797V76.0563H30.7394V99.1149H91.2602Z" fill="#6687CC"/>
<path fill-rule="evenodd" clip-rule="evenodd" d="M31.191 99.1151H90.8082V108.565H31.191V99.1151ZM35.2298 103.154V104.526H86.7695V103.154H35.2298Z" fill="#6687CC"/>
<path fill-rule="evenodd" clip-rule="evenodd" d="M89.0959 54.5097H106.355V57.2022H89.0959V54.5097Z" fill="#6687CC"/>
<path fill-rule="evenodd" clip-rule="evenodd" d="M89.0959 69.9683H106.355V72.6608H89.0959V69.9683Z" fill="#6687CC"/>
<path fill-rule="evenodd" clip-rule="evenodd" d="M87.7496 50.067H101.736L107.701 55.2416V71.9288L101.736 77.1035H87.7496V50.067ZM90.4421 52.7595V74.411H100.731L105.008 70.7002V56.4703L100.731 52.7595H90.4421Z" fill="#6687CC"/>
<path fill-rule="evenodd" clip-rule="evenodd" d="M32.9038 57.2022H15.6451V54.5097H32.9038V57.2022Z" fill="#6687CC"/>
<path fill-rule="evenodd" clip-rule="evenodd" d="M32.9038 72.6608H15.6451V69.9683H32.9038V72.6608Z" fill="#6687CC"/>
<path fill-rule="evenodd" clip-rule="evenodd" d="M20.2632 50.067H34.25V77.1035H20.2632L14.2988 71.9288V55.2416L20.2632 50.067ZM21.2684 52.7595L16.9913 56.4702V70.7002L21.2684 74.411H31.5575V52.7595H21.2684Z" fill="#6687CC"/>
<path fill-rule="evenodd" clip-rule="evenodd" d="M36.7253 27.8251H85.2744V87.2675H36.7253V27.8251ZM39.4178 30.5176V84.575H82.5819V30.5176H39.4178Z" fill="#6687CC"/>
<path fill-rule="evenodd" clip-rule="evenodd" d="M36.7253 27.8251H85.2744V40.2295H36.7253V27.8251ZM39.4178 30.5176V37.537H82.5819V30.5176H39.4178Z" fill="#6687CC"/>
<path fill-rule="evenodd" clip-rule="evenodd" d="M59.1894 17.4738C49.5853 17.4738 41.4534 23.7991 38.7421 32.516L34.8856 31.3165C38.1071 20.9591 47.7669 13.4351 59.1894 13.4351H62.9255C74.2037 13.4351 83.7634 20.7704 87.104 30.9249L83.2675 32.187C80.4558 23.64 72.4081 17.4738 62.9255 17.4738H59.1894Z" fill="#6687CC"/>
<path fill-rule="evenodd" clip-rule="evenodd" d="M48.3086 68.6312C47.6843 68.6312 47.1782 69.1372 47.1782 69.7615C47.1782 70.3858 47.6843 70.8919 48.3086 70.8919C48.9329 70.8919 49.439 70.3858 49.439 69.7615C49.439 69.1372 48.9329 68.6312 48.3086 68.6312ZM44.4857 69.7615C44.4857 67.6502 46.1973 65.9387 48.3086 65.9387C50.4199 65.9387 52.1315 67.6502 52.1315 69.7615C52.1315 71.8728 50.4199 73.5844 48.3086 73.5844C46.1973 73.5844 44.4857 71.8728 44.4857 69.7615Z" fill="#6687CC"/>
<path fill-rule="evenodd" clip-rule="evenodd" d="M48.3086 45.526C47.6843 45.526 47.1782 46.0321 47.1782 46.6564C47.1782 47.2807 47.6843 47.7868 48.3086 47.7868C48.9329 47.7868 49.439 47.2807 49.439 46.6564C49.439 46.0321 48.9329 45.526 48.3086 45.526ZM44.4857 46.6564C44.4857 44.5451 46.1973 42.8335 48.3086 42.8335C50.4199 42.8335 52.1315 44.5451 52.1315 46.6564C52.1315 48.7677 50.4199 50.4793 48.3086 50.4793C46.1973 50.4793 44.4857 48.7677 44.4857 46.6564Z" fill="#6687CC"/>
<path fill-rule="evenodd" clip-rule="evenodd" d="M48.3086 55.3755C46.7437 55.3755 45.4751 56.6441 45.4751 58.209C45.4751 59.7738 46.7437 61.0424 48.3086 61.0424C49.8735 61.0424 51.1421 59.7738 51.1421 58.209C51.1421 56.6441 49.8735 55.3755 48.3086 55.3755ZM42.7826 58.209C42.7826 55.157 45.2567 52.683 48.3086 52.683C51.3605 52.683 53.8346 55.157 53.8346 58.209C53.8346 61.2609 51.3605 63.7349 48.3086 63.7349C45.2567 63.7349 42.7826 61.2609 42.7826 58.209Z" fill="#6687CC"/>
<path fill-rule="evenodd" clip-rule="evenodd" d="M68.9435 48.9452C63.4322 48.9452 58.9645 53.413 58.9645 58.9243C58.9645 64.4355 63.4322 68.9033 68.9435 68.9033C74.4548 68.9033 78.9226 64.4355 78.9226 58.9243C78.9226 53.413 74.4548 48.9452 68.9435 48.9452ZM56.272 58.9243C56.272 51.926 61.9452 46.2527 68.9435 46.2527C75.9418 46.2527 81.6151 51.926 81.6151 58.9243C81.6151 65.9226 75.9418 71.5958 68.9435 71.5958C61.9452 71.5958 56.272 65.9226 56.272 58.9243Z" fill="#6687CC"/>
<path fill-rule="evenodd" clip-rule="evenodd" d="M68.9435 53.8982C66.1677 53.8982 63.9175 56.1485 63.9175 58.9243C63.9175 61.7 66.1677 63.9503 68.9435 63.9503C71.7193 63.9503 73.9695 61.7 73.9695 58.9243C73.9695 56.1485 71.7193 53.8982 68.9435 53.8982ZM61.225 58.9243C61.225 54.6614 64.6807 51.2057 68.9435 51.2057C73.2063 51.2057 76.662 54.6614 76.662 58.9243C76.662 63.1871 73.2063 66.6428 68.9435 66.6428C64.6807 66.6428 61.225 63.1871 61.225 58.9243Z" fill="#6687CC"/>
<path fill-rule="evenodd" clip-rule="evenodd" d="M68.8855 57.6199C68.314 57.6199 67.8507 58.0831 67.8507 58.6546H65.1583C65.1583 56.5961 66.827 54.9274 68.8855 54.9274V57.6199Z" fill="#6687CC"/>
<path fill-rule="evenodd" clip-rule="evenodd" d="M84.2418 80.6279H38.2952V77.9354H84.2418V80.6279Z" fill="#6687CC"/>
</svg>
