<svg width="25" height="25" viewBox="0 0 25 25" fill="none" xmlns="http://www.w3.org/2000/svg">
<path d="M7.83327 11.892C8.72216 11.5933 9.41105 11.1026 9.89994 10.42C10.3888 9.73731 10.6333 8.90531 10.6333 7.92398C10.6333 6.64398 10.211 5.59865 9.3666 4.78798C8.52216 3.97731 7.47771 3.57198 6.23327 3.57198C4.94438 3.57198 3.87771 3.97731 3.03327 4.78798C2.18883 5.64131 1.7666 6.68664 1.7666 7.92398C1.7666 8.52131 1.83327 9.11864 1.9666 9.71598C2.14438 10.356 2.47771 11.2733 2.9666 12.468L6.09994 21.428L10.2999 21.428L7.83327 11.892ZM20.4333 11.892C21.3222 11.5933 22.011 11.1026 22.4999 10.42C22.9888 9.73731 23.2333 8.90531 23.2333 7.92398C23.2333 6.64398 22.8111 5.59865 21.9666 4.78798C21.1222 3.97731 20.0777 3.57198 18.8333 3.57198C17.5444 3.57198 16.4777 3.97731 15.6333 4.78798C14.7888 5.64131 14.3666 6.68665 14.3666 7.92398C14.3666 8.52131 14.4333 9.11864 14.5666 9.71598C14.7444 10.356 15.0777 11.2733 15.5666 12.468L18.6999 21.428L22.8999 21.428L20.4333 11.892Z" fill="white"/>
</svg>
