<svg width="549" height="551" viewBox="0 0 549 551" fill="none" xmlns="http://www.w3.org/2000/svg">
<circle opacity="0.5" cx="273" cy="274.336" r="187.095" fill="#4669B1"/>
<path d="M215.356 263.325C221.49 264.325 226.19 266.625 229.456 270.225C232.723 273.758 234.356 278.158 234.356 283.425C234.356 287.491 233.29 291.258 231.156 294.725C229.023 298.125 225.756 300.858 221.356 302.925C217.023 304.991 211.69 306.025 205.356 306.025C200.423 306.025 195.556 305.391 190.756 304.125C186.023 302.791 181.99 300.925 178.656 298.525L184.956 286.125C187.623 288.125 190.69 289.691 194.156 290.825C197.69 291.891 201.29 292.425 204.956 292.425C209.023 292.425 212.223 291.658 214.556 290.125C216.89 288.525 218.056 286.291 218.056 283.425C218.056 277.691 213.69 274.825 204.956 274.825H197.556V264.125L211.956 247.825H182.156V234.825H231.156V245.325L215.356 263.325ZM274.036 260.925C278.503 260.925 282.569 261.825 286.236 263.625C289.903 265.425 292.803 267.991 294.936 271.325C297.069 274.591 298.136 278.391 298.136 282.725C298.136 287.391 296.969 291.491 294.636 295.025C292.303 298.558 289.103 301.291 285.036 303.225C281.036 305.091 276.569 306.025 271.636 306.025C261.836 306.025 254.169 303.025 248.636 297.025C243.103 291.025 240.336 282.458 240.336 271.325C240.336 263.391 241.836 256.591 244.836 250.925C247.836 245.258 252.003 240.958 257.336 238.025C262.736 235.091 268.969 233.625 276.036 233.625C279.769 233.625 283.336 234.058 286.736 234.925C290.203 235.725 293.136 236.891 295.536 238.425L289.536 250.325C286.069 247.991 281.703 246.825 276.436 246.825C270.503 246.825 265.803 248.558 262.336 252.025C258.869 255.491 257.003 260.525 256.736 267.125C260.869 262.991 266.636 260.925 274.036 260.925ZM270.736 293.925C274.203 293.925 277.003 292.991 279.136 291.125C281.336 289.258 282.436 286.725 282.436 283.525C282.436 280.325 281.336 277.791 279.136 275.925C277.003 273.991 274.136 273.025 270.536 273.025C267.003 273.025 264.103 274.025 261.836 276.025C259.569 277.958 258.436 280.458 258.436 283.525C258.436 286.591 259.536 289.091 261.736 291.025C263.936 292.958 266.936 293.925 270.736 293.925ZM332.508 306.025C326.708 306.025 321.541 304.591 317.008 301.725C312.475 298.858 308.908 294.725 306.308 289.325C303.775 283.858 302.508 277.358 302.508 269.825C302.508 262.291 303.775 255.825 306.308 250.425C308.908 244.958 312.475 240.791 317.008 237.925C321.541 235.058 326.708 233.625 332.508 233.625C338.308 233.625 343.475 235.058 348.008 237.925C352.541 240.791 356.075 244.958 358.608 250.425C361.208 255.825 362.508 262.291 362.508 269.825C362.508 277.358 361.208 283.858 358.608 289.325C356.075 294.725 352.541 298.858 348.008 301.725C343.475 304.591 338.308 306.025 332.508 306.025ZM332.508 292.325C336.775 292.325 340.108 290.491 342.508 286.825C344.975 283.158 346.208 277.491 346.208 269.825C346.208 262.158 344.975 256.491 342.508 252.825C340.108 249.158 336.775 247.325 332.508 247.325C328.308 247.325 324.975 249.158 322.508 252.825C320.108 256.491 318.908 262.158 318.908 269.825C318.908 277.491 320.108 283.158 322.508 286.825C324.975 290.491 328.308 292.325 332.508 292.325Z" fill="white"/>
<circle cx="375.516" cy="222.554" r="6.75974" stroke="white" stroke-width="4"/>
<path fill-rule="evenodd" clip-rule="evenodd" d="M273 0.401855C255.342 0.401855 241.118 14.7537 241.118 32.5699C241.118 50.386 255.342 64.738 273 64.738C290.658 64.738 304.882 50.386 304.882 32.5699C304.882 14.7537 290.658 0.401855 273 0.401855ZM273 59.9538C257.958 59.9538 245.696 47.5816 245.696 32.4049C245.696 17.2282 257.958 4.85591 273 4.85591C288.042 4.85591 300.304 17.2282 300.304 32.4049C300.304 47.7466 288.205 59.9538 273 59.9538ZM276.272 35.0439H283.139H284.283H287.226H290.169C291.477 35.0439 293.766 35.0439 295.074 33.7242C296.218 32.5695 296.382 30.7549 296.382 29.7651V25.3111C296.218 23.4964 295.891 22.1768 294.91 21.3519C293.602 20.0322 291.314 20.0322 290.006 20.0322H274.637H271.367H255.671C254.363 20.0322 252.074 20.0322 250.766 21.3519C249.74 22.3867 249.502 23.9514 249.346 24.9776C249.328 25.0965 249.311 25.2083 249.294 25.3111H269.568V29.7651H255.507C254.199 29.7651 251.91 29.7651 250.602 31.0848C249.559 32.1372 249.331 33.6007 249.175 34.601C249.168 34.6473 249.161 34.6925 249.154 34.7367C249.146 34.7855 249.138 34.8329 249.131 34.879V39.333C249.294 41.1476 249.621 42.4673 250.602 43.2922C251.91 44.6119 254.199 44.6119 255.507 44.6119H271.203H274.473H289.842C291.15 44.6119 293.439 44.6119 294.747 43.2922C295.891 42.1374 296.055 40.3228 296.055 39.333H275.781V35.0439H276.272ZM276.272 25.3111H291.314V29.7651H283.139H276.108V25.3111H276.272ZM269.895 39.6629H254.853V35.2089H269.895V39.6629ZM361.356 44.7364L362.334 42.1945L352.753 38.6749L351.775 41.2168L361.356 44.7364ZM381.105 53.5351L382.278 51.1887L373.088 46.8871L371.915 49.2334L381.105 53.5351ZM401.44 61.7473L400.072 64.0937L391.273 59.0099L392.642 56.6636L401.44 61.7473ZM417.865 68.2001L424.904 58.8146L421.971 56.4683L405.351 78.5632L408.48 80.9096L423.731 75.2392C427.25 73.8705 430.574 72.5017 433.507 70.9375V71.133C431.758 73.0287 430.225 75.0332 428.424 77.3897L428.424 77.3899C427.81 78.1931 427.164 79.0372 426.468 79.9319L419.429 89.3174L422.167 91.2727L438.787 69.1777L435.854 67.0269L420.211 73.0883C419.509 73.4005 418.822 73.7049 418.149 74.003L418.111 74.0201L418.1 74.0247L418.1 74.0249L418.096 74.0268L418.095 74.0271C415.418 75.2136 412.962 76.3018 410.63 77.39C412.977 74.457 415.128 71.7196 417.865 68.2001ZM459.122 87.7529L442.111 105.742L443.871 107.501L437.223 114.149L435.267 112.194L439.569 107.11L426.859 95.183L422.167 99.8757L420.211 97.9204L426.468 90.8814L428.033 92.2501C429.988 91.6635 432.139 90.8814 434.094 89.7082C437.027 87.9484 439.764 85.6021 443.089 82.0825L447.977 76.9987L459.122 87.7529ZM444.653 85.4065C441.524 88.7305 438.787 91.0769 435.854 92.6412C434.094 93.6188 432.139 94.4009 430.575 94.9875L439.569 103.395L454.429 87.5574L448.172 81.6914L444.653 85.4065ZM456.58 106.72L463.619 114.736L465.574 112.781L458.535 104.764L465.183 98.8984L472.613 107.502L474.96 105.546L465.183 94.4012L444.457 112.585L454.82 124.317L457.167 122.362L449.15 113.368L456.58 106.72ZM455.798 125.49C456.579 125.295 457.556 125.1 458.533 124.904L458.535 124.904C459.274 124.687 460.022 124.44 460.774 124.193L460.775 124.193C463.405 123.327 466.074 122.449 468.507 122.753C469.485 122.949 470.267 123.34 471.049 123.731H471.245C469.681 120.602 470.072 117.083 473.2 114.736C475.155 113.368 477.306 112.977 479.262 113.368C481.412 113.954 483.563 115.714 485.714 118.451C487.083 120.407 488.451 122.362 489.233 124.122L467.139 140.351L464.988 137.418L474.569 130.379L473.005 128.228C472.027 126.859 470.854 126.077 469.485 125.882C467.461 125.592 464.903 126.479 462.6 127.277C461.789 127.558 461.009 127.829 460.295 128.032C460.25 128.044 460.205 128.055 460.161 128.066L460.034 128.099L459.908 128.132C459.306 128.289 458.792 128.423 458.144 128.423L455.798 125.49ZM484.736 122.949C484.541 122.362 483.954 121.384 482.977 120.016C480.826 117.083 478.088 115.518 474.96 117.865C472.222 119.82 472.418 123.34 474.764 126.468C475.134 126.93 475.459 127.392 475.742 127.792L475.742 127.792C476.057 128.239 476.318 128.608 476.524 128.815L484.736 122.949ZM486.887 154.82L489.233 153.451L484.15 144.652L481.803 146.021L486.887 154.82ZM499.01 173.004L496.663 174.177L492.362 164.988L494.708 163.814L499.01 173.004ZM504.485 194.122L507.027 193.144L503.507 183.563L500.965 184.541L504.485 194.122ZM530.686 222.278L503.703 228.731L502.921 225.211L526.971 219.541L524.038 207.027L499.988 212.697L499.206 209.178L526.189 202.725L530.686 222.278ZM533.032 237.139C532.641 234.401 532.25 232.25 531.663 230.491L504.68 234.01L505.071 237.53L516.021 235.966C516.021 236.943 516.021 237.921 516.216 238.898C516.607 242.418 518.172 245.351 520.323 246.915C521.887 248.088 523.842 248.675 526.384 248.284C528.926 248.088 530.686 246.915 531.859 245.155C533.032 243.396 533.423 240.658 533.032 237.139ZM519.1 238.41C518.924 237.366 518.775 236.486 518.954 235.77L529.708 234.206L529.708 234.206C529.904 234.793 530.295 235.966 530.49 237.53C531.077 241.44 529.708 244.178 525.993 244.764C522.082 245.351 519.736 243.004 519.149 238.703L519.13 238.59L519.1 238.41ZM522.083 278.004C512.502 278.395 507.418 272.725 507.027 265.686C506.832 258.451 512.306 252.976 520.714 252.781C529.513 252.585 535.379 257.669 535.574 265.099C535.966 272.529 530.295 277.613 522.083 278.004ZM521.105 256.496C515.239 256.691 509.96 260.016 510.155 265.686C510.351 271.356 515.63 274.289 521.887 274.094C527.362 273.898 533.032 270.77 532.837 264.904C532.641 259.038 527.167 256.3 521.105 256.496ZM520.518 286.608L519.736 297.362L522.669 297.558L523.451 286.803L532.25 287.39L531.468 298.731L534.401 298.926L535.379 284.066L507.809 282.306L506.831 297.753L509.764 297.949L510.546 286.021L520.518 286.608ZM533.032 309.485L520.91 307.529L520.714 308.702L531.468 319.848L530.882 324.149L519.932 311.831C518.563 316.328 515.63 317.501 511.72 318.479C510.926 318.638 510.147 318.782 509.382 318.924L509.377 318.925L509.373 318.925C507.314 319.307 505.359 319.669 503.507 320.239L504.094 316.328C505.928 315.595 508.277 315.205 510.497 314.837L510.938 314.764C514.653 313.982 517.39 312.613 518.172 308.116L518.368 306.943L505.854 304.987L506.44 301.468L533.815 305.574L533.032 309.485ZM526.971 327.278L525.016 335.49L501.161 329.429L500.379 332.948L524.234 339.01L522.083 347.222L525.016 348.004L529.904 328.06L526.971 327.278ZM503.507 363.646L500.965 362.669L504.485 353.088L507.027 354.065L503.507 363.646ZM492.362 382.417L494.708 383.591L499.01 374.401L496.663 373.227L492.362 382.417ZM484.15 402.557L481.803 401.188L486.887 392.389L489.233 393.758L484.15 402.557ZM455.016 422.697L477.111 439.317L489.038 423.088L466.943 406.468L464.792 409.401L484.541 424.261L476.915 434.624L457.166 419.764L455.016 422.697ZM471.44 445.378C470.462 446.942 469.094 448.702 467.138 450.853C464.792 453.395 462.446 454.764 460.295 454.959C458.34 455.155 456.189 454.568 454.429 452.808C452.669 451.049 451.691 449.289 451.496 447.333C451.3 444.596 452.669 441.663 455.016 439.121C455.217 438.919 455.406 438.717 455.589 438.522C456.114 437.961 456.586 437.456 457.166 437.166L448.954 429.736L451.3 427.194L471.44 445.378ZM459.317 439.121C458.731 439.512 457.948 440.294 457.166 441.076C454.233 444.205 454.038 447.529 456.775 450.266C459.513 452.808 462.446 452.026 465.183 449.093C466.161 447.92 466.943 446.942 467.334 446.356L459.317 439.121ZM428.815 449.289C423.535 453.981 422.753 461.607 429.01 468.646C434.485 474.708 441.915 475.685 447.586 470.797C453.06 465.909 453.256 458.088 447.39 451.439C441.915 445.183 434.289 444.4 428.815 449.289ZM430.574 451.439C434.876 447.724 440.742 449.484 444.653 453.981C448.759 458.479 450.127 464.54 445.63 468.451C441.133 472.361 435.267 470.015 431.552 465.909C427.446 461.216 426.273 455.155 430.574 451.439ZM429.597 484.875L422.949 475.294C420.407 471.775 418.452 468.647 416.497 465.519L416.496 465.518C416.91 467.726 417.13 470.13 417.36 472.66L417.361 472.662L417.361 472.665C417.457 473.717 417.555 474.79 417.669 475.881L418.647 492.696L415.714 494.847L399.681 472.361L402.418 470.406L409.262 479.987C409.792 480.763 410.298 481.496 410.781 482.197C412.612 484.854 414.126 487.052 415.519 489.372H415.714C415.128 486.048 414.737 482.333 414.541 478.814L413.759 462.585L416.887 460.434L432.921 482.92L429.597 484.875ZM403.2 502.669C405.742 501.104 407.502 499.149 408.479 497.194L406.524 495.63C405.742 497.194 404.178 499.149 402.418 500.127C399.876 501.496 397.334 501.104 395.966 498.758C394.597 496.216 395.966 492.892 399.094 491.132L400.463 490.35L399.094 488.004L397.725 488.786C394.597 490.546 390.686 491.328 388.535 487.808C386.971 485.267 387.949 482.138 391.468 480.183C393.424 479.205 395.966 478.619 397.725 478.619L397.139 475.686C394.597 475.49 392.055 476.468 389.904 477.641C385.602 480.183 382.278 484.484 385.211 489.568C387.167 493.088 390.882 493.87 394.401 492.306C392.055 494.456 391.077 497.976 392.837 500.909C394.988 504.429 399.094 505.015 403.2 502.669ZM388.926 509.512C387.558 510.49 385.602 511.663 383.256 512.836C379.932 514.4 377.586 514.792 375.435 514.205C373.675 513.814 372.306 512.641 371.329 510.685C370.156 508.339 370.742 505.406 373.088 503.255C370.351 503.842 366.636 503.06 365.072 499.345C364.094 497.194 364.094 495.238 364.876 493.283C365.854 490.937 368.396 488.786 372.502 487.026C374.653 486.048 376.608 485.266 377.586 485.071L388.926 509.512ZM375.435 488.786C374.653 488.981 373.871 489.372 372.697 489.959C369.373 491.523 366.832 494.065 368.396 497.78C369.96 501.3 373.48 501.3 377.195 499.736L379.932 498.562L375.435 488.786ZM381.105 500.713L378.172 502.082C374.653 503.646 373.48 506.384 374.653 508.73C376.021 511.663 378.759 511.859 382.083 510.294L382.084 510.294C383.647 509.512 384.429 509.121 384.82 508.73L381.105 500.713ZM347.865 496.607C341.217 498.953 337.306 505.601 340.435 514.596C342.977 522.222 349.625 526.132 356.664 523.981C363.508 521.439 366.832 514.4 364.094 505.992C361.552 497.976 354.709 494.261 347.865 496.607ZM348.647 499.344C353.927 497.585 358.619 501.495 360.575 507.166C362.53 512.836 361.552 519.093 355.882 520.853C350.211 522.808 345.714 518.311 343.954 513.031C341.999 507.166 343.368 501.104 348.647 499.344ZM320.491 532.976L315.016 508.73L312.669 509.121L310.91 499.736L313.647 499.149L315.407 505.602L332.418 501.887L331.245 495.434L333.982 494.848L336.329 504.038L334.373 504.624L334.373 504.624C333.787 506.775 333.2 508.926 333.005 511.077C332.809 514.401 333.2 518.116 334.178 522.808L335.742 529.652L320.491 532.976ZM330.463 522.222C329.485 517.92 329.094 514.205 329.29 510.881C329.485 508.926 329.876 506.971 330.267 505.211L318.34 507.948L323.033 529.261L331.44 527.306L330.463 522.222ZM296.636 507.948C293.312 508.339 290.77 509.316 289.597 510.099L290.574 513.031C291.943 512.249 294.094 511.467 296.245 511.272C302.893 510.49 307.39 514.4 308.172 521.048C308.954 528.087 305.239 532.78 298.787 533.562C296.44 533.953 294.485 533.758 293.116 533.171L292.53 536.104C293.507 536.495 295.658 536.886 299.178 536.495C307.781 535.322 312.865 528.869 311.887 520.266C310.714 511.272 304.457 506.97 296.636 507.948ZM279.429 534.149L287.837 533.954V537.082L267.306 537.473V534.345L275.714 534.149L275.127 509.512H278.647L279.429 534.149ZM256.161 537.082C258.507 537.278 261.049 537.082 262.614 536.887L264.569 509.903C263.396 509.512 261.636 509.317 259.094 509.121C254.597 508.73 251.273 509.512 249.317 511.077C247.753 512.445 246.776 514.205 246.58 516.552C246.385 520.658 249.317 523.004 251.859 523.786C248.926 524.568 246.971 526.719 246.776 529.456C246.58 531.607 247.362 533.367 248.731 534.54C250.295 536.104 252.642 536.887 256.161 537.082ZM259.192 511.844H259.192C259.74 511.898 260.229 511.947 260.658 512.054L260.072 522.613L257.139 522.417C253.228 522.026 250.1 520.267 250.295 516.552C250.491 512.641 254.01 511.468 257.725 511.663C258.254 511.751 258.742 511.8 259.191 511.844L259.192 511.844ZM256.552 525.155L259.876 525.35L259.29 534.345C259.129 534.345 258.939 534.359 258.715 534.377L258.714 534.377H258.713C258.121 534.423 257.295 534.487 256.161 534.345C252.446 534.149 250.1 532.781 250.295 529.456C250.491 526.719 252.837 524.959 256.552 525.155ZM217.446 518.116C219.011 508.73 225.659 504.624 232.502 505.797C239.737 506.97 243.843 513.423 242.474 521.635C241.106 530.238 234.653 535.127 227.418 533.758C219.988 532.78 216.078 526.132 217.446 518.116ZM238.759 521.244C239.737 515.378 237.391 509.708 231.916 508.73C226.245 507.753 222.335 512.445 221.161 518.507C220.184 523.982 222.139 530.043 228.005 531.021C233.871 532.194 237.782 527.305 238.759 521.244ZM197.111 507.948L196.329 510.49L206.106 513.423L206.888 510.881L197.111 507.948ZM175.994 502.864L176.971 500.322L186.357 504.037L185.379 506.579L175.994 502.864ZM157.418 491.328L156.245 493.674L165.24 498.172L166.413 495.825L157.418 491.328ZM132.977 497.976L139.43 488.2C141.776 484.485 143.927 481.552 146.078 478.619C143.34 480.183 140.212 481.747 136.693 483.507L136.692 483.507L121.441 490.546L118.508 488.591L133.759 465.518L136.497 467.278L130.044 477.054C129.445 477.93 128.889 478.751 128.362 479.531L128.361 479.532L128.361 479.532C126.651 482.06 125.235 484.152 123.592 486.244V486.44C126.329 484.68 129.653 482.92 132.977 481.552L147.837 474.904L150.966 477.054L135.714 500.127L132.977 497.976ZM120.268 453.786C117.726 451.831 115.184 450.657 113.815 450.266L112.642 453.004C114.206 453.395 116.162 454.372 117.921 455.741C123.201 460.043 123.396 465.909 119.095 471.188C114.402 476.859 108.536 477.25 103.452 473.143C101.692 471.579 100.519 470.015 99.9326 468.646L97.3906 470.406C97.7817 471.384 98.9549 473.339 101.692 475.49C108.34 480.769 116.553 479.987 122.027 473.339C127.698 466.3 126.329 458.674 120.268 453.786ZM77.8374 452.417L97.3904 432.864L99.9324 435.406L82.3346 452.809L91.329 461.998L108.927 444.596L111.469 447.138L91.9156 466.691L77.8374 452.417ZM78.8152 409.987L57.1113 426.998L59.2622 429.931L80.9661 412.92L78.8152 409.987ZM78.0331 436.775L69.8208 443.227L71.9716 445.769L93.6755 428.758C93.0889 427.78 92.1113 426.216 90.547 424.261C88.2007 421.328 85.2677 418.981 81.9437 418.59C79.9884 418.395 78.0331 418.981 76.0778 420.546C71.1895 424.261 72.3627 429.736 75.8823 434.233C76.4688 435.015 77.4465 436.188 78.0331 436.775ZM89.0077 427.194L89.0083 427.195L89.0085 427.195C89.1375 427.408 89.2557 427.603 89.3738 427.78L80.184 435.21L80.1838 435.21C79.7926 434.819 79.0107 434.037 78.2286 433.06C76.0778 430.127 75.1002 426.216 78.4242 423.479C81.7482 420.937 85.4633 422.305 87.8096 425.434C88.3549 426.115 88.7101 426.702 89.0077 427.194ZM52.0276 413.702L56.5248 420.741L53.9829 422.306L43.0332 404.904L45.5751 403.339L50.0723 410.574L70.994 397.473L72.9493 400.602L52.0276 413.702ZM66.1057 389.652L57.1113 391.216L52.6141 382.417L58.8711 375.769L57.1113 372.445L36.9717 393.563L38.927 397.473L67.8655 392.976L66.1057 389.652ZM44.5974 390.434L50.4633 384.373L54.1783 391.412L45.7705 392.78L45.7665 392.781C44.0081 393.172 42.2498 393.563 40.6867 393.954C42.0551 392.976 43.2281 391.803 44.5964 390.435L44.597 390.434L44.5974 390.434ZM28.7594 376.16L39.5136 371.859L34.6253 359.345L23.8711 363.646L22.5024 360.322L48.3124 350.155L49.6812 353.479L37.5582 358.172L42.4465 370.686L54.5694 365.993L55.9382 369.317L30.1281 379.484L28.7594 376.16ZM30.3238 346.049L18.983 348.982L19.7652 352.697L46.5528 345.462L45.5752 341.747L30.1283 336.859C26.6087 335.881 23.0892 334.904 19.7652 334.317V334.121C23.2847 333.535 26.4132 332.753 30.7148 331.58L42.0556 328.451L41.2735 325.127L14.4858 332.362L15.4635 335.881L31.497 340.77C32.3804 341.002 33.2417 341.234 34.0835 341.462C36.7818 342.19 39.28 342.864 41.6646 343.311C38.145 344.094 34.6255 344.876 30.3238 346.049ZM40.6866 321.999C40.3698 321.92 40.0208 321.808 39.6528 321.691L39.6522 321.691C39.112 321.518 38.5306 321.333 37.9492 321.217C37.2981 321.102 36.6246 321.002 35.9432 320.901C33.1458 320.486 30.2167 320.052 28.1727 318.479C27.3906 317.893 26.804 317.111 26.4129 316.524H26.2174C26.2174 320.043 24.2621 322.976 20.547 323.563C18.2007 323.954 16.0498 323.367 14.6811 321.999C13.1169 320.435 11.9437 317.893 11.3571 314.569C10.966 312.222 10.7705 309.876 10.7705 307.921L37.7537 303.619L38.3403 307.138L26.4129 309.094L26.804 311.636C26.9995 313.395 27.5861 314.569 28.7593 315.351C30.5414 316.647 33.6658 317.003 36.3531 317.31L36.3584 317.31C36.9125 317.374 37.448 317.435 37.9492 317.502C38.1914 317.562 38.4148 317.604 38.6311 317.644C39.1134 317.735 39.5601 317.818 40.1001 318.088L40.6866 321.999ZM13.7035 311.049C13.7035 311.636 13.7035 312.809 13.899 314.373C14.4856 317.893 16.2453 320.63 19.9604 320.043C23.2844 319.457 24.6531 316.328 24.0666 312.418L24.0664 312.417C23.8709 311.244 23.6755 310.071 23.48 309.485L13.7035 311.049ZM26.2174 281.719L23.48 281.915L24.0665 292.082L26.804 291.887L26.2174 281.719ZM23.6758 260.211H26.4132L26.0221 270.379H23.2847L23.6758 260.211ZM28.5637 238.898L25.8262 238.507L24.4575 248.479L27.1949 248.87L28.5637 238.898ZM17.8097 201.943L44.7929 208.395L44.0108 211.915L19.9605 206.049L17.0276 218.563L41.0778 224.429L40.2957 227.948L13.3125 221.496L17.8097 201.943ZM50.4633 193.144C52.8097 186.496 50.0723 179.457 41.0779 176.133C33.4522 173.395 26.2175 175.937 23.8711 182.976C21.3293 189.82 24.8488 197.054 33.0611 199.987C40.8823 202.92 47.9214 199.987 50.4633 193.144ZM47.7259 191.971C45.7706 197.25 39.7091 198.423 34.2343 196.468C28.5639 194.317 24.4578 189.82 26.2175 184.149C28.3684 178.479 34.8209 177.697 39.9047 179.652C45.7706 181.803 49.6812 186.691 47.7259 191.971ZM63.9548 159.708C63.9548 161.273 63.3682 163.814 61.9995 166.943C58.48 173.982 51.4409 177.111 43.4241 173.004C35.6029 169.094 33.061 161.273 36.7761 153.647C38.3403 150.518 39.9046 148.954 40.6867 148.368L42.8376 150.518C41.6644 151.496 40.2957 152.865 39.318 155.016C36.3851 160.881 38.3404 166.552 44.7929 169.68C50.8543 172.613 56.5247 171.049 59.4576 164.988C60.4353 163.032 61.0219 160.882 61.0219 159.317L63.9548 159.708ZM44.7928 145.239L49.0945 138.2L70.0163 151.105L71.9716 147.977L51.0498 135.072L55.547 127.837L53.0051 126.273L42.251 143.675L44.7928 145.239ZM71.776 132.725L77.0553 140.155L74.9045 143.088L58.0889 119.038L60.6308 115.518L88.5916 124.317L86.2453 127.446L77.4464 124.708L71.776 132.725ZM74.9045 123.926L66.8877 121.384C65.128 120.798 63.5637 120.211 61.9995 119.625C63.1727 120.993 64.1503 122.362 65.128 123.731L70.0162 130.574L74.9045 123.926ZM74.3174 98.5077C72.7533 100.463 71.1893 102.418 70.4072 103.786L90.5468 121.971C91.5245 121.189 92.8932 119.82 94.4574 118.06C97.5859 114.736 98.9547 111.803 98.9547 109.261C98.9547 107.306 98.1725 105.351 96.4128 103.786C93.2843 101.049 89.5692 101.831 87.4183 103.395C88.5915 100.462 88.005 97.5295 86.0497 95.7698C84.4854 94.401 82.7256 93.8144 80.9659 94.2055C78.6195 94.5965 76.6642 95.7697 74.3178 98.5072L74.3174 98.5077ZM83.5077 106.328L81.3569 108.675L74.7089 102.809C74.7813 102.7 74.8538 102.585 74.9313 102.461L74.9315 102.461L74.9319 102.46L74.9323 102.46C75.2726 101.918 75.7093 101.222 76.6642 100.267C79.0105 97.5295 81.748 96.5519 84.0944 98.7027C86.0497 100.462 86.0496 103.591 83.5077 106.328ZM93.2842 115.518C92.5021 116.496 91.7201 117.278 91.1335 117.669L83.3122 110.63L85.2676 108.479C88.005 105.546 91.329 104.178 94.0664 106.719C96.9994 109.261 95.8261 112.781 93.2842 115.518ZM89.1782 83.4513L97.5859 92.4457L98.3681 91.6636L96.9994 76.2167L100.128 73.2838L101.105 89.7083C104.821 86.9709 108.145 87.9485 111.664 89.7083C112.508 90.13 113.295 90.5518 114.062 90.9621L114.062 90.9622L114.062 90.9623L114.062 90.9624C115.783 91.8835 117.396 92.747 119.29 93.4234L116.552 95.9652C114.597 95.1831 112.251 94.01 110.295 92.8368C106.971 91.077 103.843 90.4904 100.519 93.6189L99.7368 94.401L108.34 103.786L105.407 106.133L86.6362 85.7977L89.1782 83.4513ZM122.809 90.4904L119.876 81.8871L127.698 75.8256L135.323 80.9094L138.452 78.563L114.206 62.334L110.687 64.8759L119.876 92.6413L122.809 90.4904ZM118.312 69.3732L125.351 74.0659L118.899 79.1497L116.161 71.1329C115.817 70.0984 115.404 69.1314 115.004 68.1923C114.723 67.5339 114.448 66.8893 114.206 66.2447C114.302 66.325 114.4 66.4067 114.499 66.4895C115.606 67.4138 116.877 68.4759 118.312 69.3732ZM149.206 57.4457L150.575 59.7921L141.776 65.0714L140.407 62.725L149.206 57.4457ZM169.737 50.0158L168.563 47.6695L159.374 52.1667L160.547 54.5131L169.737 50.0158ZM188.898 39.4571L189.876 41.999L180.295 45.5185L179.317 42.9767L188.898 39.4571Z" fill="white"/>
</svg>
