<svg width="25" height="25" viewBox="0 0 25 25" fill="none" xmlns="http://www.w3.org/2000/svg">
<path d="M16.9797 11.8917C16.1264 11.5931 15.465 11.1024 14.9957 10.4197C14.5264 9.73707 14.2917 8.90507 14.2917 7.92373C14.2917 6.64373 14.697 5.5984 15.5077 4.78773C16.3184 3.97707 17.321 3.57173 18.5157 3.57173C19.753 3.57173 20.777 3.97707 21.5877 4.78773C22.3984 5.64107 22.8037 6.6864 22.8037 7.92373C22.8037 8.52107 22.7397 9.1184 22.6117 9.71573C22.441 10.3557 22.121 11.2731 21.6517 12.4677L18.6437 21.4277L14.6117 21.4277L16.9797 11.8917ZM4.88371 11.8917C4.03038 11.5931 3.36904 11.1024 2.89971 10.4197C2.43038 9.73707 2.19571 8.90506 2.19571 7.92373C2.19571 6.64373 2.60104 5.5984 3.41171 4.78773C4.22238 3.97707 5.22505 3.57173 6.41971 3.57173C7.65705 3.57173 8.68105 3.97707 9.49171 4.78773C10.3024 5.64107 10.7077 6.6864 10.7077 7.92373C10.7077 8.52106 10.6437 9.1184 10.5157 9.71573C10.345 10.3557 10.025 11.2731 9.55571 12.4677L6.54771 21.4277L2.51571 21.4277L4.88371 11.8917Z" fill="white"/>
</svg>
