<svg width="526" height="538" viewBox="0 0 526 538" fill="none" xmlns="http://www.w3.org/2000/svg">
<path fill-rule="evenodd" clip-rule="evenodd" d="M263.2 0.401855C245.542 0.401855 231.318 14.7537 231.318 32.5699C231.318 50.386 245.542 64.738 263.2 64.738C280.858 64.738 295.083 50.386 295.083 32.5699C295.083 14.7537 280.858 0.401855 263.2 0.401855ZM263.2 59.9538C248.158 59.9538 235.896 47.5816 235.896 32.4049C235.896 17.2282 248.158 4.85591 263.2 4.85591C278.242 4.85591 290.505 17.2282 290.505 32.4049C290.505 47.7466 278.406 59.9538 263.2 59.9538ZM266.472 35.044H273.339H274.483H277.426H280.369C281.677 35.044 283.966 35.044 285.274 33.7243C286.419 32.5695 286.582 30.7549 286.582 29.7651V25.3111C286.419 23.4965 286.092 22.1768 285.111 21.352C283.803 20.0323 281.514 20.0322 280.206 20.0322H264.837H261.567H245.871C244.563 20.0322 242.274 20.0323 240.966 21.352C239.94 22.3867 239.703 23.9514 239.547 24.9776C239.529 25.0965 239.512 25.2083 239.495 25.3111H259.768V29.7651H245.708C244.4 29.7651 242.111 29.7651 240.803 31.0848C239.759 32.1373 239.531 33.6007 239.375 34.6011L239.357 34.7195L239.346 34.7862L239.331 34.879V39.3331C239.495 41.1477 239.822 42.4674 240.803 43.2922C242.111 44.6119 244.4 44.6119 245.708 44.6119H261.403H264.673H280.042C281.35 44.6119 283.639 44.6119 284.947 43.2922C286.092 42.1374 286.255 40.3228 286.255 39.3331H265.981V35.044H266.472ZM266.472 25.3111H281.514V29.7651H273.339H266.308V25.3111H266.472ZM260.095 39.6629H245.054V35.209H260.095V39.6629ZM351.557 44.7364L352.534 42.1945L342.953 38.6749L341.976 41.2168L351.557 44.7364ZM372.478 51.1887L371.305 53.5351L362.115 49.2334L363.288 46.8871L372.478 51.1887ZM390.272 64.0937L391.641 61.7473L382.842 56.6636L381.473 59.0099L390.272 64.0937ZM415.104 58.8146L408.065 68.2001C405.328 71.7196 403.177 74.457 400.831 77.39C403.164 76.301 405.622 75.212 408.301 74.0245C408.989 73.7195 409.692 73.408 410.412 73.0883L426.054 67.0269L428.987 69.1777L412.367 91.2727L409.629 89.3173L416.669 79.9319C417.359 79.0443 418 78.2064 418.609 77.4089L418.613 77.4036L418.617 77.3993L418.62 77.3948L418.624 77.3899L418.624 77.3894C420.426 75.033 421.958 73.0287 423.708 71.133V70.9375C420.775 72.5017 417.451 73.8705 413.931 75.2392L398.68 80.9096L395.551 78.5632L412.171 56.4683L415.104 58.8146ZM432.311 105.742L449.322 87.753L438.177 76.9988L433.289 82.0826C429.965 85.6021 427.227 87.9485 424.294 89.7083C422.339 90.8814 420.188 91.6635 418.233 92.2501L416.669 90.8815L410.412 97.9205L412.367 99.8758L417.06 95.1831L429.769 107.11L425.467 112.194L427.423 114.15L434.071 107.502L432.311 105.742ZM426.054 92.6412C428.987 91.077 431.724 88.7306 434.853 85.4066L438.372 81.6915L444.629 87.5574L429.769 103.395L420.775 94.9875C422.339 94.401 424.294 93.6189 426.054 92.6412ZM453.819 114.736L446.78 106.72L439.35 113.368L447.367 122.362L445.02 124.317L434.657 112.585L455.383 94.4011L465.16 105.546L462.814 107.502L455.383 98.8983L448.735 104.764L455.775 112.781L453.819 114.736ZM448.734 124.904C447.757 125.1 446.78 125.295 445.998 125.49L448.344 128.423C448.992 128.423 449.506 128.289 450.108 128.132L450.111 128.131C450.235 128.099 450.362 128.066 450.495 128.032C451.209 127.829 451.989 127.558 452.8 127.277C455.103 126.479 457.661 125.592 459.685 125.882C461.054 126.077 462.227 126.859 463.205 128.228L464.769 130.379L455.188 137.418L457.339 140.351L479.434 124.122C478.652 122.362 477.283 120.407 475.914 118.451C473.763 115.714 471.613 113.954 469.462 113.368C467.506 112.977 465.356 113.368 463.4 114.736C460.272 117.083 459.881 120.602 461.445 123.731H461.249C460.467 123.34 459.685 122.949 458.708 122.753C456.275 122.449 453.605 123.327 450.975 124.193L450.974 124.193L450.972 124.194L450.97 124.194C450.22 124.441 449.473 124.687 448.735 124.904L448.734 124.904ZM473.177 120.016C474.154 121.384 474.741 122.362 474.937 122.949L466.724 128.814C466.518 128.608 466.257 128.239 465.942 127.792L465.942 127.792L465.941 127.79C465.659 127.39 465.333 126.929 464.964 126.468C462.618 123.34 462.423 119.82 465.16 117.865C468.288 115.518 471.026 117.083 473.177 120.016ZM479.434 153.451L477.087 154.82L472.003 146.021L474.35 144.652L479.434 153.451ZM486.864 174.177L489.21 173.004L484.908 163.814L482.562 164.988L486.864 174.177ZM497.227 193.144L494.685 194.122L491.166 184.541L493.707 183.563L497.227 193.144ZM493.903 228.731L520.886 222.278L516.389 202.725L489.406 209.178L490.188 212.697L514.238 207.027L517.171 219.541L493.121 225.211L493.903 228.731ZM521.864 230.49C522.45 232.25 522.841 234.401 523.232 237.139C523.623 240.658 523.232 243.395 522.059 245.155C520.886 246.915 519.126 248.088 516.584 248.284C514.042 248.675 512.087 248.088 510.523 246.915C508.372 245.351 506.808 242.418 506.417 238.898C506.221 237.921 506.221 236.943 506.221 235.966L495.271 237.53L494.88 234.01L521.864 230.49ZM509.154 235.77C508.975 236.486 509.124 237.366 509.3 238.41L509.333 238.602L509.35 238.703C509.936 243.004 512.283 245.351 516.193 244.764C519.908 244.178 521.277 241.44 520.69 237.53C520.495 235.966 520.104 234.793 519.908 234.206L519.908 234.206L509.154 235.77ZM497.227 265.686C497.618 272.725 502.702 278.395 512.283 278.004C520.495 277.613 526.166 272.529 525.775 265.099C525.579 257.669 519.713 252.585 510.914 252.781C502.507 252.976 497.032 258.451 497.227 265.686ZM500.356 265.686C500.16 260.015 505.439 256.691 511.305 256.496C517.367 256.3 522.842 259.038 523.037 264.904C523.233 270.77 517.562 273.898 512.087 274.094C505.831 274.289 500.551 271.356 500.356 265.686ZM509.936 297.362L510.718 286.608L500.746 286.021L499.964 297.949L497.031 297.753L498.009 282.306L525.579 284.066L524.601 298.926L521.668 298.731L522.45 287.39L513.651 286.803L512.869 297.557L509.936 297.362ZM511.11 307.529L523.233 309.485L524.015 305.574L496.64 301.468L496.054 304.987L508.568 306.943L508.372 308.116C507.59 312.613 504.853 313.982 501.138 314.764L500.697 314.837C498.477 315.205 496.128 315.595 494.294 316.328L493.708 320.239C495.559 319.669 497.514 319.307 499.574 318.925L499.577 318.925L499.582 318.924C500.347 318.782 501.126 318.638 501.92 318.479C505.83 317.501 508.763 316.328 510.132 311.831L521.082 324.149L521.668 319.848L510.914 308.702L511.11 307.529ZM515.216 335.49L517.171 327.278L520.104 328.06L515.216 348.004L512.283 347.222L514.434 339.01L490.579 332.948L491.361 329.429L515.216 335.49ZM491.166 362.669L493.707 363.646L497.227 354.065L494.685 353.088L491.166 362.669ZM484.908 383.591L482.562 382.417L486.864 373.227L489.21 374.401L484.908 383.591ZM472.003 401.188L474.35 402.557L479.434 393.758L477.087 392.389L472.003 401.188ZM467.311 439.317L445.216 422.697L447.367 419.764L467.115 434.624L474.741 424.261L454.992 409.401L457.143 406.468L479.238 423.088L467.311 439.317ZM457.339 450.853C459.294 448.702 460.663 446.942 461.64 445.378L441.501 427.194L439.154 429.736L447.367 437.166C446.786 437.456 446.314 437.961 445.789 438.522C445.702 438.615 445.613 438.711 445.521 438.807C445.47 438.86 445.419 438.914 445.366 438.969C445.337 438.998 445.308 439.028 445.279 439.057C445.258 439.078 445.237 439.1 445.216 439.121C442.869 441.663 441.501 444.596 441.696 447.333C441.892 449.289 442.869 451.049 444.629 452.808C446.389 454.568 448.54 455.155 450.495 454.959C452.646 454.764 454.992 453.395 457.339 450.853ZM447.367 441.076C448.149 440.294 448.931 439.512 449.517 439.121L457.534 446.356C457.143 446.942 456.361 447.92 455.383 449.093C452.646 452.026 449.713 452.808 446.976 450.266C444.238 447.529 444.434 444.205 447.367 441.076ZM419.21 468.646C412.953 461.607 413.736 453.981 419.015 449.289C424.49 444.4 432.115 445.183 437.59 451.439C443.456 458.088 443.261 465.909 437.786 470.797C432.115 475.685 424.685 474.708 419.21 468.646ZM434.853 453.981C430.942 449.484 425.076 447.724 420.775 451.439C416.473 455.155 417.646 461.216 421.752 465.909C425.467 470.015 431.333 472.361 435.83 468.451C440.328 464.54 438.959 458.479 434.853 453.981ZM413.149 475.294L419.797 484.875L423.121 482.92L407.088 460.434L403.959 462.585L404.741 478.814C404.937 482.333 405.328 486.048 405.914 489.372H405.719C404.327 487.052 402.812 484.854 400.981 482.197C400.498 481.496 399.993 480.763 399.462 479.987L392.618 470.406L389.881 472.361L405.914 494.847L408.847 492.696L407.87 475.881C407.755 474.79 407.657 473.717 407.561 472.665L407.561 472.662L407.561 472.66C407.33 470.13 407.111 467.726 406.696 465.518L406.697 465.519C408.652 468.647 410.607 471.775 413.149 475.294ZM398.68 497.194C397.702 499.149 395.942 501.105 393.4 502.669C389.294 505.015 385.188 504.429 383.037 500.909C381.277 497.976 382.255 494.457 384.601 492.306C381.082 493.87 377.367 493.088 375.412 489.568C372.479 484.485 375.803 480.183 380.104 477.641C382.255 476.468 384.797 475.49 387.339 475.686L387.926 478.619C386.166 478.619 383.624 479.205 381.669 480.183C378.149 482.138 377.171 485.267 378.736 487.809C380.886 491.328 384.797 490.546 387.926 488.786L389.294 488.004L390.663 490.35L389.294 491.133C386.166 492.892 384.797 496.216 386.166 498.758C387.534 501.105 390.076 501.496 392.618 500.127C394.378 499.149 395.942 497.194 396.724 495.63L398.68 497.194ZM373.456 512.836C375.803 511.663 377.758 510.49 379.127 509.512L367.786 485.071C366.808 485.266 364.853 486.048 362.702 487.026C358.596 488.786 356.054 490.937 355.076 493.283C354.294 495.238 354.294 497.194 355.272 499.345C356.836 503.06 360.551 503.842 363.289 503.255C360.942 505.406 360.356 508.339 361.529 510.685C362.507 512.641 363.875 513.814 365.635 514.205C367.786 514.791 370.132 514.4 373.456 512.836ZM362.898 489.959C364.071 489.372 364.853 488.981 365.635 488.786L370.132 498.562L367.395 499.736C363.68 501.3 360.16 501.3 358.596 497.78C357.032 494.065 359.574 491.523 362.898 489.959ZM368.372 502.082L371.305 500.713L375.02 508.73C374.629 509.121 373.848 509.512 372.284 510.294L372.283 510.294C368.959 511.859 366.222 511.663 364.853 508.73C363.68 506.384 364.853 503.646 368.372 502.082ZM330.635 514.596C327.507 505.602 331.417 498.953 338.065 496.607C344.909 494.261 351.752 497.976 354.294 505.993C357.032 514.4 353.708 521.44 346.864 523.981C339.825 526.132 333.177 522.222 330.635 514.596ZM350.775 507.166C348.819 501.495 344.127 497.585 338.847 499.345C333.568 501.104 332.199 507.166 334.155 513.032C335.914 518.311 340.412 522.808 346.082 520.853C351.752 519.093 352.73 512.836 350.775 507.166ZM305.216 508.73L310.691 532.976L325.942 529.652L324.378 522.808C323.4 518.116 323.009 514.401 323.205 511.077C323.4 508.926 323.987 506.775 324.573 504.624L324.574 504.624L326.529 504.038L324.182 494.848L321.445 495.434L322.618 501.887L305.607 505.602L303.847 499.149L301.11 499.736L302.87 509.121L305.216 508.73ZM319.49 510.881C319.294 514.205 319.685 517.92 320.663 522.222L321.641 527.306L313.233 529.261L308.54 507.948L320.467 505.211C320.076 506.971 319.685 508.926 319.49 510.881ZM279.797 510.099C280.97 509.316 283.512 508.339 286.836 507.948C294.657 506.97 300.914 511.272 302.087 520.266C303.065 528.87 297.981 535.322 289.378 536.495C285.858 536.886 283.707 536.495 282.73 536.104L283.316 533.171C284.685 533.758 286.64 533.953 288.987 533.562C295.439 532.78 299.154 528.087 298.372 521.048C297.59 514.4 293.093 510.49 286.445 511.272C284.294 511.467 282.143 512.249 280.775 513.031L279.797 510.099ZM278.037 533.953L269.629 534.149L268.847 509.512H265.328L265.914 534.149L257.506 534.345V537.473L278.037 537.082V533.953ZM252.814 536.886C251.249 537.082 248.708 537.278 246.361 537.082C242.842 536.887 240.495 536.104 238.931 534.54C237.562 533.367 236.78 531.607 236.976 529.456C237.171 526.719 239.127 524.568 242.06 523.786C239.518 523.004 236.585 520.658 236.78 516.551C236.976 514.205 237.953 512.445 239.518 511.076C241.473 509.512 244.797 508.73 249.294 509.121C251.836 509.317 253.596 509.512 254.769 509.903L252.814 536.886ZM249.393 511.844H249.392L249.391 511.844C248.942 511.8 248.454 511.751 247.925 511.663C244.21 511.468 240.691 512.641 240.495 516.551C240.3 520.266 243.428 522.026 247.339 522.417L250.272 522.613L250.858 512.054C250.429 511.947 249.94 511.898 249.393 511.844ZM250.076 525.35L246.752 525.155C243.037 524.959 240.691 526.719 240.495 529.456C240.3 532.78 242.646 534.149 246.361 534.345C247.496 534.486 248.322 534.423 248.914 534.377L248.916 534.377C249.139 534.359 249.329 534.345 249.49 534.345L250.076 525.35ZM222.702 505.797C215.859 504.624 209.211 508.73 207.647 518.116C206.278 526.132 210.188 532.78 217.619 533.758C224.853 535.127 231.306 530.238 232.674 521.635C234.043 513.423 229.937 506.97 222.702 505.797ZM222.116 508.73C227.591 509.708 229.937 515.378 228.959 521.244C227.982 527.305 224.071 532.194 218.205 531.021C212.339 530.043 210.384 523.982 211.362 518.507C212.535 512.445 216.445 507.752 222.116 508.73ZM186.529 510.49L187.311 507.948L197.088 510.881L196.306 513.423L186.529 510.49ZM167.171 500.323L166.194 502.864L175.579 506.579L176.557 504.038L167.171 500.323ZM146.445 493.674L147.618 491.328L156.613 495.825L155.44 498.172L146.445 493.674ZM129.63 488.2L123.177 497.976L125.915 500.127L141.166 477.054L138.038 474.904L123.177 481.552C119.853 482.92 116.529 484.68 113.792 486.44V486.244C115.435 484.152 116.851 482.06 118.561 479.532L118.562 479.532L118.562 479.531C119.089 478.751 119.645 477.93 120.244 477.054L126.697 467.278L123.959 465.518L108.708 488.591L111.641 490.546L126.892 483.507L126.893 483.507C130.412 481.747 133.54 480.183 136.278 478.619C134.127 481.552 131.976 484.485 129.63 488.2ZM104.015 450.266C105.384 450.657 107.926 451.831 110.468 453.786C116.529 458.674 117.898 466.3 112.228 473.339C106.753 479.987 98.5406 480.769 91.8925 475.49C89.1551 473.339 87.9819 471.384 87.5908 470.406L90.1328 468.646C90.7193 470.015 91.8925 471.579 93.6523 473.143C98.7361 477.25 104.602 476.859 109.295 471.188C113.596 465.909 113.401 460.043 108.122 455.741C106.362 454.372 104.406 453.395 102.842 453.004L104.015 450.266ZM87.5906 432.865L68.0376 452.418L82.1158 466.691L101.669 447.138L99.1269 444.596L81.5292 461.999L72.5348 452.809L90.1326 435.406L87.5906 432.865ZM47.3115 426.998L69.0154 409.987L71.1663 412.92L49.4624 429.931L47.3115 426.998ZM60.021 443.227L68.2333 436.775C67.6467 436.188 66.669 435.015 66.0825 434.233C62.5629 429.736 61.3897 424.261 66.278 420.546C68.2333 418.981 70.1886 418.395 72.1439 418.59C75.4679 418.981 78.4009 421.328 80.7472 424.261C82.3115 426.216 83.2891 427.78 83.8757 428.758L62.1718 445.769L60.021 443.227ZM79.2085 427.195L79.2079 427.194C78.9103 426.702 78.5551 426.116 78.0098 425.434C75.6635 422.305 71.9484 420.937 68.6244 423.479C65.3004 426.216 66.278 430.127 68.4288 433.06C69.2108 434.037 69.9928 434.819 70.384 435.21L70.3841 435.21L79.574 427.78C79.4559 427.603 79.3377 427.408 79.2087 427.195L79.2085 427.195ZM46.725 420.741L42.2278 413.702L63.1495 400.602L61.1942 397.473L40.2725 410.574L35.7753 403.339L33.2334 404.904L44.1831 422.306L46.725 420.741ZM47.3115 391.216L56.3059 389.652L58.0657 392.976L29.1272 397.473L27.1719 393.563L47.3115 372.445L49.0713 375.769L42.8143 382.417L47.3115 391.216ZM40.6635 384.373L34.7976 390.434L34.7972 390.434L34.7966 390.435C33.4283 391.803 32.2553 392.976 30.8869 393.954C32.45 393.563 34.2083 393.172 35.9667 392.781L35.9707 392.78L44.3785 391.412L40.6635 384.373ZM29.7137 371.859L18.9596 376.16L20.3283 379.484L46.1384 369.317L44.7696 365.993L32.6467 370.685L27.7584 358.172L39.8814 353.479L38.5126 350.155L12.7026 360.322L14.0713 363.646L24.8255 359.345L29.7137 371.859ZM9.18321 348.982L20.524 346.049C24.8257 344.876 28.3452 344.094 31.8648 343.311C29.4802 342.864 26.982 342.19 24.2837 341.462C23.4419 341.234 22.5806 341.002 21.6972 340.77L5.66369 335.881L4.68604 332.362L31.4737 325.127L32.2558 328.451L20.915 331.58C16.6134 332.753 13.4849 333.535 9.96538 334.121V334.317C13.2894 334.904 16.8089 335.881 20.3285 336.859L35.7754 341.747L36.753 345.462L9.96538 352.697L9.18321 348.982ZM29.853 321.691C30.221 321.808 30.57 321.92 30.8868 321.999L30.3003 318.088C29.7603 317.818 29.3136 317.735 28.8313 317.644C28.615 317.604 28.3916 317.562 28.1494 317.502C27.6482 317.435 27.1127 317.374 26.5585 317.31L26.5533 317.31C23.866 317.003 20.7416 316.647 18.9595 315.351C17.7863 314.569 17.1997 313.395 17.0042 311.636L16.6131 309.094L28.5405 307.138L27.9539 303.619L0.970703 307.921C0.970703 309.876 1.16621 312.222 1.55727 314.569C2.14386 317.893 3.31707 320.435 4.88131 321.999C6.25002 323.367 8.40086 323.954 10.7472 323.563C14.4623 322.976 16.4176 320.043 16.4176 316.524H16.6131C17.0042 317.111 17.5908 317.893 18.3729 318.479C20.4169 320.052 23.346 320.486 26.1434 320.901C26.8248 321.002 27.4983 321.102 28.1494 321.217C28.7308 321.333 29.3122 321.518 29.8524 321.691L29.853 321.691ZM4.0992 314.373C3.90367 312.809 3.90366 311.636 3.90366 311.049L13.6802 309.485C13.8757 310.071 14.0711 311.244 14.2666 312.417L14.2667 312.418C14.8533 316.328 13.4846 319.457 10.1606 320.043C6.44552 320.63 4.68579 317.893 4.0992 314.373ZM13.6802 281.915L16.4176 281.719L17.0042 291.887L14.2667 292.082L13.6802 281.915ZM16.6134 260.211H13.8759L13.4849 270.379H16.2223L16.6134 260.211ZM16.0264 238.507L18.7639 238.898L17.3951 248.87L14.6577 248.479L16.0264 238.507ZM34.9931 208.395L8.00993 201.943L3.5127 221.496L30.4959 227.948L31.278 224.429L7.22776 218.563L10.1607 206.049L34.211 211.915L34.9931 208.395ZM31.2781 176.133C40.2725 179.457 43.0099 186.496 40.6635 193.144C38.1216 199.987 31.0825 202.92 23.2613 199.987C15.049 197.054 11.5294 189.82 14.0713 182.976C16.4177 175.937 23.6524 173.395 31.2781 176.133ZM24.4345 196.468C29.9093 198.423 35.9708 197.25 37.9261 191.971C39.8814 186.691 35.9708 181.803 30.1049 179.652C25.0211 177.697 18.5686 178.479 16.4177 184.149C14.658 189.82 18.7641 194.317 24.4345 196.468ZM52.1997 166.943C53.5684 163.814 54.155 161.273 54.155 159.708L51.2221 159.317C51.2221 160.882 50.6355 163.032 49.6578 164.988C46.7249 171.049 41.0545 172.613 34.9931 169.68C28.5406 166.552 26.5853 160.881 29.5182 155.016C30.4959 152.865 31.8646 151.496 33.0378 150.518L30.8869 148.368C30.1048 148.954 28.5405 150.518 26.9763 153.647C23.2612 161.273 25.8031 169.094 33.6243 173.004C41.6411 177.111 48.6802 173.982 52.1997 166.943ZM39.2947 138.2L34.993 145.239L32.4512 143.675L43.2053 126.273L45.7472 127.837L41.25 135.072L62.1718 147.977L60.2165 151.105L39.2947 138.2ZM67.2555 140.155L61.9762 132.725L67.6466 124.709L76.4455 127.446L78.7918 124.317L50.831 115.519L48.2891 119.038L65.1047 143.088L67.2555 140.155ZM57.0879 121.384L65.1047 123.926L60.2164 130.574L55.3282 123.731C54.3505 122.362 53.3729 120.993 52.1997 119.625C53.7639 120.211 55.3282 120.798 57.0879 121.384ZM60.6074 103.786C61.3895 102.418 62.9535 100.463 64.5177 98.5076L64.518 98.5072C66.8644 95.7697 68.8197 94.5965 71.1661 94.2055C72.9258 93.8144 74.6856 94.401 76.2499 95.7698C78.2052 97.5295 78.7917 100.462 77.6185 103.395C79.7694 101.831 83.4845 101.049 86.6129 103.786C88.3727 105.351 89.1549 107.306 89.1549 109.261C89.1549 111.803 87.7861 114.736 84.6576 118.06C83.0934 119.82 81.7247 121.189 80.747 121.971L60.6074 103.786ZM71.5571 108.675L73.7079 106.328C76.2498 103.591 76.2499 100.462 74.2946 98.7027C71.9482 96.5519 69.2107 97.5295 66.8644 100.267C65.9095 101.222 65.4728 101.918 65.1325 102.46C65.0546 102.584 64.9818 102.7 64.9091 102.809L71.5571 108.675ZM81.3337 117.669C81.9202 117.278 82.7023 116.496 83.4844 115.518C86.0263 112.781 87.1996 109.261 84.2666 106.719C81.5292 104.178 78.2052 105.546 75.4678 108.479L73.5124 110.63L81.3337 117.669ZM87.7861 92.4456L79.3784 83.4512L76.8364 85.7976L95.6074 106.133L98.5403 103.786L89.937 94.401L90.7191 93.6188C94.0431 90.4904 97.1716 91.077 100.496 92.8367C102.451 94.0099 104.797 95.1831 106.753 95.9652L109.49 93.4233C107.596 92.7469 105.983 91.8833 104.262 90.962C103.496 90.5517 102.708 90.13 101.864 89.7082C98.3448 87.9485 95.0207 86.9708 91.3057 89.7082L90.328 73.2837L87.1996 76.2166L88.5683 91.6635L87.7861 92.4456ZM110.077 81.8872L113.01 90.4905L110.077 92.6413L100.887 64.876L104.406 62.3341L128.652 78.5631L125.524 80.9095L117.898 75.8257L110.077 81.8872ZM115.551 74.0659L108.512 69.3732C107.077 68.4759 105.806 67.4139 104.7 66.4895L104.539 66.3558L104.406 66.2447C104.648 66.8893 104.923 67.534 105.204 68.1923L105.204 68.1923C105.604 69.1315 106.017 70.0984 106.362 71.133L109.099 79.1497L115.551 74.0659ZM140.775 59.7921L139.406 57.4458L130.607 62.7251L131.976 65.0715L140.775 59.7921ZM158.764 47.6696L159.937 50.0159L150.747 54.5131L149.574 52.1667L158.764 47.6696ZM180.076 41.999L179.099 39.457L169.518 42.9766L170.495 45.5185L180.076 41.999Z" fill="white"/>
</svg>
