<svg width="399" height="398" viewBox="0 0 399 398" fill="none" xmlns="http://www.w3.org/2000/svg">
<path fill-rule="evenodd" clip-rule="evenodd" d="M30.3796 174.214C35.9588 174.774 38.5883 178.461 38.1667 182.608C37.7418 186.89 34.1166 189.567 29.206 189.078C24.0553 188.558 21.0141 185.023 21.4456 180.688C21.8754 176.257 25.5624 173.736 30.3796 174.214ZM29.3767 186.837C32.8416 187.187 36.1389 185.62 36.4692 182.315C36.8011 178.997 33.9306 176.81 30.2522 176.434C27.0274 176.113 23.4866 177.461 23.1347 180.939C22.7829 184.417 25.8184 186.475 29.3767 186.837ZM22.4901 201.341L22.5928 196.382L37.119 196.674L37.1546 194.538L22.6402 194.261L22.7329 189.274L20.9355 189.24L20.706 201.308L22.4901 201.341ZM21.4028 214.102L28.2171 213.663L27.7082 205.784L20.8939 206.222L20.7529 204.091L37.0291 203.057L37.1702 205.187L29.5356 205.686L30.0444 213.566L37.679 213.067L37.81 215.169L21.5322 216.217L21.4028 214.102ZM31.5969 225.68L30.6569 219.413L28.9313 219.672L29.8713 225.939L24.7779 226.7L23.7877 220.075L22.0354 220.331L23.335 229.04L39.4689 226.647L38.1191 217.579L36.3669 217.835L37.4072 224.819L31.5969 225.68ZM26.4978 243.671L33.1849 242.079C35.7106 241.486 37.7846 241.04 39.9437 240.672L39.9503 240.619C38.1177 240.215 36.1583 239.632 33.9987 238.916L24.6034 235.714L24.1139 233.662L39.9987 229.896L40.4498 231.822L33.6944 233.419C31.1269 234.02 29.2314 234.448 27.2007 234.764L27.1907 234.844C29.1233 235.207 31.2095 235.859 33.2406 236.519L42.3091 239.626L42.822 241.816L26.9372 245.582L26.4978 243.671ZM51.023 128.858C50.7749 129.545 50.5767 130.049 50.3384 130.439L51.8828 131.2C52.1276 130.757 52.4091 130.128 52.6372 129.384C53.2034 127.775 53.2809 125.956 52.7499 124.345C52.0704 122.296 50.4087 120.193 47.2917 118.68C43.6778 116.916 40.4551 117.558 39.0508 120.458C37.6466 123.359 39.0519 126.432 41.7336 127.742C44.1485 128.909 46.8643 128.205 48.102 125.663C48.7916 124.259 48.7776 122.848 48.2018 121.598L48.2368 121.535C49.7829 122.608 50.6939 123.886 51.0947 125.236C51.4637 126.407 51.4143 127.674 51.023 128.858ZM46.8626 124.52C46.0597 126.181 44.2959 126.638 42.5331 125.782C40.5418 124.803 39.6606 122.959 40.4602 121.325C41.428 119.318 43.7156 119.332 46.1304 120.5C46.4373 120.647 46.6191 120.818 46.7443 121.01C47.3483 121.925 47.4823 123.242 46.8626 124.52ZM46.1678 111.402L49.185 106.21L47.644 105.313L43.8537 111.818L49.8684 116.495L49.9089 116.4C50.1304 115.878 50.3957 115.253 50.8179 114.527C52.4023 111.812 54.3412 111.363 56.1124 112.369C57.9319 113.422 58.2064 115.569 57.1918 117.299C56.4687 118.536 55.412 119.407 54.7436 119.771L55.8713 121.049C56.6664 120.647 57.8214 119.64 58.6844 118.149C60.3938 115.192 59.6353 111.927 56.9835 110.378C55.2656 109.378 53.5884 109.576 52.3615 110.29C51.373 110.831 50.5281 111.741 49.9234 112.79C49.6301 113.296 49.4952 113.618 49.3587 113.953L46.1678 111.402ZM61.9693 97.7368C66.3742 100.764 67.6829 104.07 65.7134 106.94C63.9755 109.474 60.4158 109.559 56.1043 106.651C51.7628 103.659 50.6557 100.148 52.4603 97.5144C54.3448 94.7824 57.8529 94.8942 61.9693 97.7368ZM57.3374 104.909C60.7065 107.225 63.326 107.51 64.4324 105.914C65.6721 104.118 64.1554 101.829 60.8497 99.548C57.6557 97.3486 55.0093 96.7346 53.7546 98.5426C52.6965 100.077 53.8048 102.491 57.3374 104.909ZM77.9398 91.2319C79.2363 89.7407 79.9559 88.3131 80.169 87.4727L78.6113 86.7097C78.375 87.6285 77.7152 88.7927 76.877 89.7584C74.294 92.7692 70.8459 92.8275 67.8252 90.2161C64.5842 87.4148 64.3992 83.8968 66.9005 80.9978C67.7871 79.9703 68.7522 79.2912 69.5673 78.9457L68.6029 77.4439C68.0194 77.6692 66.8509 78.3501 65.5211 79.8913C62.2132 83.7194 62.5673 88.5996 66.4321 91.9392C70.4803 95.4371 74.9335 94.7047 77.9398 91.2319ZM86.033 70.8362C89.9332 74.8711 89.5601 79.3898 86.5586 82.2807C83.462 85.2817 78.9617 84.9786 75.5286 81.4354C71.9288 77.7089 71.8866 73.0437 75.0148 70.006C78.218 66.9099 82.66 67.3547 86.033 70.8362ZM77.1235 79.8324C79.5474 82.3423 83.0759 83.2694 85.4625 80.9656C87.8657 78.6369 87.0838 75.1258 84.5032 72.4609C82.2462 70.1344 78.6774 68.8771 76.1525 71.3126C73.6443 73.7231 74.6263 77.2592 77.1235 79.8324ZM82.9319 65.3839L86.777 62.2458L95.9677 73.5095L97.6127 72.1565L88.4338 60.9078L92.2939 57.7581L91.1661 56.3714L81.8041 63.9971L82.9319 65.3839ZM93.5026 54.9147C94.2426 54.1941 95.2459 53.3166 96.641 52.3389C98.3479 51.1426 99.8699 50.6684 101.164 50.8295C102.341 50.949 103.45 51.6154 104.291 52.8039C105.142 54.0206 105.441 55.2093 105.255 56.3782C105.027 57.989 103.887 59.5268 102.197 60.6981C101.679 61.0535 101.192 61.3721 100.724 61.5441L104.459 66.8996L102.738 68.1075L93.5026 54.9147ZM99.7309 60.1606C100.171 59.9987 100.681 59.71 101.259 59.3079C103.338 57.8464 103.899 55.952 102.611 54.1119C101.381 52.3467 99.5356 52.3742 97.6237 53.694C96.867 54.2229 96.3353 54.685 96.097 54.9669L99.7309 60.1606ZM111.402 51.1833L105.072 46.8595L103.039 48.0692L113.299 54.7656C113.663 55.0005 113.816 55.1822 113.861 55.5807C114.015 56.8461 113.996 58.7402 112.544 59.6296C112.223 59.8198 112.008 59.915 111.839 59.9617L112.522 61.5504C112.799 61.5036 113.157 61.345 113.611 61.0764C114.854 60.3371 115.53 59.148 115.768 57.4572C115.955 55.6433 115.592 53.1092 115.268 50.8443L115.23 50.5763L113.905 41.6332L111.99 42.7629L113.3 49.9703C113.431 50.6229 113.555 51.2075 113.668 51.745L113.668 51.7457C113.765 52.2034 113.855 52.6271 113.935 53.0295L113.892 53.0512C113.063 52.4197 112.246 51.8032 111.402 51.1833ZM125.198 36.0088L131.657 49.0862L132.962 48.5037L135.311 53.578L133.839 54.3023L131.98 50.8468L122.756 55.4013L124.357 58.9736L122.885 59.698L120.277 54.7538L121.365 54.1714C121.415 52.9042 121.431 51.5786 121.217 50.2515C120.876 48.3125 120.114 46.2671 118.869 43.7549L117.042 40.0459L125.198 36.0088ZM120.92 43.4955C122.078 45.8343 122.834 47.9198 123.125 49.8254C123.319 50.9875 123.345 52.1963 123.302 53.1934L129.768 50.0025L124.089 38.4987L119.556 40.7384L120.92 43.4955ZM134.395 39.4977L131.965 33.1262L130.001 33.8841L135.825 49.1177L137.789 48.3598L135.061 41.2198L142.43 38.3986L145.157 45.5386L147.148 44.784L141.323 29.5504L139.333 30.305L141.764 36.6765L134.395 39.4977ZM147.807 27.513L149.638 34.1348C150.329 36.6322 150.846 38.6878 151.283 40.8285L151.337 40.8352C151.676 38.9809 152.192 37.0132 152.816 34.8287L155.665 25.3351L157.699 24.7756L162.041 40.4884L160.132 41.0228L158.283 34.3309C157.583 31.7919 157.086 29.9147 156.701 27.889L156.621 27.8791C156.325 29.82 155.764 31.9311 155.172 33.9706L152.405 43.1356L150.241 43.7602L145.899 28.0474L147.807 27.513ZM165.71 30.501L164.401 23.3887L162.35 23.7564L165.297 39.7967L167.349 39.4156L166.002 32.0682L166.667 31.9478C169.383 31.4597 170.676 32.718 171.797 34.6999L171.883 34.8517L171.965 34.9976L172.1 35.2394L172.105 35.2498L172.109 35.257C172.685 36.2882 173.295 37.3816 173.947 38.2187L176.179 37.8058C175.425 36.8017 174.824 35.7439 174.177 34.6077L174.177 34.6066C173.986 34.272 173.792 33.9307 173.589 33.582C172.35 31.5717 171.037 30.1484 168.326 30.2714L173.039 21.7957L170.543 22.2571L166.348 30.3773L165.71 30.501ZM190.539 28.0254C191.062 33.6175 187.943 36.9003 183.804 37.2924C179.514 37.6929 176.194 34.6515 175.722 29.743C175.239 24.5894 178.122 20.9116 182.467 20.5044C186.895 20.0805 190.081 23.2137 190.539 28.0254ZM177.963 29.4802C178.289 32.9482 180.457 35.8867 183.761 35.5667C187.092 35.25 188.673 32.0196 188.333 28.3332C188.031 25.0987 186.019 21.895 182.538 22.2201C179.056 22.5452 177.621 25.9155 177.963 29.4802ZM197.472 19.8669C195.995 19.8726 194.539 20.03 193.621 20.2272L193.693 36.2888C194.4 36.3768 195.512 36.4747 196.963 36.4657C199.619 36.4578 201.455 35.9684 202.588 34.9174C203.406 34.1117 203.958 33.056 203.957 31.6471C203.948 29.2211 202.128 27.9514 200.577 27.5687L200.584 27.5153C202.289 26.8742 203.329 25.4865 203.321 23.9142C203.319 22.627 202.804 21.6552 201.96 21.0353C200.937 20.2171 199.573 19.8576 197.472 19.8669ZM197.549 34.8047C196.804 34.8067 196.197 34.7853 195.785 34.7205L195.747 28.4979L197.496 28.4855C199.8 28.4744 201.718 29.3905 201.726 31.6131C201.729 33.9841 199.732 34.792 197.549 34.8047ZM197.667 26.8947L195.756 26.9006L195.732 21.6552C196.066 21.5883 196.631 21.5097 197.593 21.5076C199.722 21.4882 201.186 22.2395 201.192 24.1503C201.2 25.7226 199.89 26.887 197.667 26.8947ZM225.647 38.385L225.901 37.1027L227.848 35.8279C232.527 32.8478 234.695 31.2078 235.174 28.8833C235.479 27.3092 235 25.7188 232.698 25.2696C231.296 25.0002 229.991 25.4743 229.161 25.9399L228.778 24.3344C230.03 23.6369 231.674 23.2727 233.46 23.617C236.78 24.2607 237.735 26.818 237.31 29.0274C236.751 31.8838 234.24 33.7791 230.366 36.2769L228.912 37.1796L228.906 37.233L235.834 38.597L235.497 40.3296L225.647 38.385ZM251.169 29.6694L251.541 28.3203L241.979 25.6936L241.509 27.3962L248.923 29.4303L248.903 29.482L238.653 41.0881L240.776 41.6641L251.169 29.6694ZM270.641 34.7495L264.584 49.8851L262.61 49.0974L268.002 35.5993L262.996 33.5942L261.166 38.1753C259.85 41.4522 258.263 45.0611 255.549 45.6443C254.842 45.773 253.823 45.7951 252.946 45.4421L253.33 43.7695C253.977 43.9043 254.749 43.7972 255.247 43.6019C256.934 42.8908 258.229 40.004 259.195 37.5776L261.751 31.1904L270.641 34.7495ZM272.907 45.3676L278.584 48.1878L279.376 46.6201L273.699 43.7999L275.981 39.1802L281.991 42.1504L282.771 40.5677L274.873 36.658L267.633 51.2807L275.85 55.352L276.629 53.7693L270.3 50.6376L272.907 45.3676ZM288.109 45.6757L283.845 43.1533L284.754 41.6139L295.153 47.7449L294.243 49.2843L289.952 46.7586L282.583 59.2655L280.754 58.1842L288.109 45.6757ZM305.153 54.5714C303.976 53.6933 302.728 52.9419 301.869 52.5505L292.288 65.4185C292.795 65.9151 293.624 66.6551 294.79 67.5182C296.923 69.0979 298.689 69.819 300.227 69.6582C301.357 69.501 302.437 68.9853 303.282 67.8578C304.717 65.9096 304.03 63.8057 303.019 62.569L303.051 62.5323C304.8 63.0617 306.459 62.5774 307.402 61.3131C308.167 60.284 308.342 59.2085 308.034 58.1949C307.719 56.9229 306.84 55.8245 305.153 54.5714ZM296.264 66.5638C295.655 66.1223 295.188 65.739 294.901 65.4323L298.61 60.4485L300.011 61.49C301.859 62.858 302.844 64.7417 301.511 66.5264C300.096 68.4228 298.011 67.8652 296.264 66.5638ZM301.108 60.299L299.57 59.1592L302.709 54.9444C303.029 55.0926 303.51 55.3692 304.292 55.9407C306.002 57.2238 306.714 58.6807 305.574 60.2185C304.633 61.4695 302.892 61.632 301.108 60.299ZM326.017 72.6127L314.826 84.481L313.298 83.0445L323.272 72.4605L317.756 67.2626L307.782 77.8466L306.254 76.41L317.445 64.5416L326.017 72.6127ZM326.676 83.5319L329.68 76.4827L328.071 74.7244L323.499 86.0895C323.341 86.4897 323.194 86.6882 322.814 86.8034C321.614 87.1958 319.743 87.5318 318.597 86.2918C318.36 86.0185 318.208 85.8235 318.133 85.6651L316.71 86.6528C316.813 86.9096 317.03 87.2346 317.387 87.6313C318.35 88.7129 319.65 89.1458 321.356 89.0467C323.156 88.884 325.543 88.0457 327.686 87.293L328.01 87.1795L336.53 84.136L335.044 82.4743L328.234 85.1619C327.569 85.434 326.985 85.6841 326.449 85.9134L326.446 85.9147L326.444 85.9157C326.062 86.0794 325.704 86.2324 325.36 86.3754L325.323 86.3437C325.451 86.079 325.578 85.8164 325.706 85.5547L325.717 85.5302C326.04 84.8652 326.361 84.2057 326.676 83.5319ZM339.285 90.6289L336.282 86.6787L337.704 85.5959L345.014 95.2031L343.593 96.2859L340.578 92.3207L329.026 101.11L327.733 99.4179L339.285 90.6289ZM341.916 102.891L347.713 99.1967L346.647 97.5332L332.89 106.291L334.104 108.19L343.687 108.137C345.818 108.105 347.996 108.023 349.942 107.737L349.96 107.808C348.133 108.772 346.489 109.787 344.267 111.203L338.412 114.931L339.476 116.608L353.233 107.849L352.1 106.069L342.189 106.135C339.922 106.178 337.878 106.276 336.009 106.49L336.002 106.435C337.907 105.385 339.737 104.286 341.916 102.891ZM361.97 131.343L361.948 131.3L359.538 129.334L360.882 128.336L363.892 130.811L364.578 132.481L350.03 138.459L349.251 136.56L361.97 131.343ZM353.326 148.338C354.403 151.655 357.832 152.624 362.915 150.968C367.673 149.42 369.892 146.716 368.877 143.555C367.887 140.52 364.415 139.247 359.402 140.885C354.467 142.547 352.376 145.415 353.326 148.338ZM354.932 147.955C354.336 146.107 356.159 144.193 360.042 142.929C364.109 141.593 366.691 142.186 367.268 143.965C367.941 146.067 365.843 147.797 362.159 148.991C358.348 150.223 355.608 150.031 354.932 147.955ZM366 163.287C360.802 164.563 357.473 163.335 356.635 159.953C355.91 156.964 358.209 154.27 363.247 152.974C368.376 151.716 371.734 153.245 372.488 156.332C373.291 159.562 370.863 162.09 366 163.287ZM363.734 155.053C359.766 156.021 357.811 157.796 358.267 159.682C358.79 161.793 361.503 162.198 365.4 161.248C369.16 160.321 371.387 158.755 370.867 156.618C370.429 154.803 367.898 154.027 363.734 155.053ZM366.744 172.523L372.356 171.623L372.113 170.089L366.501 170.989L365.644 165.586L364.206 165.813L365.064 171.216L359.397 172.123L359.64 173.657L365.307 172.75L366.165 178.154L367.602 177.926L366.744 172.523ZM377.939 197.61L361.649 198.209L361.573 196.1L376.094 195.565L375.817 187.998L361.296 188.534L361.22 186.424L377.51 185.825L377.939 197.61ZM361.553 202.478L366.591 204.446L366.292 210.221L361.07 211.684L360.953 213.931L377.534 209.25L377.675 206.707L361.675 200.299L361.553 202.478ZM372.72 208.529L367.947 209.871L368.234 204.963L372.853 206.811C373.822 207.189 374.799 207.501 375.751 207.795L375.745 207.849C375.598 207.878 375.451 207.907 375.303 207.936L375.296 207.938L375.295 207.938C374.478 208.099 373.634 208.265 372.72 208.529ZM374.737 220.077L375.43 215.165L377.201 215.413L375.522 227.368L373.751 227.121L374.448 222.182L360.082 220.162L360.385 218.06L374.737 220.077ZM366.203 230.177L364.956 236.389L366.662 236.723L367.909 230.512L372.957 231.533L371.638 238.101L373.369 238.452L375.107 229.823L359.131 226.601L357.321 235.587L359.051 235.938L360.442 229.013L366.203 230.177ZM371.885 244.485L365.335 242.586L363.144 250.17L369.694 252.069L369.102 254.109L353.437 249.584L354.029 247.545L361.378 249.666L363.567 242.095L356.218 239.974L356.809 237.948L372.475 242.473L371.885 244.485ZM366.52 256.131L364.751 260.76L351.2 255.578L350.437 257.569L363.988 262.751L362.203 267.406L363.871 268.047L368.187 256.772L366.52 256.131ZM349.896 279.013C344.834 276.581 343.63 272.218 345.426 268.459C347.291 264.574 351.609 263.296 356.058 265.422C360.725 267.655 362.387 272.035 360.504 275.959C358.593 279.988 354.268 281.102 349.896 279.013ZM355.139 267.474C351.994 265.972 348.361 266.319 346.932 269.311C345.486 272.328 347.438 275.361 350.775 276.955C353.702 278.363 357.49 278.293 359.008 275.136C360.51 271.991 358.359 269.027 355.139 267.474ZM353.289 289.176C354.042 287.915 354.668 286.584 354.968 285.7L341.2 277.47C340.752 278.024 340.097 278.931 339.359 280.18C337.989 282.475 337.465 284.293 337.777 285.808C338.045 286.925 338.662 287.95 339.873 288.67C341.954 289.905 343.977 289.005 345.106 287.872L345.145 287.891C344.799 289.69 345.453 291.289 346.802 292.093C347.912 292.76 349.002 292.814 349.974 292.407C351.208 291.964 352.211 290.979 353.289 289.176ZM347.176 285.719L348.153 284.079L352.667 286.768C352.559 287.094 352.333 287.607 351.836 288.439C350.755 290.269 349.361 291.125 347.722 290.149C346.373 289.344 346.03 287.635 347.176 285.719ZM340.462 281.55C340.84 280.906 341.173 280.406 341.443 280.087L346.792 283.26L345.9 284.761C344.719 286.74 342.961 287.917 341.044 286.77C339.001 285.554 339.349 283.416 340.462 281.55ZM343.436 304.015L337.983 299.827C335.931 298.244 334.268 296.913 332.632 295.476L332.589 295.498C333.435 297.188 334.218 299.06 335.024 301.179L338.471 310.481L337.193 312.151L324.262 302.21L325.473 300.64L330.974 304.874C333.062 306.489 334.58 307.68 336.113 309.077L336.173 309.03C335.237 307.302 334.419 305.276 333.664 303.286L330.354 294.299L331.727 292.519L344.659 302.46L343.436 304.015ZM324.066 316.504L328.936 321.35L330.325 319.979L318.767 308.475L317.174 310.064L319.331 319.396C319.832 321.463 320.381 323.577 321.088 325.412L321.016 325.444C319.68 323.882 318.322 322.494 316.453 320.636L311.522 315.741L310.128 317.152L321.701 328.645L323.188 327.15L320.95 317.484C320.413 315.277 319.871 313.313 319.254 311.529L319.31 311.509C320.76 313.139 322.235 314.677 324.066 316.504ZM318.056 330.616C317.68 331.896 316.922 333.197 315.573 334.343C313.422 336.175 310.964 336.33 309.334 334.406C308.034 332.876 308.147 330.777 309.318 329.202L309.282 329.171C307.371 330.477 305.13 330.415 303.606 328.627C301.407 326.05 302.761 323.116 305.033 321.191C306.155 320.234 307.536 319.471 308.96 319.242L309.6 320.852C308.603 321.026 307.189 321.609 306.174 322.471C304.326 324.043 304.163 325.892 305.321 327.255C306.904 329.119 309.154 328.125 310.731 326.777L311.473 326.152L312.514 327.365L311.772 327.991C310.135 329.385 309.724 331.488 310.799 332.76C311.862 334.017 313.345 333.958 314.694 332.811C315.634 332.007 316.287 330.788 316.585 329.809L318.056 330.616ZM290.796 334.658L299.334 346.491L306.731 341.154L304.303 337.803C302.663 335.526 301.559 333.628 300.909 331.772C300.47 330.512 300.269 329.187 300.114 327.935L301.089 327.175L297.7 322.73L296.362 323.688L298.543 326.953L290.207 332.973L287.801 329.883L286.463 330.84L289.613 335.459L290.796 334.658ZM299.095 332.522C299.695 334.344 300.795 336.283 302.319 338.396L304.121 340.896L300.014 343.853L292.518 333.45L298.367 329.234C298.474 330.223 298.706 331.403 299.095 332.522ZM283.346 346.207L288.78 342.928L285.736 337.889L279.687 341.538L278.778 340.03L286.629 335.291L295.064 349.251L287.521 353.798L286.612 352.289L292.353 348.832L289.691 344.423L284.257 347.702L283.346 346.207ZM266.512 346.278L273.768 360.891L282.33 356.646L279.275 350.495C278.117 348.157 276.825 345.259 277.42 343.532C277.605 343.026 278.038 342.376 278.575 341.982L277.584 340.585C276.733 340.994 276.068 341.765 275.694 342.382C274.324 344.785 275.948 348.388 277.519 351.55L279.718 355.969L274.882 358.361L268.417 345.337L266.512 346.278ZM267.571 363.559L265.09 357.154C264.159 354.736 263.433 352.735 262.785 350.65L262.731 350.643C262.579 352.52 262.26 354.54 261.861 356.766L259.971 366.501L258.007 367.259L252.113 352.043L253.963 351.326L256.475 357.802C257.429 360.264 258.111 362.07 258.691 364.052L258.773 364.049C258.868 362.083 259.231 359.933 259.615 357.827L261.45 348.424L263.542 347.615L269.436 362.83L267.571 363.559ZM248.002 372.312C249.097 372.001 249.544 372.653 249.836 373.353L251.393 372.924C250.836 371.418 249.663 370.717 247.755 371.251C245.776 371.804 245.109 373.022 245.428 374.592L246.987 374.15C246.868 373.363 246.935 372.612 248.002 372.312ZM249.615 362.732L251.474 369.344L253.396 368.811L248.985 353.103L246.823 353.715L244.094 362.898C243.513 364.953 242.952 367.064 242.67 369.006L242.59 368.996C242.192 366.969 241.693 365.105 240.979 362.564L239.102 355.883L237.193 356.417L241.604 372.125L243.626 371.55L246.436 362.038C247.061 359.854 247.55 357.883 247.889 356.029L247.943 356.035C248.38 358.176 248.91 360.233 249.615 362.732ZM216.542 373.664L216.597 373.657L219.182 371.934L219.745 373.507L216.496 375.663L214.687 375.831L213.211 360.163L215.254 359.97L216.542 373.664ZM202.798 360.451C199.32 360.533 197.391 363.517 197.497 368.867C197.591 373.878 199.544 376.79 202.844 376.726C206.049 376.665 208.258 373.716 208.157 368.434C208.007 363.227 205.868 360.386 202.798 360.451ZM202.714 362.107C204.656 362.064 205.955 364.366 206.042 368.455C206.119 372.731 204.816 375.035 202.955 375.074C200.741 375.123 199.701 372.596 199.627 368.726C199.545 364.706 200.541 362.148 202.714 362.107ZM184.787 368.233C185.086 362.892 187.227 360.057 190.699 360.245C193.767 360.41 195.684 363.399 195.443 368.598C195.152 373.872 192.721 376.644 189.533 376.464C186.223 376.282 184.504 373.223 184.787 368.233ZM193.32 368.456C193.545 364.365 192.419 361.99 190.483 361.871C188.304 361.749 187.128 364.23 186.913 368.24C186.703 372.102 187.544 374.699 189.75 374.825C191.606 374.934 193.086 372.734 193.32 368.456ZM175.821 366.276L175.025 371.908L176.555 372.125L177.351 366.494L182.769 367.264L182.975 365.826L177.558 365.057L178.359 359.386L176.828 359.168L176.027 364.839L170.609 364.07L170.403 365.507L175.821 366.276ZM148.504 369.797L152.597 354.01L154.631 354.535L150.981 368.615L158.317 370.518L161.967 356.437L164.001 356.961L159.908 372.748L148.504 369.797ZM148.588 352.698L145.254 356.957L139.809 354.992L139.902 349.571L137.789 348.807L137.512 366.044L139.896 366.91L150.636 353.441L148.588 352.698ZM139.575 361.654L139.665 356.694L144.293 358.368L141.193 362.262C140.562 363.091 139.968 363.939 139.418 364.764L139.367 364.744L139.368 364.732C139.462 363.759 139.558 362.772 139.575 361.654ZM129.203 362.598C128.208 362.325 126.932 361.909 125.395 361.202C123.498 360.33 122.317 359.261 121.803 358.06C121.314 356.983 121.327 355.684 121.925 354.363C122.54 353.017 123.42 352.151 124.516 351.719C126.015 351.106 127.928 351.304 129.799 352.16C130.376 352.422 130.884 352.688 131.28 352.995L133.996 347.061L135.906 347.935L129.203 362.598ZM130.569 354.572C130.2 354.269 129.693 353.989 129.053 353.693C126.746 352.633 124.817 353.111 123.884 355.162C122.99 357.124 123.944 358.705 126.046 359.672C126.878 360.06 127.555 360.279 127.927 360.339L130.569 354.572ZM119.138 356.183L114.804 353.788L121.817 341.087L119.954 340.056L112.927 352.755L108.568 350.342L107.695 351.913L118.265 357.754L119.138 356.183ZM103.528 349.254L107.323 343.577L100.77 339.198L96.9747 344.876L95.1984 343.693L104.256 330.136L106.032 331.319L101.787 337.672L108.34 342.051L112.585 335.698L114.336 336.864L105.279 350.421L103.528 349.254ZM95.2407 332.806L90.2734 328.855L89.1803 330.236L94.1475 334.187L90.9364 338.217L85.6856 334.041L84.5925 335.422L91.4812 340.913L101.646 328.145L94.4739 322.429L93.3674 323.809L98.9017 328.209L95.2407 332.806ZM81.6636 332.619C80.7997 332.051 79.7339 331.255 78.4812 330.11C76.9499 328.7 76.1622 327.302 76.0516 326.014C75.9143 324.832 76.3373 323.612 77.3238 322.542C78.3254 321.461 79.4373 320.909 80.6111 320.838C82.2367 320.729 83.9811 321.516 85.4874 322.909C85.9494 323.332 86.3581 323.749 86.6318 324.162L91.063 319.363L92.606 320.788L81.6636 332.619ZM85.4585 325.425C85.1966 325.026 84.8162 324.6 84.2941 324.115C82.4225 322.392 80.45 322.241 78.9301 323.894C77.4736 325.473 77.8863 327.272 79.586 328.852C80.2666 329.479 80.8237 329.9 81.1539 330.077L85.4585 325.425ZM79.5105 307.493C76.7112 304.408 72.2125 303.875 68.0575 307.652C64.4692 310.903 63.8894 315.342 66.8788 318.64C69.8098 321.864 74.4834 321.972 78.3167 318.493C81.9684 315.169 82.4048 310.685 79.5105 307.493ZM78.1587 308.558C80.3858 311.016 79.342 314.503 76.7603 316.85C74.117 319.257 70.5543 320.128 68.2071 317.546C65.8483 314.949 67.2222 311.422 69.6205 309.242C72.3689 306.753 75.92 306.084 78.1587 308.558ZM59.967 309.855C59.2581 309.238 58.2672 308.167 57.3713 306.985C56.1033 305.31 55.5742 304.011 55.6152 302.702C55.6114 301.645 56.0728 300.66 57.0912 299.879C58.348 298.925 60.082 298.924 61.6114 299.914L61.6564 299.879C61.0271 298.405 60.9511 296.187 62.8945 294.723C64.0163 293.873 65.205 293.683 66.3356 293.851C67.858 294.135 69.3508 295.31 70.9558 297.433C71.8283 298.585 72.4274 299.54 72.7711 300.152L59.967 309.855ZM64.0227 304.156L62.8715 302.631C61.5218 300.851 59.816 300.516 58.5609 301.457C57.0358 302.608 57.3083 304.227 58.6013 305.919C59.1819 306.696 59.5789 307.097 59.8358 307.319L64.0227 304.156ZM70.2598 299.433C70.0762 299.058 69.7175 298.566 69.2637 297.968C67.949 296.232 66.0977 295.108 64.2126 296.539C62.4325 297.889 62.852 299.96 64.2484 301.8L65.2945 303.19L70.2598 299.433ZM53.2669 288.809L47.3344 292.284L48.3673 293.997L62.4393 285.752L61.2996 283.809L51.7188 283.51C49.5979 283.462 47.4037 283.46 45.453 283.678L45.4346 283.608C47.2933 282.715 48.9719 281.745 51.2505 280.417L57.2414 276.909L56.2352 275.199L42.1632 283.444L43.2245 285.256L53.1303 285.555C55.3879 285.592 57.4354 285.576 59.3095 285.43L59.3162 285.485C57.3658 286.461 55.5022 287.503 53.2669 288.809ZM36.7317 272.351L43.3647 269.451L43.101 268.849L34.233 266.634L33.2082 264.312L42.5366 266.964C41.7917 264.352 42.8864 262.74 44.5547 261.092C44.8248 260.837 45.0903 260.589 45.3508 260.346L45.3516 260.346C46.3348 259.43 47.2466 258.58 48.0645 257.601L48.9842 259.68C48.3251 260.496 47.4051 261.338 46.5379 262.131C46.3724 262.282 46.2088 262.432 46.0493 262.579C44.3794 264.132 43.4413 265.681 44.5496 268.204L44.825 268.82L51.6731 265.826L52.506 267.731L37.5629 274.269L36.7317 272.351ZM43.7586 244.968L28.3047 250.169L31.3602 259.246L37.8635 257.062C40.3375 256.232 43.3883 255.339 45.0193 256.165C45.4897 256.413 46.0751 256.933 46.3955 257.515L47.9158 256.729C47.6203 255.839 46.958 255.065 46.3909 254.615C44.1892 252.932 40.4065 254.046 37.0556 255.173L32.3761 256.744L30.6563 251.626L44.4415 246.99L43.7586 244.968ZM23.6887 165.836C23.4143 167.278 23.2866 168.739 23.3053 169.676L39.0649 172.682C39.298 172.006 39.5943 170.932 39.8671 169.503C40.3694 166.884 40.2401 164.985 39.4275 163.678C38.8018 162.719 37.8511 161.978 36.4754 161.712C34.0942 161.253 32.4926 162.801 31.8247 164.248L31.7713 164.242C31.4687 162.429 30.3126 161.161 28.7652 160.86C27.5079 160.622 26.4659 160.939 25.6859 161.655C24.6993 162.507 24.0812 163.772 23.6887 165.836ZM38.3677 168.599C38.2213 169.339 38.0799 169.931 37.9366 170.32L31.8386 169.14L32.1596 167.433C32.5887 165.183 33.8585 163.472 36.0412 163.893C38.3691 164.345 38.7702 166.454 38.3677 168.599ZM30.6171 166.983L30.2611 168.863L25.1002 167.881C25.0901 167.528 25.1182 166.976 25.3045 166.024C25.7137 163.934 26.7135 162.65 28.5927 163.006C30.1419 163.294 31.0379 164.8 30.6171 166.983Z" fill="white"/>
</svg>
