<svg width="375" height="376" viewBox="0 0 375 376" fill="none" xmlns="http://www.w3.org/2000/svg">
<circle opacity="0.5" cx="187.095" cy="188.072" r="187.095" fill="#4669B1"/>
<path fill-rule="evenodd" clip-rule="evenodd" d="M294.372 136.29C294.372 138.919 292.241 141.05 289.612 141.05C286.983 141.05 284.852 138.919 284.852 136.29C284.852 133.662 286.983 131.531 289.612 131.531C292.241 131.531 294.372 133.662 294.372 136.29ZM298.372 136.29C298.372 141.128 294.45 145.05 289.612 145.05C284.774 145.05 280.852 141.128 280.852 136.29C280.852 131.452 284.774 127.531 289.612 127.531C294.45 127.531 298.372 131.452 298.372 136.29ZM188.132 174.661C192.598 174.661 196.665 175.561 200.332 177.361C203.998 179.161 206.898 181.728 209.032 185.061C211.165 188.328 212.232 192.128 212.232 196.461C212.232 201.128 211.065 205.228 208.732 208.761C206.398 212.294 203.198 215.028 199.132 216.961C195.132 218.828 190.665 219.761 185.732 219.761C175.932 219.761 168.265 216.761 162.732 210.761C157.198 204.761 154.432 196.194 154.432 185.061C154.432 177.128 155.932 170.328 158.932 164.661C161.932 158.994 166.098 154.694 171.432 151.761C176.832 148.828 183.065 147.361 190.132 147.361C193.865 147.361 197.432 147.794 200.832 148.661C204.298 149.461 207.232 150.628 209.632 152.161L203.632 164.061C200.165 161.728 195.798 160.561 190.532 160.561C184.598 160.561 179.898 162.294 176.432 165.761C172.965 169.228 171.098 174.261 170.832 180.861C174.965 176.728 180.732 174.661 188.132 174.661ZM184.832 207.661C188.298 207.661 191.098 206.728 193.232 204.861C195.432 202.994 196.532 200.461 196.532 197.261C196.532 194.061 195.432 191.528 193.232 189.661C191.098 187.728 188.232 186.761 184.632 186.761C181.098 186.761 178.198 187.761 175.932 189.761C173.665 191.694 172.532 194.194 172.532 197.261C172.532 200.328 173.632 202.828 175.832 204.761C178.032 206.694 181.032 207.661 184.832 207.661ZM129.452 177.061C135.585 178.061 140.285 180.361 143.552 183.961C146.819 187.494 148.452 191.894 148.452 197.161C148.452 201.228 147.385 204.994 145.252 208.461C143.119 211.861 139.852 214.594 135.452 216.661C131.119 218.728 125.785 219.761 119.452 219.761C114.519 219.761 109.652 219.128 104.852 217.861C100.119 216.528 96.0853 214.661 92.752 212.261L99.052 199.861C101.719 201.861 104.785 203.428 108.252 204.561C111.785 205.628 115.385 206.161 119.052 206.161C123.119 206.161 126.319 205.394 128.652 203.861C130.985 202.261 132.152 200.028 132.152 197.161C132.152 191.428 127.785 188.561 119.052 188.561H111.652V177.861L126.052 161.561H96.252V148.561H145.252V159.061L129.452 177.061ZM231.104 215.461C235.637 218.328 240.804 219.761 246.604 219.761C252.404 219.761 257.57 218.328 262.104 215.461C266.637 212.594 270.17 208.461 272.704 203.061C275.304 197.594 276.604 191.094 276.604 183.561C276.604 176.028 275.304 169.561 272.704 164.161C270.17 158.694 266.637 154.528 262.104 151.661C257.57 148.794 252.404 147.361 246.604 147.361C240.804 147.361 235.637 148.794 231.104 151.661C226.57 154.528 223.004 158.694 220.404 164.161C217.87 169.561 216.604 176.028 216.604 183.561C216.604 191.094 217.87 197.594 220.404 203.061C223.004 208.461 226.57 212.594 231.104 215.461ZM256.604 200.561C254.204 204.228 250.87 206.061 246.604 206.061C242.404 206.061 239.07 204.228 236.604 200.561C234.204 196.894 233.004 191.228 233.004 183.561C233.004 175.894 234.204 170.228 236.604 166.561C239.07 162.894 242.404 161.061 246.604 161.061C250.87 161.061 254.204 162.894 256.604 166.561C259.07 170.228 260.304 175.894 260.304 183.561C260.304 191.228 259.07 196.894 256.604 200.561Z" fill="white"/>
</svg>
