<svg width="276" height="78" viewBox="0 0 276 78" fill="none" xmlns="http://www.w3.org/2000/svg">
<g clip-path="url(#clip0)">
<path d="M41.7626 41.557H49.9205H51.2801H54.7763H58.2723C59.8268 41.557 62.546 41.557 64.0999 39.9892C65.4592 38.6174 65.6538 36.4616 65.6538 35.2857V29.9944C65.4592 27.8387 65.0708 26.2709 63.9054 25.291C62.3515 23.7232 59.6323 23.7231 58.0784 23.7231H39.8202H35.9355H17.289C15.7351 23.7231 13.0158 23.7232 11.4619 25.291C10.1023 26.6628 9.908 28.8186 9.71376 29.9944H33.799V35.2857H17.0947C15.5409 35.2857 12.8215 35.2858 11.2677 36.8536C9.908 38.2254 9.71376 40.1852 9.51953 41.361V46.6524C9.71376 48.8081 10.1022 50.3759 11.2677 51.3558C12.8215 52.9236 15.5409 52.9236 17.0947 52.9236H35.7413H39.626H57.8839C59.4377 52.9236 62.1576 52.9236 63.7114 51.3558C65.0708 49.984 65.2653 47.8283 65.2653 46.6524H41.1799V41.557H41.7626ZM41.7626 29.9944H59.6323V35.2857H49.9205H41.5684V29.9944H41.7626ZM34.1874 47.0443H16.3178V41.753H34.1874V47.0443Z" fill="#192C85"/>
<path d="M191.321 53.1196H198.896V23.7231H190.932L173.063 42.5369V23.7231H165.487V53.1196H173.451L191.321 33.326V53.1196Z" fill="#192C85"/>
<path d="M151.696 53.1196H159.272V23.7231H151.502L123.532 53.1196H132.855L151.696 33.5219V53.1196Z" fill="#192C85"/>
<path d="M229.974 53.1196H237.548V23.7231H229.974V35.4817H212.687V23.7231H205.111V53.1196H212.687V41.557H229.974V53.1196Z" fill="#192C85"/>
<path d="M251.148 23.7231C249.594 23.7231 246.875 23.7232 245.321 25.291C243.572 26.8588 243.572 29.7984 243.572 30.9743V45.8685C243.572 47.0444 243.572 49.984 245.321 51.5518C246.875 53.1196 249.594 53.1196 251.148 53.1196H267.852C269.406 53.1196 272.125 53.1196 273.679 51.5518C275.039 50.18 275.233 48.0242 275.427 46.8484H251.342V29.9944H275.427C275.427 27.8386 274.845 26.2709 273.679 25.291C272.125 23.7232 269.406 23.7231 267.852 23.7231H251.148Z" fill="#192C85"/>
<path d="M91.0986 47.0444C91.0986 49.2001 91.681 50.768 92.8464 51.7479C94.4003 53.3156 97.1196 53.3156 98.6734 53.3156H115.378C116.932 53.3156 119.651 53.3156 121.205 51.7479C122.953 50.18 122.953 47.2403 122.953 46.0645V31.1703C122.953 29.9945 122.953 27.0548 121.205 25.487C119.651 23.9192 116.932 23.9192 115.378 23.9192H98.6734C97.1196 23.9192 94.4003 23.9192 92.8464 25.487C91.4871 26.8588 91.2926 29.0146 91.0986 30.1905H115.184V35.4818H102.947V41.753H115.184V47.0444H91.0986Z" fill="#192C85"/>
<path d="M37.8759 0.401855C16.8985 0.401855 0 17.4518 0 38.6172C0 59.7827 16.8985 76.8327 37.8759 76.8327C58.8534 76.8327 75.752 59.7827 75.752 38.6172C75.752 17.4518 58.8534 0.401855 37.8759 0.401855ZM37.8759 71.1492C20.0063 71.1492 5.43859 56.4511 5.43859 38.4212C5.43859 20.3914 20.0063 5.69324 37.8759 5.69324C55.7456 5.69324 70.3134 20.3914 70.3134 38.4212C70.3134 56.647 55.9398 71.1492 37.8759 71.1492Z" fill="#192C85"/>
</g>
<defs>
<clipPath id="clip0">
<rect width="276" height="77" fill="white" transform="translate(0 0.401855)"/>
</clipPath>
</defs>
</svg>
