<svg width="416" height="426" viewBox="0 0 416 426" fill="none" xmlns="http://www.w3.org/2000/svg">
<path d="M210.138 27.4153H215.572H216.478H218.807H221.136C222.171 27.4153 223.983 27.4153 225.018 26.3709C225.923 25.457 226.053 24.021 226.053 23.2376V19.7128C225.923 18.2767 225.665 17.2323 224.888 16.5796C223.853 15.5352 222.042 15.5352 221.007 15.5352H208.844H206.256H193.834C192.799 15.5352 190.988 15.5352 189.953 16.5796C189.047 17.4934 188.918 18.9295 188.788 19.7128H204.833V23.2376H193.705C192.67 23.2376 190.858 23.2377 189.823 24.2821C188.918 25.1959 188.788 26.5014 188.659 27.2847V30.8096C188.788 32.2457 189.047 33.2901 189.823 33.9428C190.858 34.9872 192.67 34.9872 193.705 34.9872H206.127H208.714H220.877C221.912 34.9872 223.724 34.9872 224.759 33.9428C225.665 33.029 225.794 31.5929 225.794 30.8096H209.749V27.4153H210.138ZM210.138 19.7128H222.042V23.2376H215.572H210.008V19.7128H210.138ZM205.091 31.0707H193.187V27.5459H205.091V31.0707Z" fill="#F0F0F0"/>
<path d="M207.548 0C193.574 0 182.317 11.3579 182.317 25.4574C182.317 39.5569 193.574 50.9149 207.548 50.9149C221.522 50.9149 232.779 39.5569 232.779 25.4574C232.779 11.3579 221.522 0 207.548 0ZM207.548 47.1287C195.644 47.1287 185.94 37.3375 185.94 25.3268C185.94 13.3161 195.644 3.52488 207.548 3.52488C219.452 3.52488 229.156 13.3161 229.156 25.3268C229.156 37.4681 219.581 47.1287 207.548 47.1287Z" fill="#F0F0F0"/>
<path d="M278.247 33.0744L277.474 35.086L269.891 32.3007L270.665 30.2891L278.247 33.0744Z" fill="white"/>
<path d="M294.031 40.1923L293.102 42.0493L285.829 38.6449L286.758 36.7881L294.031 40.1923Z" fill="white"/>
<path d="M309.195 48.5486L308.112 50.4055L301.149 46.3822L302.232 44.5254L309.195 48.5486Z" fill="white"/>
<path d="M327.764 46.227L322.193 53.6545C320.027 56.4399 318.325 58.6062 316.468 60.9273C318.789 59.8441 321.265 58.761 324.05 57.5231L336.43 52.7261L338.751 54.4283L325.598 71.9139L323.431 70.3665L329.002 62.939C331.168 60.1536 332.716 57.9873 334.573 55.9757V55.8209C332.251 57.0588 329.621 58.142 326.836 59.2252L314.766 63.7127L312.29 61.8558L325.443 44.3701L327.764 46.227Z" fill="white"/>
<path d="M354.844 69.1289L341.381 83.365L342.774 84.7577L337.513 90.0189L335.965 88.4715L339.37 84.4482L329.311 75.009L325.598 78.7228L324.05 77.1754L329.002 71.6048L330.24 72.6879C331.787 72.2237 333.489 71.6047 335.037 70.6763C337.358 69.2836 339.524 67.4268 342.155 64.6414L346.023 60.6182L354.844 69.1289ZM343.393 67.272C340.917 69.9026 338.751 71.7595 336.43 72.9974C335.037 73.7711 333.489 74.39 332.252 74.8543L339.37 81.5081L351.13 68.9741L346.178 64.3319L343.393 67.272Z" fill="white"/>
<path d="M358.403 90.4836L352.832 84.1393L346.952 89.4005L353.297 96.5185L351.44 98.0659L343.238 88.7815L359.641 74.3906L367.378 83.2109L365.521 84.7583L359.641 77.9496L354.38 82.5919L359.95 88.9362L358.403 90.4836Z" fill="white"/>
<path d="M352.213 98.9938C352.832 98.839 353.606 98.6843 354.38 98.5296C357.01 97.7559 359.796 96.5179 362.272 96.8274C363.045 96.9821 363.664 97.2916 364.283 97.6011H364.438C363.2 95.1253 363.509 92.3399 365.985 90.483C367.533 89.3999 369.235 89.0904 370.782 89.3999C372.484 89.8641 374.187 91.2567 375.889 93.4231C376.972 94.9705 378.055 96.5179 378.674 97.9106L361.188 110.754L359.486 108.433L367.068 102.862L365.831 101.16C365.057 100.077 364.128 99.458 363.045 99.3033C360.879 98.9938 357.939 100.386 355.772 101.005C355.153 101.16 354.689 101.315 354.07 101.315L352.213 98.9938ZM375.115 96.9822C374.96 96.5179 374.496 95.7442 373.722 94.6611C372.02 92.3399 369.854 91.102 367.378 92.9589C365.212 94.5063 365.366 97.2916 367.223 99.7675C367.842 100.541 368.306 101.315 368.616 101.624L375.115 96.9822Z" fill="white"/>
<path d="M378.674 121.122L376.817 122.205L372.794 115.241L374.651 114.158L378.674 121.122Z" fill="white"/>
<path d="M386.411 136.596L384.554 137.524L381.15 130.252L383.007 129.323L386.411 136.596Z" fill="white"/>
<path d="M392.755 152.534L390.743 153.308L387.958 145.726L389.97 144.952L392.755 152.534Z" fill="white"/>
<path d="M411.479 175.59L390.125 180.697L389.506 177.911L408.539 173.424L406.218 163.521L387.185 168.008L386.566 165.223L407.92 160.116L411.479 175.59Z" fill="white"/>
<path d="M412.253 182.09C412.717 183.483 413.027 185.185 413.336 187.351C413.646 190.136 413.336 192.303 412.408 193.695C411.479 195.088 410.086 196.017 408.075 196.171C406.063 196.481 404.516 196.016 403.278 195.088C401.576 193.85 400.338 191.529 400.028 188.744C399.874 187.97 399.874 187.196 399.874 186.423L391.208 187.661L390.899 184.875L412.253 182.09ZM402.195 186.268C402.04 186.887 402.195 187.66 402.349 188.589C402.814 191.993 404.671 193.85 407.765 193.386C410.705 192.922 411.789 190.755 411.324 187.661C411.17 186.423 410.86 185.494 410.705 185.03L402.195 186.268Z" fill="white"/>
<path d="M404.67 219.691C397.088 220.001 393.065 215.513 392.755 209.943C392.6 204.217 396.933 199.885 403.587 199.73C410.55 199.575 415.193 203.598 415.347 209.479C415.657 215.359 411.169 219.382 404.67 219.691ZM403.896 202.67C399.254 202.825 395.076 205.455 395.231 209.943C395.386 214.43 399.564 216.751 404.515 216.597C408.848 216.442 413.336 213.966 413.181 209.324C413.026 204.682 408.693 202.515 403.896 202.67Z" fill="white"/>
<path d="M402.813 235.011L403.432 226.5L395.541 226.036L394.922 235.475L392.6 235.32L393.374 223.096L415.193 224.488L414.419 236.249L412.098 236.094L412.717 227.119L405.753 226.655L405.135 235.165L402.813 235.011Z" fill="white"/>
<path d="M413.336 244.605L403.742 243.058L403.587 243.986L412.098 252.806L411.633 256.211L402.968 246.462C401.885 250.021 399.564 250.949 396.469 251.723C394.148 252.187 391.981 252.497 389.97 253.116L390.434 250.021C391.981 249.402 393.993 249.093 395.85 248.783C398.79 248.164 400.956 247.081 401.575 243.522L401.73 242.594L391.827 241.046L392.291 238.261L413.955 241.51L413.336 244.605Z" fill="white"/>
<path d="M406.992 265.186L408.539 258.687L410.86 259.305L406.992 275.089L404.67 274.47L406.373 267.971L387.494 263.174L388.113 260.389L406.992 265.186Z" fill="white"/>
<path d="M389.97 287.467L387.958 286.694L390.743 279.111L392.755 279.885L389.97 287.467Z" fill="white"/>
<path d="M383.007 303.251L381.15 302.323L384.554 295.05L386.411 295.978L383.007 303.251Z" fill="white"/>
<path d="M374.651 318.26L372.794 317.177L376.817 310.214L378.674 311.297L374.651 318.26Z" fill="white"/>
<path d="M369.08 347.353L351.594 334.2L353.297 331.879L368.925 343.639L374.96 335.438L359.331 323.678L361.034 321.356L378.519 334.509L369.08 347.353Z" fill="white"/>
<path d="M364.592 352.15C363.819 353.388 362.736 354.78 361.188 356.482C359.331 358.494 357.474 359.577 355.772 359.732C354.225 359.887 352.523 359.422 351.13 358.03C349.737 356.637 348.964 355.244 348.809 353.697C348.654 351.531 349.737 349.21 351.594 347.198C352.213 346.579 352.677 345.96 353.296 345.651L346.797 339.77L348.654 337.759L364.592 352.15ZM354.999 347.198C354.534 347.507 353.915 348.126 353.296 348.745C350.975 351.221 350.821 353.852 352.987 356.018C355.153 358.03 357.474 357.411 359.641 355.09C360.414 354.161 361.033 353.388 361.343 352.923L354.999 347.198Z" fill="white"/>
<path d="M331.013 370.563C326.062 364.993 326.681 358.958 330.859 355.244C335.191 351.376 341.226 351.995 345.559 356.946C350.201 362.208 350.047 368.397 345.714 372.266C341.226 376.134 335.346 375.36 331.013 370.563ZM343.393 358.958C340.298 355.399 335.656 354.006 332.251 356.946C328.847 359.886 329.776 364.683 333.025 368.397C335.965 371.647 340.607 373.504 344.166 370.409C347.725 367.314 346.642 362.517 343.393 358.958Z" fill="white"/>
<path d="M331.478 383.407L326.217 375.825C324.205 373.039 322.658 370.564 321.111 368.088C321.575 370.564 321.73 373.349 322.039 376.289L322.813 389.597L320.492 391.299L307.803 373.504L309.969 371.956L315.385 379.539C317.397 382.479 318.944 384.645 320.337 386.966H320.492C320.027 384.335 319.718 381.395 319.563 378.61L318.944 365.767L321.42 364.064L334.109 381.86L331.478 383.407Z" fill="white"/>
<path d="M314.766 393.156C313.992 394.703 312.6 396.25 310.588 397.488C307.339 399.345 304.089 398.881 302.387 396.096C300.994 393.774 301.768 390.989 303.625 389.287C300.839 390.525 297.899 389.906 296.352 387.121C294.031 383.097 296.661 379.693 300.066 377.681C301.768 376.753 303.78 375.979 305.791 376.134L306.255 378.455C304.863 378.455 302.851 378.919 301.304 379.693C298.518 381.24 297.745 383.716 298.983 385.728C300.685 388.513 303.78 387.894 306.255 386.502L307.339 385.883L308.422 387.74L307.339 388.359C304.863 389.751 303.78 392.382 304.863 394.393C305.946 396.25 307.958 396.56 309.969 395.477C311.362 394.703 312.6 393.156 313.219 391.918L314.766 393.156Z" fill="white"/>
<path d="M299.293 402.904C298.209 403.678 296.662 404.606 294.805 405.535C292.174 406.773 290.318 407.082 288.615 406.618C287.223 406.308 286.14 405.38 285.366 403.833C284.437 401.976 284.902 399.655 286.759 397.952C284.592 398.417 281.652 397.798 280.414 394.858C279.64 393.155 279.64 391.608 280.259 390.061C281.033 388.204 283.045 386.502 286.294 385.109C287.996 384.335 289.544 383.716 290.318 383.562L299.293 402.904ZM288.615 386.502C287.996 386.656 287.378 386.966 286.449 387.43C283.818 388.668 281.807 390.68 283.045 393.62C284.283 396.405 287.068 396.405 290.008 395.167L292.174 394.239L288.615 386.502ZM293.103 395.941L290.782 397.024C287.996 398.262 287.068 400.428 287.996 402.285C289.08 404.606 291.246 404.761 293.877 403.523C295.115 402.904 295.733 402.595 296.043 402.285L293.103 395.941Z" fill="white"/>
<path d="M260.916 406.927C258.44 399.809 261.535 394.548 266.796 392.691C272.212 390.834 277.628 393.774 279.64 400.119C281.806 406.773 279.176 412.343 273.76 414.355C268.189 416.057 262.928 412.962 260.916 406.927ZM276.854 401.047C275.307 396.56 271.593 393.465 267.415 394.858C263.237 396.25 262.154 401.047 263.701 405.689C265.094 409.867 268.653 413.426 273.141 411.879C277.628 410.486 278.402 405.535 276.854 401.047Z" fill="white"/>
<path d="M245.133 421.473L240.8 402.285L238.944 402.595L237.551 395.167L239.717 394.703L241.11 399.81L254.572 396.869L253.644 391.763L255.81 391.299L257.667 398.572L256.12 399.036C255.656 400.738 255.191 402.44 255.037 404.142C254.882 406.773 255.191 409.713 255.965 413.427L257.203 418.843L245.133 421.473ZM253.025 412.963C252.251 409.558 251.942 406.618 252.097 403.988C252.251 402.44 252.561 400.893 252.87 399.5L243.431 401.666L247.145 418.533L253.799 416.986L253.025 412.963Z" fill="white"/>
<path d="M220.684 403.369C221.612 402.75 223.624 401.976 226.254 401.666C232.444 400.893 237.396 404.297 238.324 411.415C239.098 418.224 235.075 423.33 228.266 424.259C225.481 424.568 223.779 424.259 223.005 423.949L223.469 421.628C224.552 422.092 226.1 422.247 227.956 421.937C233.063 421.318 236.003 417.605 235.384 412.034C234.765 406.773 231.206 403.678 225.945 404.297C224.243 404.452 222.541 405.071 221.457 405.69L220.684 403.369Z" fill="white"/>
<path d="M212.638 422.402L219.291 422.247V424.723L203.044 425.032V422.556L209.697 422.402L209.233 402.904H212.019L212.638 422.402Z" fill="white"/>
<path d="M199.33 424.568C198.092 424.722 196.08 424.877 194.223 424.722C191.438 424.568 189.581 423.949 188.343 422.711C187.26 421.782 186.641 420.39 186.796 418.688C186.951 416.521 188.498 414.819 190.819 414.2C188.808 413.581 186.486 411.724 186.641 408.475C186.796 406.618 187.57 405.225 188.808 404.142C190.355 402.904 192.986 402.285 196.545 402.594C198.556 402.749 199.949 402.904 200.877 403.213L199.33 424.568ZM197.783 404.916C197.164 404.761 196.39 404.761 195.461 404.606C192.521 404.451 189.736 405.38 189.581 408.475C189.427 411.415 191.902 412.807 194.997 413.117L197.318 413.272L197.783 404.916ZM197.164 415.438L194.533 415.283C191.593 415.128 189.736 416.521 189.581 418.688C189.427 421.318 191.283 422.401 194.223 422.556C195.461 422.711 196.235 422.556 196.699 422.556L197.164 415.438Z" fill="white"/>
<path d="M163.584 409.713C164.822 402.285 170.083 399.036 175.499 399.964C181.225 400.893 184.474 405.999 183.391 412.498C182.308 419.307 177.202 423.175 171.476 422.092C165.596 421.319 162.501 416.057 163.584 409.713ZM180.451 412.189C181.225 407.547 179.368 403.059 175.035 402.285C170.548 401.512 167.453 405.226 166.524 410.022C165.751 414.355 167.298 419.152 171.94 419.926C176.583 420.854 179.677 416.986 180.451 412.189Z" fill="white"/>
<path d="M146.873 403.679L147.492 401.667L155.229 403.988L154.61 406L146.873 403.679Z" fill="white"/>
<path d="M130.78 397.643L131.554 395.632L138.981 398.572L138.207 400.584L130.78 397.643Z" fill="white"/>
<path d="M115.151 390.371L116.079 388.514L123.197 392.073L122.269 393.93L115.151 390.371Z" fill="white"/>
<path d="M96.7367 393.775L101.843 386.038C103.7 383.098 105.402 380.777 107.104 378.456C104.938 379.693 102.462 380.931 99.6768 382.324L87.607 387.895L85.2859 386.347L97.3557 368.088L99.522 369.481L94.4156 377.218C92.404 380.158 91.0113 382.324 89.3091 384.49V384.645C91.4755 383.252 94.1061 381.86 96.7367 380.777L108.497 375.515L110.973 377.218L98.9031 395.477L96.7367 393.775Z" fill="white"/>
<path d="M81.5722 356.018C82.6554 356.327 84.6671 357.255 86.6787 358.803C91.4757 362.671 92.5588 368.706 88.0714 374.277C83.7386 379.538 77.2395 380.157 71.9783 375.979C69.812 374.277 68.8835 372.73 68.574 371.956L70.5857 370.563C71.0499 371.646 71.9783 372.884 73.371 374.122C77.3943 377.372 82.0365 377.062 85.7502 372.575C89.1545 368.397 88.9998 363.755 84.8218 360.35C83.4291 359.267 81.8817 358.493 80.6438 358.184L81.5722 356.018Z" fill="white"/>
<path d="M53.1002 357.72L68.5743 342.246L70.5859 344.258L56.6593 358.03L63.7773 365.302L77.704 351.531L79.7156 353.542L64.2416 369.016L53.1002 357.72Z" fill="white"/>
<path d="M36.6974 337.603L53.8737 324.141L55.5758 326.462L38.3996 339.924L36.6974 337.603ZM46.7556 350.447L53.2547 345.34C52.7905 344.876 52.0168 343.947 51.5525 343.328C48.7672 339.769 47.8388 335.437 51.7073 332.497C53.2547 331.259 54.8021 330.794 56.3495 330.949C58.9801 331.259 61.3012 333.116 63.1581 335.437C64.396 336.984 65.1697 338.222 65.6339 338.996L48.4577 352.458L46.7556 350.447ZM62.2296 338.222C61.9202 337.758 61.6107 337.139 60.9917 336.365C59.1348 333.889 56.1948 332.806 53.5642 334.818C50.9336 336.984 51.7073 340.079 53.4095 342.4C54.0284 343.174 54.6474 343.793 54.9569 344.102L62.2296 338.222Z" fill="white"/>
<path d="M32.6743 327.082L36.2333 332.652L34.2217 333.89L25.5562 320.118L27.5678 318.88L31.1269 324.606L47.6841 314.238L49.2315 316.714L32.6743 327.082Z" fill="white"/>
<path d="M36.6974 309.287L43.8155 308.049L45.2081 310.679L22.3066 314.238L20.7592 311.144L36.6974 294.432L38.0901 297.062L33.1384 302.323L36.6974 309.287ZM31.4362 303.871L26.794 308.668C25.7108 309.751 24.7824 310.679 23.6992 311.453C24.9371 311.144 26.3298 310.834 27.7225 310.525L34.3763 309.441L31.4362 303.871Z" fill="white"/>
<path d="M14.2597 297.372L22.7704 293.967L18.9019 284.064L10.3911 287.468L9.30798 284.838L29.7337 276.791L30.8169 279.422L21.223 283.135L25.0915 293.039L34.6854 289.325L35.7686 291.956L15.3429 300.002L14.2597 297.372Z" fill="white"/>
<path d="M6.52276 275.863L15.4977 273.542C18.902 272.613 21.6873 271.994 24.4727 271.375C21.9968 270.911 19.3663 270.137 16.4262 269.364L3.73745 265.495L2.96375 262.71L24.1632 256.984L24.7822 259.615L15.8072 262.091C12.4029 263.019 9.92709 263.638 7.14176 264.102V264.257C9.77235 264.721 12.5577 265.495 15.343 266.269L27.5675 270.137L28.3412 273.077L7.14176 278.803L6.52276 275.863Z" fill="white"/>
<path d="M23.6991 254.508C23.0802 254.354 22.3065 254.044 21.5328 253.89C18.9022 253.425 15.8074 253.271 13.7958 251.723C13.1768 251.259 12.7126 250.64 12.4031 250.176H12.2484C12.2484 252.961 10.701 255.282 7.76089 255.746C5.90401 256.056 4.20186 255.592 3.11868 254.508C1.88075 253.271 0.952289 251.259 0.488067 248.628C0.178586 246.771 0.0238647 244.915 0.0238647 243.367L21.378 239.963L21.8423 242.748L12.4031 244.296L12.7126 246.307C12.8673 247.7 13.3315 248.628 14.26 249.247C15.9621 250.485 19.2117 250.64 21.5328 250.949C22.1518 251.104 22.616 251.104 23.2349 251.414L23.6991 254.508ZM2.34497 245.843C2.34497 246.307 2.34498 247.236 2.49972 248.474C2.96394 251.259 4.35657 253.425 7.29664 252.961C9.92723 252.497 11.0104 250.021 10.5462 246.926C10.3915 245.998 10.2367 245.069 10.082 244.605L2.34497 245.843Z" fill="white"/>
<path d="M10.0824 222.787L12.2487 222.632L12.7129 230.678L10.5466 230.833L10.0824 222.787Z" fill="white"/>
<path d="M10.2365 205.61H12.4029L12.0934 213.657H9.92703L10.2365 205.61Z" fill="white"/>
<path d="M11.9391 188.434L14.1055 188.743L13.0223 196.635L10.856 196.325L11.9391 188.434Z" fill="white"/>
<path d="M5.59461 159.497L26.9488 164.603L26.3298 167.389L7.29672 162.747L4.97561 172.65L24.0087 177.292L23.3898 180.078L2.03555 174.971L5.59461 159.497Z" fill="white"/>
<path d="M24.0087 139.071C31.1268 141.702 33.2932 147.273 31.4363 152.534C29.4246 157.95 23.854 160.271 17.6644 157.95C11.1653 155.629 8.37992 149.903 10.3915 144.487C12.2484 138.917 17.9739 136.905 24.0087 139.071ZM18.5928 155.164C22.9256 156.712 27.7225 155.783 29.2699 151.605C30.8173 147.427 27.7225 143.559 23.0803 141.857C19.057 140.309 13.9506 140.928 12.2485 145.416C10.8558 149.903 14.1054 153.462 18.5928 155.164Z" fill="white"/>
<path d="M42.1129 126.074C42.1129 127.311 41.6487 129.323 40.5655 131.799C37.7802 137.37 32.2095 139.845 25.8652 136.596C19.6756 133.501 17.6639 127.311 20.604 121.277C21.8419 118.801 23.0799 117.563 23.6988 117.099L25.401 118.801C24.4725 119.574 23.3894 120.658 22.6157 122.36C20.2946 127.002 21.8419 131.489 26.9484 133.965C31.7453 136.286 36.2328 135.049 38.5539 130.252C39.3276 128.704 39.7918 127.002 39.7918 125.764L42.1129 126.074Z" fill="white"/>
<path d="M30.3531 109.052L26.9487 114.623L24.9371 113.385L33.4479 99.6133L35.4595 100.851L31.9005 106.577L48.4577 116.789L46.9103 119.265L30.3531 109.052Z" fill="white"/>
<path d="M48.3029 104.72L52.4809 110.6L50.7788 112.921L37.4711 93.8879L39.4827 91.1025L61.6106 98.0659L59.7537 100.542L52.7904 98.3754L48.3029 104.72ZM50.7788 97.7564L44.4344 95.7448C43.0417 95.2805 41.8038 94.8163 40.5659 94.3521C41.4943 95.4353 42.268 96.5185 43.0417 97.6017L46.9102 103.018L50.7788 97.7564Z" fill="white"/>
<path d="M47.2197 81.818C47.8386 80.7348 49.0766 79.1874 50.3145 77.64C52.1714 75.4737 53.7188 74.5452 55.5756 74.2357C56.9683 73.9262 58.361 74.3905 59.5989 75.4737C61.1463 76.8663 61.6105 79.1874 60.6821 81.5085C62.3842 80.2706 65.3243 79.6516 67.8001 81.818C69.1928 83.0559 69.8118 84.6034 69.8118 86.1508C69.8118 88.1624 68.7286 90.4835 66.2527 93.1141C65.0148 94.5067 63.9316 95.5899 63.1579 96.2089L47.2197 81.818ZM55.8851 85.6865L57.5873 83.8297C59.5989 81.6633 59.5989 79.1874 58.0515 77.7948C56.1946 76.0926 54.0282 76.8663 52.1713 79.0327C51.2429 79.9611 50.9334 80.5801 50.6239 81.0443L55.8851 85.6865ZM63.6222 92.8046C64.0864 92.4951 64.7053 91.8761 65.3243 91.1024C67.3359 88.9361 68.2644 86.1507 65.9433 84.1391C63.7769 82.1275 61.1463 83.2107 58.98 85.5318L57.4325 87.2339L63.6222 92.8046Z" fill="white"/>
<path d="M62.0752 65.7242L68.729 72.8423L69.3479 72.2233L68.2648 59.9988L70.7406 57.6777L71.5143 70.6759C74.4544 68.5096 77.085 69.2833 79.8703 70.6759C82.0367 71.7591 83.7388 72.8423 85.9052 73.616L83.7388 75.6276C82.1914 75.0086 80.3345 74.0802 78.7871 73.1518C76.1565 71.7591 73.6807 71.2949 71.0501 73.7707L70.4311 74.3897L77.2397 81.8172L74.9186 83.6741L60.0635 67.5811L62.0752 65.7242Z" fill="white"/>
<path d="M86.369 64.4867L88.6901 71.2953L86.369 72.9975L79.0963 51.0243L81.8816 49.0127L101.069 61.8561L98.5935 63.713L92.5587 59.6898L86.369 64.4867ZM90.7018 58.2971L85.1311 54.5834C83.8932 53.8097 82.81 52.8812 81.8816 52.1075C82.3458 53.3454 82.9647 54.5834 83.429 55.976L85.5953 62.3204L90.7018 58.2971Z" fill="white"/>
<path d="M109.58 45.1436L110.663 47.0004L103.7 51.1784L102.617 49.3215L109.58 45.1436Z" fill="white"/>
<path d="M124.9 37.4072L125.828 39.2641L118.555 42.8231L117.627 40.9662L124.9 37.4072Z" fill="white"/>
<path d="M140.992 30.9082L141.766 32.9199L134.184 35.7052L133.41 33.6936L140.992 30.9082Z" fill="white"/>
</svg>
