<svg width="120" height="40" viewBox="0 0 120 40" fill="none" xmlns="http://www.w3.org/2000/svg">
<path d="M0 0H120V30H0V0Z" fill="#040E43"/>
<path d="M5.25273 7H13.2527C14.5594 7 15.5194 7.3 16.1327 7.9C16.7461 8.48667 17.0527 9.38667 17.0527 10.6C17.0527 11.4 16.8794 12.0533 16.5327 12.56C16.1861 13.0533 15.7594 13.4 15.2527 13.6C16.3327 13.8933 17.0661 14.6133 17.4527 15.76C17.5861 16.1733 17.6527 16.6533 17.6527 17.2C17.6527 18.5067 17.3461 19.4667 16.7327 20.08C16.1194 20.6933 15.1594 21 13.8527 21H5.25273V7ZM14.0527 16.6C14.0527 15.8 13.6527 15.4 12.8527 15.4H8.85273V18.2H12.8527C13.6527 18.2 14.0527 17.8 14.0527 17V16.6ZM13.4527 11C13.4527 10.2 13.0527 9.8 12.2527 9.8H8.85273V12.6H12.2527C13.0527 12.6 13.4527 12.2 13.4527 11.4V11ZM23.452 18.4C24.1586 18.4 24.9586 18.2667 25.852 18V16.8H22.952C22.752 16.8 22.5853 16.8667 22.452 17C22.3186 17.1333 22.252 17.3 22.252 17.5V17.7C22.252 17.9 22.3186 18.0667 22.452 18.2C22.5853 18.3333 22.752 18.4 22.952 18.4H23.452ZM19.752 10.6C22.192 10.3333 24.392 10.2 26.352 10.2C27.2586 10.2 27.9853 10.4733 28.532 11.02C29.0786 11.5667 29.352 12.2933 29.352 13.2V21H26.252L26.052 20C25.4253 20.4133 24.7786 20.72 24.112 20.92C23.4586 21.1067 22.9053 21.2 22.452 21.2H21.752C20.8453 21.2 20.1186 20.9267 19.572 20.38C19.0253 19.8333 18.752 19.1067 18.752 18.2V17.3C18.752 16.3933 19.0253 15.6667 19.572 15.12C20.1186 14.5733 20.8453 14.3 21.752 14.3H25.852V13.5C25.852 13.3 25.7853 13.1333 25.652 13C25.5186 12.8667 25.352 12.8 25.152 12.8C24.2853 12.8 23.3253 12.84 22.272 12.92C21.232 13 20.392 13.06 19.752 13.1V10.6ZM33.7512 24.6C33.0445 24.6 32.1778 24.5333 31.1512 24.4V21.8H32.9512C33.4578 21.8 33.7845 21.66 33.9312 21.38C34.0912 21.1 34.0645 20.7067 33.8512 20.2L29.7512 10.4H33.4512L35.9512 17.2L38.0512 10.4H41.7512L37.7512 21.4C37.3645 22.4533 36.8645 23.2467 36.2512 23.78C35.6378 24.3267 34.8045 24.6 33.7512 24.6ZM51.5574 10.8C51.5574 10 51.1574 9.6 50.3574 9.6H46.9574C46.1574 9.6 45.7574 10 45.7574 10.8V17.2C45.7574 18 46.1574 18.4 46.9574 18.4H50.3574C51.1574 18.4 51.5574 18 51.5574 17.2V10.8ZM55.1574 17.2C55.1574 18.6 54.8374 19.62 54.1974 20.26C53.5708 20.8867 52.5574 21.2 51.1574 21.2H46.1574C44.7574 21.2 43.7374 20.8867 43.0974 20.26C42.4708 19.62 42.1574 18.6 42.1574 17.2V10.8C42.1574 9.4 42.4708 8.38667 43.0974 7.76C43.7374 7.12 44.7574 6.8 46.1574 6.8H51.1574C52.5574 6.8 53.5708 7.12 54.1974 7.76C54.8374 8.38667 55.1574 9.4 55.1574 10.8V17.2ZM62.8668 13.1C62.1601 13.1 61.3601 13.2333 60.4668 13.5V21H56.9668V10.4H60.0668L60.2668 11.4C60.8935 10.9867 61.5335 10.6867 62.1868 10.5C62.8535 10.3 63.4135 10.2 63.8668 10.2H64.7668C65.6735 10.2 66.4001 10.4733 66.9468 11.02C67.4935 11.5667 67.7668 12.2933 67.7668 13.2V21H64.2668V13.8C64.2668 13.6 64.2001 13.4333 64.0668 13.3C63.9335 13.1667 63.7668 13.1 63.5668 13.1H62.8668ZM73.6645 12.7C73.1311 12.7 72.8645 12.9667 72.8645 13.5V14.6H76.2645V13.5C76.2645 12.9667 75.9978 12.7 75.4645 12.7H73.6645ZM79.3645 20.8C76.7911 21.0667 74.4578 21.2 72.3645 21.2C71.4578 21.2 70.7311 20.9267 70.1845 20.38C69.6378 19.8333 69.3645 19.1067 69.3645 18.2V13.4C69.3645 12.4 69.6445 11.62 70.2045 11.06C70.7778 10.4867 71.5645 10.2 72.5645 10.2H76.5645C77.5645 10.2 78.3445 10.4867 78.9045 11.06C79.4778 11.62 79.7645 12.4 79.7645 13.4V17.1H72.8645V17.9C72.8645 18.1 72.9311 18.2667 73.0645 18.4C73.1978 18.5333 73.3645 18.6 73.5645 18.6C74.8845 18.6 76.8178 18.5 79.3645 18.3V20.8ZM88.5566 21H84.9566V9.8H80.7566V7H92.7566V9.8H88.5566V21ZM97.0629 12.7C96.5296 12.7 96.2629 12.9667 96.2629 13.5V14.6H99.6629V13.5C99.6629 12.9667 99.3962 12.7 98.8629 12.7H97.0629ZM102.763 20.8C100.19 21.0667 97.8562 21.2 95.7629 21.2C94.8562 21.2 94.1296 20.9267 93.5829 20.38C93.0362 19.8333 92.7629 19.1067 92.7629 18.2V13.4C92.7629 12.4 93.0429 11.62 93.6029 11.06C94.1762 10.4867 94.9629 10.2 95.9629 10.2H99.9629C100.963 10.2 101.743 10.4867 102.303 11.06C102.876 11.62 103.163 12.4 103.163 13.4V17.1H96.2629V17.9C96.2629 18.1 96.3296 18.2667 96.4629 18.4C96.5962 18.5333 96.7629 18.6 96.9629 18.6C98.2829 18.6 100.216 18.5 102.763 18.3V20.8ZM109.055 12.7C108.522 12.7 108.255 12.9667 108.255 13.5V14.6H111.655V13.5C111.655 12.9667 111.388 12.7 110.855 12.7H109.055ZM114.755 20.8C112.182 21.0667 109.848 21.2 107.755 21.2C106.848 21.2 106.122 20.9267 105.575 20.38C105.028 19.8333 104.755 19.1067 104.755 18.2V13.4C104.755 12.4 105.035 11.62 105.595 11.06C106.168 10.4867 106.955 10.2 107.955 10.2H111.955C112.955 10.2 113.735 10.4867 114.295 11.06C114.868 11.62 115.155 12.4 115.155 13.4V17.1H108.255V17.9C108.255 18.1 108.322 18.2667 108.455 18.4C108.588 18.5333 108.755 18.6 108.955 18.6C110.275 18.6 112.208 18.5 114.755 18.3V20.8Z" fill="white"/>
<rect x="5" y="36" width="53" height="1" fill="white"/>
<path d="M68.1009 34.04C68.9543 34.04 69.3809 34.4507 69.3809 35.272C69.3809 35.864 69.3623 36.696 69.3249 37.768L69.8929 37.808V38H68.1089V37.808L68.5409 37.776C68.5783 36.368 68.5969 35.5147 68.5969 35.216C68.5969 34.912 68.5409 34.6853 68.4289 34.536C68.3169 34.3867 68.1356 34.312 67.8849 34.312C67.6343 34.312 67.4023 34.4187 67.1889 34.632C66.9756 34.84 66.8316 35.064 66.7569 35.304C66.7569 35.88 66.7383 36.7013 66.7009 37.768L67.2689 37.808V38H65.4849V37.808L65.9169 37.776C65.9543 36.368 65.9729 35.5147 65.9729 35.216C65.9729 34.912 65.9169 34.6853 65.8049 34.536C65.6929 34.3867 65.4983 34.312 65.2209 34.312C64.9489 34.312 64.6929 34.4587 64.4529 34.752C64.2129 35.04 64.0929 35.296 64.0929 35.52V37.768L64.6929 37.808V38H62.7889V37.808L63.3089 37.776V34.384L62.6289 34.352V34.168L64.0609 34.072L64.0209 34.896H64.1009C64.2449 34.6133 64.4369 34.4 64.6769 34.256C64.9223 34.112 65.1889 34.04 65.4769 34.04C66.1969 34.04 66.6129 34.328 66.7249 34.904V34.896C66.8689 34.6133 67.0609 34.4 67.3009 34.256C67.5463 34.112 67.8129 34.04 68.1009 34.04ZM72.0383 38.096C71.185 38.096 70.7583 37.6853 70.7583 36.864C70.7583 36.2613 70.777 35.424 70.8143 34.352L70.1743 34.32V34.136L71.5983 34.048C71.561 35.456 71.5423 36.4133 71.5423 36.92C71.5423 37.224 71.5983 37.4507 71.7103 37.6C71.8223 37.7493 72.009 37.824 72.2703 37.824C72.537 37.824 72.7876 37.6773 73.0223 37.384C73.257 37.0853 73.3743 36.824 73.3743 36.6V34.352L72.7103 34.32V34.136L74.1583 34.048V37.752L74.8383 37.784L74.8463 37.968L73.4063 38.064L73.4623 37.2H73.3663C73.089 37.7973 72.6463 38.096 72.0383 38.096ZM76.7455 37.888C76.9588 37.888 77.1428 37.8293 77.2975 37.712C77.4575 37.5947 77.5375 37.3973 77.5375 37.12C77.5375 36.9333 77.4522 36.7787 77.2815 36.656C77.1162 36.5333 76.9082 36.424 76.6575 36.328C76.4068 36.2267 76.2362 36.1573 76.1455 36.12C76.0602 36.0773 75.9455 36.0107 75.8015 35.92C75.5402 35.744 75.4095 35.4907 75.4095 35.16C75.4095 34.8293 75.5402 34.5547 75.8015 34.336C76.0628 34.1173 76.4442 34.008 76.9455 34.008C77.2655 34.008 77.5375 34.08 77.7615 34.224C77.9908 34.3627 78.1055 34.5307 78.1055 34.728C78.1055 34.9253 78.0308 35.0613 77.8815 35.136C77.8015 35.1733 77.7215 35.192 77.6415 35.192C77.5668 35.192 77.4922 35.176 77.4175 35.144C77.4388 35.048 77.4495 34.944 77.4495 34.832C77.4495 34.72 77.4228 34.608 77.3695 34.496C77.2788 34.304 77.1055 34.208 76.8495 34.208C76.5935 34.208 76.3988 34.2773 76.2655 34.416C76.1322 34.5547 76.0655 34.736 76.0655 34.96C76.0655 35.1893 76.1615 35.36 76.3535 35.472C76.4975 35.5627 76.6762 35.6453 76.8895 35.72C77.1028 35.7947 77.2468 35.848 77.3215 35.88C77.4015 35.9067 77.5055 35.9547 77.6335 36.024C77.7615 36.0933 77.8575 36.1653 77.9215 36.24C78.0868 36.4213 78.1695 36.6667 78.1695 36.976C78.1695 37.2853 78.0308 37.5493 77.7535 37.768C77.4762 37.9813 77.1375 38.088 76.7375 38.088C76.3375 38.088 75.9855 38.0267 75.6815 37.904C75.3828 37.7813 75.2335 37.6027 75.2335 37.368C75.2335 37.1493 75.3962 37.0053 75.7215 36.936C75.8175 37.5707 76.1588 37.888 76.7455 37.888ZM80.2191 32.792C80.2191 32.92 80.1737 33.032 80.0831 33.128C79.9924 33.2187 79.8777 33.264 79.7391 33.264C79.6057 33.264 79.4937 33.2187 79.4031 33.128C79.3124 33.0373 79.2671 32.9253 79.2671 32.792C79.2671 32.6533 79.3124 32.5387 79.4031 32.448C79.4937 32.352 79.6057 32.304 79.7391 32.304C79.8724 32.304 79.9844 32.352 80.0751 32.448C80.1711 32.544 80.2191 32.6587 80.2191 32.792ZM78.8591 38V37.808L79.3871 37.768V34.368L78.6831 34.344V34.16L80.1711 34.056V37.768L80.6991 37.808V38H78.8591ZM83.2746 34.008C83.5733 34.008 83.8613 34.072 84.1386 34.2C84.2933 34.2693 84.416 34.376 84.5066 34.52C84.6026 34.664 84.6506 34.832 84.6506 35.024C84.6506 35.216 84.5653 35.3467 84.3946 35.416C84.3253 35.4427 84.2506 35.456 84.1706 35.456C84.096 35.456 84.0186 35.4293 83.9386 35.376C83.96 35.264 83.9706 35.1333 83.9706 34.984C83.9706 34.8293 83.9226 34.6827 83.8266 34.544C83.688 34.336 83.4906 34.232 83.2346 34.232C82.4933 34.232 82.1226 34.8427 82.1226 36.064C82.1226 36.6613 82.208 37.112 82.3786 37.416C82.5546 37.7147 82.8373 37.864 83.2266 37.864C83.7226 37.864 84.12 37.624 84.4186 37.144C84.536 37.1813 84.5946 37.24 84.5946 37.32C84.5946 37.3947 84.544 37.4907 84.4426 37.608C84.3466 37.72 84.176 37.8293 83.9306 37.936C83.6906 38.0373 83.4133 38.088 83.0986 38.088C82.5493 38.088 82.104 37.9013 81.7626 37.528C81.4266 37.1547 81.2586 36.6613 81.2586 36.048C81.2586 35.4347 81.44 34.9413 81.8026 34.568C82.1706 34.1947 82.6613 34.008 83.2746 34.008ZM87.7844 34.304H87.2244V34.096H87.7844V33.976C87.7844 33.2667 87.9337 32.7333 88.2324 32.376C88.531 32.0187 88.9577 31.84 89.5124 31.84C89.843 31.84 90.1177 31.904 90.3364 32.032C90.5604 32.1547 90.6724 32.3227 90.6724 32.536C90.6724 32.744 90.6004 32.896 90.4564 32.992C90.371 33.0507 90.2857 33.08 90.2004 33.08C90.1204 33.08 90.043 33.064 89.9684 33.032C90.0004 32.8827 90.0164 32.7387 90.0164 32.6C90.0164 32.4613 89.9684 32.3387 89.8724 32.232C89.7764 32.1253 89.643 32.072 89.4724 32.072C89.3017 32.072 89.155 32.12 89.0324 32.216C88.915 32.3067 88.827 32.416 88.7684 32.544C88.7097 32.6667 88.6644 32.832 88.6324 33.04C88.5897 33.3173 88.5684 33.6693 88.5684 34.096H89.7764V34.304H88.5684V37.768L89.4644 37.808L89.4724 38H87.2484L87.2404 37.808L87.7844 37.776V34.304ZM94.1411 36.048C94.1411 36.64 93.9624 37.128 93.6051 37.512C93.2477 37.896 92.7597 38.088 92.1411 38.088C91.5277 38.088 91.0424 37.896 90.6851 37.512C90.3277 37.128 90.1491 36.64 90.1491 36.048C90.1491 35.456 90.3277 34.968 90.6851 34.584C91.0424 34.2 91.5277 34.008 92.1411 34.008C92.7597 34.008 93.2477 34.2 93.6051 34.584C93.9624 34.968 94.1411 35.456 94.1411 36.048ZM91.0211 36.048C91.0211 37.28 91.3944 37.896 92.1411 37.896C92.8931 37.896 93.2691 37.28 93.2691 36.048C93.2691 35.4507 93.1837 34.9947 93.0131 34.68C92.8424 34.3653 92.5544 34.208 92.1491 34.208C91.7437 34.208 91.4531 34.3653 91.2771 34.68C91.1064 34.9947 91.0211 35.4507 91.0211 36.048ZM97.308 34C97.4467 34 97.556 34.0347 97.636 34.104C97.716 34.168 97.756 34.2587 97.756 34.376C97.756 34.5787 97.6787 34.712 97.524 34.776C97.4387 34.7067 97.284 34.672 97.06 34.672C96.836 34.672 96.62 34.7467 96.412 34.896C96.2093 35.04 96.108 35.2053 96.108 35.392V37.768L96.828 37.808V38H94.796V37.808L95.324 37.776V34.36L94.692 34.328V34.144L96.108 34.056L96.06 35.04H96.092C96.1827 34.752 96.348 34.5067 96.588 34.304C96.8333 34.1013 97.0733 34 97.308 34ZM99.9813 38.088C99.4319 38.088 98.9893 37.9013 98.6533 37.528C98.3173 37.1547 98.1493 36.6613 98.1493 36.048C98.1493 35.4347 98.3253 34.9413 98.6773 34.568C99.0346 34.1947 99.4826 34.008 100.021 34.008C100.56 34.008 100.963 34.1307 101.229 34.376C101.496 34.616 101.629 34.952 101.629 35.384C101.629 35.512 101.619 35.64 101.597 35.768H99.0133V36.048C99.0133 36.6453 99.0986 37.0987 99.2693 37.408C99.4399 37.712 99.7199 37.864 100.109 37.864C100.659 37.864 101.083 37.624 101.381 37.144C101.499 37.1813 101.557 37.2373 101.557 37.312C101.557 37.4453 101.435 37.6 101.189 37.776C101.072 37.8613 100.907 37.936 100.693 38C100.48 38.0587 100.243 38.088 99.9813 38.088ZM100.869 35.216C100.869 34.9707 100.819 34.76 100.717 34.584C100.579 34.3493 100.355 34.232 100.045 34.232C99.4693 34.232 99.1333 34.648 99.0373 35.48H100.853C100.864 35.3893 100.869 35.3013 100.869 35.216ZM101.954 34.096H103.634V34.304L103.09 34.352L104.226 37.144L105.186 34.456L104.546 34.304V34.096H106.082V34.304L105.522 34.456L104.194 38H103.874L102.33 34.344L101.954 34.288V34.096ZM108.177 38.088C107.627 38.088 107.185 37.9013 106.849 37.528C106.513 37.1547 106.345 36.6613 106.345 36.048C106.345 35.4347 106.521 34.9413 106.873 34.568C107.23 34.1947 107.678 34.008 108.217 34.008C108.755 34.008 109.158 34.1307 109.425 34.376C109.691 34.616 109.825 34.952 109.825 35.384C109.825 35.512 109.814 35.64 109.793 35.768H107.209V36.048C107.209 36.6453 107.294 37.0987 107.465 37.408C107.635 37.712 107.915 37.864 108.305 37.864C108.854 37.864 109.278 37.624 109.577 37.144C109.694 37.1813 109.753 37.2373 109.753 37.312C109.753 37.4453 109.63 37.6 109.385 37.776C109.267 37.8613 109.102 37.936 108.889 38C108.675 38.0587 108.438 38.088 108.177 38.088ZM109.065 35.216C109.065 34.9707 109.014 34.76 108.913 34.584C108.774 34.3493 108.55 34.232 108.241 34.232C107.665 34.232 107.329 34.648 107.233 35.48H109.049C109.059 35.3893 109.065 35.3013 109.065 35.216ZM112.996 34C113.134 34 113.244 34.0347 113.324 34.104C113.404 34.168 113.444 34.2587 113.444 34.376C113.444 34.5787 113.366 34.712 113.212 34.776C113.126 34.7067 112.972 34.672 112.748 34.672C112.524 34.672 112.308 34.7467 112.1 34.896C111.897 35.04 111.796 35.2053 111.796 35.392V37.768L112.516 37.808V38H110.484V37.808L111.012 37.776V34.36L110.38 34.328V34.144L111.796 34.056L111.748 35.04H111.78C111.87 34.752 112.036 34.5067 112.276 34.304C112.521 34.1013 112.761 34 112.996 34Z" fill="white"/>
</svg>
