<svg width="35" height="36" viewBox="0 0 35 36" fill="none" xmlns="http://www.w3.org/2000/svg">
<path d="M2.77913 15.2415C2.92198 15.2058 16.5074 12.0273 28.6358 7.07739L27.6643 9.44163C27.3572 10.1845 27.7143 11.0487 28.4643 11.3416C29.3215 11.6844 30.1572 11.1487 30.3643 10.5416L32.8428 4.47744C32.9928 4.1203 32.9857 3.71317 32.8357 3.35603C32.6857 2.9989 32.4 2.71319 32.0357 2.57033L25.9287 0.106097C25.1787 -0.193897 24.3287 0.163239 24.0287 0.913224C23.7287 1.66321 24.0858 2.51319 24.8358 2.81319L28.1072 4.13459C16.0717 9.12735 2.26485 12.363 2.122 12.3987C1.3363 12.5773 0.84345 13.363 1.02916 14.1487C1.1863 14.8201 1.90771 15.4558 2.77913 15.2415Z" fill="#E53B96"/>
<path d="M33.4208 32.0912V15.0702C33.4208 14.263 32.7708 13.613 31.9636 13.613C31.1565 13.613 30.5065 14.263 30.5065 15.0702V32.0841H23.6567V17.2487C23.6567 16.4416 23.0067 15.7916 22.1996 15.7916C21.3924 15.7916 20.7424 16.4416 20.7424 17.2487V32.0912H13.8926V19.4201C13.8926 18.6129 13.2426 17.963 12.4355 17.963C11.6283 17.963 10.9784 18.6129 10.9784 19.4201V32.0912H4.12135V22.32C4.12135 21.5129 3.47136 20.8629 2.66423 20.8629C1.85711 20.8629 1.20712 21.5129 1.20712 22.32V32.1127C0.521418 32.2341 0 32.8269 0 33.5484C0 34.3555 0.649987 35.0055 1.45711 35.0055H33.5422C34.3493 35.0055 34.9993 34.3555 34.9993 33.5484C34.9993 32.7412 34.3065 32.0484 33.4208 32.0912Z" fill="#E53B96"/>
</svg>
