<svg width="42" height="42" viewBox="0 0 42 42" fill="none" xmlns="http://www.w3.org/2000/svg">
<path d="M11.38 6.36455C17.1698 2.65166 24.5617 2.81272 30.131 6.4578L28.4102 6.66972C27.4608 6.7884 26.7911 7.65304 26.9013 8.60246C27.0115 9.47558 27.7575 10.1198 28.6136 10.1198C28.6815 10.1198 34.7509 9.37386 34.7509 9.37386C35.2087 9.31452 35.6241 9.08565 35.9038 8.72114C36.1835 8.35663 36.3107 7.89888 36.2514 7.44112L35.5139 1.51575C35.3952 0.566332 34.5221 -0.111823 33.5811 0.0153314C32.6317 0.134008 31.962 0.998655 32.0807 1.94807L32.3096 3.75366C25.5874 -0.815408 16.5595 -1.07819 9.51512 3.44849C1.28402 8.72962 -2.14066 19.1732 1.36879 28.2859C1.63158 28.9725 2.48775 29.6592 3.6067 29.2777C4.51373 28.964 4.94606 27.9299 4.5985 27.0398C1.68244 19.4529 4.53069 10.7641 11.38 6.36455Z" fill="#E53B96"/>
<path d="M40.017 13.3408C39.7542 12.6542 38.898 11.9675 37.7791 12.349C36.872 12.6627 36.4397 13.6968 36.7873 14.5869C39.7118 22.1738 36.8551 30.8626 30.0057 35.2621C24.216 38.975 16.8241 38.814 11.2548 35.1689L12.9756 34.957C13.925 34.8383 14.5947 33.9737 14.4845 33.0242C14.3743 32.1511 13.6283 31.5069 12.7721 31.5069C12.7043 31.5069 6.63483 32.2528 6.63483 32.2528C6.17708 32.3122 5.76171 32.5411 5.48197 32.9056C5.20223 33.2701 5.07508 33.7278 5.13442 34.1856L5.87191 40.111C5.99059 41.0604 6.86371 41.7385 7.80465 41.6114C8.75407 41.4927 9.42374 40.628 9.30507 39.6786L9.07619 37.873C15.8069 42.4336 24.8348 42.6964 31.8876 38.1697C40.1018 32.8971 43.5264 22.4535 40.017 13.3408Z" fill="#E53B96"/>
</svg>
