<svg width="22" height="22" viewBox="0 0 22 22" fill="none" xmlns="http://www.w3.org/2000/svg">
<g clip-path="url(#clip0)">
<path d="M7.18546 18.502C7.48517 18.8122 7.98399 18.8122 8.29419 18.502C8.5939 18.2023 8.5939 17.7034 8.29419 17.4044L2.67227 11.7825L21.2238 11.7825C21.6563 11.7818 22 11.4381 22 11.0056C22 10.5732 21.6563 10.2183 21.2238 10.2183L2.67227 10.2183L8.29419 4.60683C8.5939 4.29664 8.5939 3.79712 8.29419 3.4981C7.98399 3.18791 7.48447 3.18791 7.18545 3.4981L0.232644 10.4509C-0.0775497 10.7506 -0.0775496 11.2495 0.232644 11.5485L7.18546 18.502Z" fill="black"/>
</g>
<defs>
<clipPath id="clip0">
<rect width="22" height="22" fill="white" transform="translate(22 22) rotate(180)"/>
</clipPath>
</defs>
</svg>
