<svg width="34" height="40" viewBox="0 0 34 40" fill="none" xmlns="http://www.w3.org/2000/svg">
<path d="M30.0795 12.2952L31.6566 10.7269C32.2695 10.1175 32.2695 9.12933 31.6566 8.5202C31.0437 7.91077 30.0503 7.91077 29.4375 8.5202L27.8604 10.0885C25.2144 7.89612 21.9991 6.57166 18.5693 6.2616V3.12103H20.0862C20.9529 3.12103 21.6554 2.42218 21.6554 1.56036C21.6554 0.698547 20.9529 0 20.0862 0H13.9138C13.0471 0 12.3446 0.698547 12.3446 1.56036C12.3446 2.42218 13.0471 3.12103 13.9138 3.12103H15.4307V6.2616C6.84517 7.03796 0 14.2102 0 23.0948C0 32.438 7.60319 40 17.0002 40C26.3956 40 34 32.4393 34 23.0948C34 19.1037 32.6178 15.3241 30.0795 12.2952ZM16.9998 36.879C9.35676 36.879 3.13825 30.6955 3.13825 23.0948C3.13825 15.4944 9.35676 9.31091 16.9998 9.31091C24.6432 9.31091 30.8614 15.4944 30.8614 23.0948C30.8614 30.6955 24.6432 36.879 16.9998 36.879ZM24.2722 15.8633C24.8851 16.4728 24.8851 17.4609 24.2722 18.0701L18.1096 24.1983C17.4967 24.8077 16.503 24.8077 15.8904 24.1983C15.2776 23.5889 15.2776 22.6007 15.8904 21.9916L22.0528 15.8633C22.6656 15.2539 23.6594 15.2539 24.2722 15.8633Z" fill="#F13781"/>
</svg>
