<svg width="26" height="26" viewBox="0 0 26 26" fill="none" xmlns="http://www.w3.org/2000/svg">
<path d="M13 24.5535C13.3702 24.5535 13.727 24.4194 14.0051 24.1758C15.0555 23.2574 16.0681 22.3943 16.9615 21.633L16.9661 21.629C19.5855 19.3969 21.8475 17.4691 23.4213 15.5702C25.1806 13.4473 26 11.4345 26 9.23564C26 7.09926 25.2674 5.12831 23.9374 3.68561C22.5915 2.22585 20.7447 1.42188 18.7367 1.42188C17.2359 1.42188 15.8614 1.89636 14.6516 2.83205C14.041 3.30435 13.4876 3.88239 13 4.55663C12.5122 3.88239 11.959 3.30435 11.3482 2.83205C10.1384 1.89636 8.76396 1.42188 7.26314 1.42188C5.2553 1.42188 3.40834 2.22585 2.06244 3.68561C0.732409 5.12831 4.95911e-05 7.09926 4.95911e-05 9.23564C4.95911e-05 11.4345 0.819292 13.4473 2.57858 15.57C4.1524 17.4691 6.41415 19.3967 9.03314 21.6286C9.92816 22.3912 10.9424 23.2556 11.9951 24.1762C12.273 24.4194 12.6301 24.5535 13 24.5535ZM18.7367 2.94492C20.3143 2.94492 21.7635 3.57452 22.8178 4.7179C23.8878 5.87852 24.4772 7.48289 24.4772 9.23564C24.4772 11.085 23.7898 12.739 22.2487 14.5984C20.7592 16.3958 18.5437 18.2838 15.9785 20.47L15.9737 20.474C15.0769 21.2383 14.0603 22.1047 13.0022 23.0299C11.9378 22.1029 10.9196 21.2351 10.021 20.4696C7.45595 18.2834 5.24063 16.3958 3.75111 14.5984C2.21022 12.739 1.52289 11.085 1.52289 9.23564C1.52289 7.48289 2.11223 5.87852 3.1822 4.7179C4.23631 3.57452 5.68575 2.94492 7.26314 2.94492C8.41881 2.94492 9.47986 3.31229 10.4167 4.03671C11.2516 4.68259 11.8332 5.49905 12.1742 6.07034C12.3496 6.36412 12.6582 6.53947 13 6.53947C13.3418 6.53947 13.6505 6.36412 13.8258 6.07034C14.1666 5.49905 14.7482 4.68259 15.5833 4.03671C16.5202 3.31229 17.5812 2.94492 18.7367 2.94492Z" fill="#FF0000"/>
</svg>
