<svg width="31" height="31" viewBox="0 0 31 31" fill="none" xmlns="http://www.w3.org/2000/svg">
<path d="M8.47483 4.73974C12.7865 1.97471 18.2913 2.09466 22.4389 4.80918L21.1574 4.96701C20.4503 5.05539 19.9516 5.6993 20.0337 6.40634C20.1157 7.05656 20.6713 7.53634 21.3089 7.53634C21.3594 7.53634 25.8794 6.98081 25.8794 6.98081C26.2203 6.93662 26.5296 6.76617 26.7379 6.49472C26.9462 6.22326 27.0409 5.88237 26.9967 5.54148L26.4475 1.12879C26.3591 0.421753 25.7089 -0.0832753 25.0082 0.0114174C24.3012 0.0997973 23.8024 0.743708 23.8908 1.45075L24.0613 2.79539C19.0552 -0.607242 12.332 -0.80294 7.086 2.56812C0.956223 6.50103 -1.59417 14.2785 1.01935 21.0648C1.21505 21.5761 1.85265 22.0875 2.68595 21.8034C3.36142 21.5698 3.68338 20.7996 3.42455 20.1368C1.25293 14.4868 3.37405 8.01611 8.47483 4.73974Z" fill="#E53B96"/>
<path d="M29.7996 9.9352C29.6039 9.42386 28.9663 8.91252 28.133 9.1966C27.4575 9.43018 27.1355 10.2003 27.3944 10.8632C29.5723 16.5132 27.4449 22.9839 22.3441 26.2602C18.0324 29.0253 12.5276 28.9053 8.38005 26.1908L9.66156 26.033C10.3686 25.9446 10.8673 25.3007 10.7852 24.5936C10.7032 23.9434 10.1477 23.4636 9.51005 23.4636C9.45955 23.4636 4.93955 24.0192 4.93955 24.0192C4.59865 24.0634 4.28932 24.2338 4.081 24.5053C3.87268 24.7767 3.77798 25.1176 3.82217 25.4585L4.37139 29.8712C4.45977 30.5782 5.10999 31.0833 5.81072 30.9886C6.51776 30.9002 7.01648 30.2563 6.9281 29.5492L6.75765 28.2046C11.7701 31.6009 18.4932 31.7966 23.7455 28.4255C29.8627 24.499 32.4131 16.7215 29.7996 9.9352Z" fill="#E53B96"/>
<circle cx="15" cy="15" r="4" fill="#E53B96"/>
</svg>
