<svg width="35" height="36" viewBox="0 0 35 36" fill="none" xmlns="http://www.w3.org/2000/svg">
<path d="M32.4286 9.12893C32.65 8.57179 32.7786 7.96465 32.7786 7.32893C32.7786 4.65036 30.6 2.46465 27.9143 2.46465C27.1929 2.46465 26.5143 2.62179 25.8929 2.90751C23.3286 1.50036 20.4429 0.764648 17.5 0.764648C7.85 0.764648 0 8.61465 0 18.2646C0 27.9146 7.85 35.7646 17.5 35.7646C27.15 35.7646 35 27.9146 35 18.2646C35 15.0218 34.1143 11.8718 32.4286 9.12893ZM29.8571 7.32893C29.8571 8.40036 28.9857 9.27179 27.9143 9.27179C26.8429 9.27179 25.9714 8.40036 25.9714 7.32893C25.9714 6.25751 26.8429 5.38608 27.9143 5.38608C28.9857 5.37893 29.8571 6.25751 29.8571 7.32893ZM23.8214 18.2646C23.8214 21.7504 20.9857 24.5861 17.5 24.5861C14.0143 24.5861 11.1786 21.7504 11.1786 18.2646C11.1786 14.7789 14.0143 11.9432 17.5 11.9432C18.7143 11.9432 19.85 12.2861 20.8143 12.8861L16.4643 17.2361C15.8929 17.8075 15.8929 18.7289 16.4643 19.3004C16.75 19.5861 17.1214 19.7289 17.4929 19.7289C17.8643 19.7289 18.2429 19.5861 18.5214 19.3004L22.8714 14.9504C23.4714 15.9146 23.8214 17.0504 23.8214 18.2646ZM17.5 32.8504C9.45714 32.8504 2.91429 26.3075 2.91429 18.2646C2.91429 10.2218 9.45714 3.67893 17.5 3.67893C19.6286 3.67893 21.7214 4.14322 23.6286 5.02893C23.2571 5.71465 23.05 6.49322 23.05 7.32893C23.05 8.27893 23.3214 9.15751 23.7929 9.90751L22.9143 10.7861C21.3929 9.67894 19.5214 9.02893 17.5 9.02893C12.4071 9.02893 8.26429 13.1718 8.26429 18.2646C8.26429 23.3575 12.4071 27.5004 17.5 27.5004C22.5929 27.5004 26.7357 23.3575 26.7357 18.2646C26.7357 16.2432 26.0857 14.3718 24.9786 12.8504L26.0214 11.8075C26.6 12.0575 27.2429 12.1932 27.9143 12.1932C28.8286 12.1932 29.6857 11.9361 30.4214 11.4932C31.5143 13.5718 32.0857 15.8932 32.0857 18.2646C32.0857 26.3075 25.5429 32.8504 17.5 32.8504Z" fill="#E53B96"/>
</svg>
